<?xml version="1.0" encoding="UTF-8"?>
<svg xmlns="http://www.w3.org/2000/svg" id="Cooking_Classes" data-name="Cooking Classes" width="78.886" height="78.54" viewBox="0 0 78.886 78.54">
  <path id="Path_383" data-name="Path 383" d="M151.475,166.09a10.123,10.123,0,0,0,6.537-2.374l5.3,5.854-5.659,5.171-.813-.813a.943.943,0,0,0-1.366,0l-23.839,23.806a6.124,6.124,0,0,0,0,8.683,6.05,6.05,0,0,0,4.325,1.789,6.13,6.13,0,0,0,4.325-1.789l23.806-23.806a.943.943,0,0,0,0-1.366l-.813-.813,4.781-5.2,4.911,5.334-.683.683a.943.943,0,0,0,0,1.366l23.806,23.806a6.117,6.117,0,0,0,8.651-8.651L180.907,173.96a.943.943,0,0,0-1.366,0l-.976.976-5.594-5.138,5.886-6.407a15.635,15.635,0,0,0,8.683,2.634,17.405,17.405,0,0,0,11.025-4.553c5.821-5.821,12.684-22.245,6.439-28.489-6.277-6.277-22.668.618-28.489,6.439a15.639,15.639,0,0,0-1.919,19.741l-6.8,6.212-5.951-5.529.13-.13a10.246,10.246,0,0,0,0-14.44l-14.732-14.732a1,1,0,0,0-1.366,0l-16.489,16.489a.943.943,0,0,0,0,1.366l14.732,14.732a10.224,10.224,0,0,0,7.22,2.992h0Zm-12.521,38.961a4.213,4.213,0,0,1-2.959,1.236,4.08,4.08,0,0,1-2.96-1.236,4.2,4.2,0,0,1,0-5.919l23.123-23.123,5.919,5.919Zm41.368-29.042,23.123,23.123a4.213,4.213,0,0,1,1.236,2.959,4.08,4.08,0,0,1-1.236,2.959,4.2,4.2,0,0,1-5.919,0L174.4,181.928Zm-3.057.293L174.37,179.2l-4.976-5.4,2.342-2.537,5.529,5.073Zm.748-35.514c5.3-5.3,20.554-11.61,25.725-6.439s-1.138,20.424-6.439,25.725a13.667,13.667,0,0,1-18.765.488l-1.008-1.008a13.634,13.634,0,0,1,.488-18.765Zm-1.366,20.684c.163.163.358.325.52.488l.26.26-6.407,6.992h0l-9.041,9.822-2.894-2.894,16.846-15.48.26.26c.163.163.293.358.488.52h0Zm-10.147,5.2-1.724,1.594-5.334-5.854,1.171-1.171,5.886,5.464Zm-19.773-34.083,14.049,14.049a8.264,8.264,0,0,1,0,11.675l-3.415,3.415a8.264,8.264,0,0,1-11.675,0l-14.049-14.049,15.123-15.123Z" transform="translate(-129.027 -129.925)" fill="#5d3b71"></path>
  <path id="Path_384" data-name="Path 384" d="M135.843,207.74a6.416,6.416,0,0,1-4.521-10.927l23.839-23.806a1.2,1.2,0,0,1,1.724,0l.65.65,5.3-4.878-4.976-5.5a10.447,10.447,0,0,1-6.179,2.277h-.325a10.273,10.273,0,0,1-7.382-3.057L129.241,147.77a1.2,1.2,0,0,1,0-1.724l16.489-16.489a1.257,1.257,0,0,1,1.756,0l14.732,14.732a10.492,10.492,0,0,1,.033,14.765l5.594,5.2,6.472-5.919a15.9,15.9,0,0,1,2.049-19.871c3.057-3.057,8.781-6.212,14.18-7.805,3.838-1.138,10.8-2.472,14.667,1.366,3.838,3.838,2.5,10.83,1.366,14.667-1.594,5.431-4.748,11.122-7.805,14.18a15.71,15.71,0,0,1-11.22,4.618,13.2,13.2,0,0,1-8.651-2.569l-5.594,6.082,5.236,4.813.813-.813a1.2,1.2,0,0,1,1.724,0l23.839,23.806a6.347,6.347,0,0,1,1.886,4.521,6.216,6.216,0,0,1-1.886,4.521,6.439,6.439,0,0,1-9.041,0l-23.806-23.806a1.2,1.2,0,0,1,0-1.724l.52-.52-4.586-4.976-4.455,4.846.65.65a1.2,1.2,0,0,1,0,1.724L140.4,205.854a6.347,6.347,0,0,1-4.521,1.886Zm20.164-34.571a.647.647,0,0,0-.52.228L131.648,197.2a5.887,5.887,0,0,0,8.326,8.326l23.806-23.806a.726.726,0,0,0,0-1.041l-1.008-1.008,5.106-5.561,5.236,5.724-.846.846a.726.726,0,0,0,0,1.041l23.806,23.806A5.887,5.887,0,0,0,204.4,197.2L180.56,173.4a.726.726,0,0,0-1.041,0l-1.138,1.138-5.919-5.431,6.179-6.765.163.13a15.389,15.389,0,0,0,8.553,2.6,17.276,17.276,0,0,0,10.862-4.488c3.025-3.025,6.114-8.618,7.675-13.984,1.106-3.707,2.407-10.5-1.268-14.18s-10.44-2.374-14.18-1.268c-5.334,1.594-10.96,4.683-13.984,7.675a15.365,15.365,0,0,0-1.886,19.416l.13.163-7.09,6.537-6.309-5.854.325-.325a9.971,9.971,0,0,0,0-14.114L146.9,129.916a.791.791,0,0,0-1.041,0L129.371,146.4a.768.768,0,0,0-.228.52.647.647,0,0,0,.228.52L144.1,162.177a9.944,9.944,0,0,0,6.927,2.927h.1A9.906,9.906,0,0,0,157.5,162.8l.2-.163,5.626,6.179-5.984,5.5-1.008-1.008a.767.767,0,0,0-.52-.228Zm-20.164,32.619a4.326,4.326,0,0,1-3.122-1.3,4.456,4.456,0,0,1,0-6.277l23.318-23.318,6.277,6.277L139,204.488a4.38,4.38,0,0,1-3.122,1.3Zm20.164-30.18-22.96,22.96a3.88,3.88,0,0,0-1.138,2.8,4.017,4.017,0,0,0,1.138,2.8,3.926,3.926,0,0,0,5.594,0L161.6,181.2l-5.561-5.561Zm44.327,30.18a4.3,4.3,0,0,1-3.122-1.3L173.893,181.17l6.277-6.277,23.318,23.318a4.38,4.38,0,0,1,1.3,3.122,4.442,4.442,0,0,1-4.423,4.423ZM174.576,181.17l22.96,22.96a3.944,3.944,0,1,0,5.561-5.594l-22.96-22.96-5.561,5.561Zm-.358-2.407-5.3-5.756,2.634-2.894,5.886,5.4-3.252,3.252Zm-4.618-5.756,4.651,5.041,2.537-2.537-5.138-4.716-2.016,2.179Zm-7.805,5.626-3.252-3.252,17.2-15.806.423.423a1.5,1.5,0,0,0,.228.228c.1.1.163.2.26.293h.033a2.933,2.933,0,0,0,.293.325l.163.13.423.423-15.806,17.2Zm-2.537-3.22,2.537,2.537,15.155-16.489-.228-.228a3.9,3.9,0,0,1-.39-.358l-.228-.228h0l-.065-.065c-.065-.065-.13-.163-.2-.228l-.065-.065-16.489,15.123Zm5.334-7.545-5.659-6.212,1.5-1.5,6.244,5.789-2.114,1.919Zm-4.976-6.212,5.008,5.529,1.366-1.236-5.529-5.106-.846.846Zm-8.293,1.984a8.465,8.465,0,0,1-6.017-2.472l-14.212-14.212,15.448-15.448,14.212,14.212a8.519,8.519,0,0,1,0,12.033l-3.415,3.415A8.465,8.465,0,0,1,151.323,163.641Zm-19.546-16.684,13.854,13.854a8.048,8.048,0,0,0,11.35,0L160.4,157.4a8.048,8.048,0,0,0,0-11.35l-13.854-13.854Zm55.742,16.619a13.751,13.751,0,0,1-9.3-3.577l-1.008-1.008a13.856,13.856,0,0,1,.488-19.123h0c5.366-5.366,20.814-11.708,26.083-6.439s-1.073,20.716-6.439,26.083a13.837,13.837,0,0,1-9.822,4.065Zm-9.659-23.546.163.163a13.385,13.385,0,0,0-.455,18.44l1.008,1.008a13.386,13.386,0,0,0,18.44-.488c2.7-2.7,5.529-7.838,7.09-12.814,1.789-5.789,1.561-10.374-.65-12.586s-6.8-2.439-12.586-.65c-4.976,1.561-10.114,4.39-12.814,7.09l-.163-.163Z" transform="translate(-128.875 -129.2)" fill="#5d3b71"></path>
  <path id="Path_385" data-name="Path 385" d="M187.53,169.87A.966.966,0,0,0,188.9,168.5l-10.212-10.212a.943.943,0,0,0-1.366,0,.972.972,0,0,0,0,1.366L187.53,169.87Z" transform="translate(-161.374 -148.634)" fill="#5d3b71"></path>
  <path id="Path_386" data-name="Path 386" d="M187.648,169.817a1.317,1.317,0,0,1-.878-.358l-10.212-10.212a1.2,1.2,0,0,1-.358-.878,1.22,1.22,0,0,1,2.081-.878L188.493,167.7a1.2,1.2,0,0,1,0,1.724,1.257,1.257,0,0,1-.878.358Zm-.52-.715a.736.736,0,1,0,1.041-1.041l-10.212-10.212a.726.726,0,0,0-1.041,0c-.293.293-.228.325-.228.52a.647.647,0,0,0,.228.52Z" transform="translate(-160.809 -148.06)" fill="#5d3b71"></path>
  <path id="Path_387" data-name="Path 387" d="M176.53,180.87A.966.966,0,1,0,177.9,179.5l-10.212-10.212a.943.943,0,0,0-1.366,0,.971.971,0,0,0,0,1.366L176.53,180.87Z" transform="translate(-153.951 -156.056)" fill="#5d3b71"></path>
  <path id="Path_388" data-name="Path 388" d="M176.648,180.817a1.317,1.317,0,0,1-.878-.358l-10.212-10.212a1.257,1.257,0,0,1-.358-.878,1.317,1.317,0,0,1,.358-.878,1.258,1.258,0,0,1,1.724,0L177.493,178.7a1.2,1.2,0,0,1,0,1.724,1.257,1.257,0,0,1-.878.358Zm-10.212-12.163a.647.647,0,0,0-.52.228.768.768,0,0,0-.228.52.647.647,0,0,0,.228.52l10.212,10.212a.736.736,0,1,0,1.041-1.041l-10.212-10.212A.767.767,0,0,0,166.436,168.654Z" transform="translate(-153.386 -155.483)" fill="#5d3b71"></path>
  <path id="Path_389" data-name="Path 389" d="M166.288,192.163a.976.976,0,0,0,.683-1.659l-10.212-10.212a.966.966,0,0,0-1.366,1.366L165.6,191.87a.936.936,0,0,0,.683.293h0Z" transform="translate(-146.571 -163.479)" fill="#5d3b71"></path>
  <path id="Path_390" data-name="Path 390" d="M165.731,191.834a1.317,1.317,0,0,1-.878-.358l-10.212-10.212a1.219,1.219,0,0,1,1.724-1.724l10.212,10.212a1.2,1.2,0,0,1,0,1.724,1.257,1.257,0,0,1-.878.358Zm-10.212-12.163a.647.647,0,0,0-.52.228.767.767,0,0,0-.228.52.647.647,0,0,0,.228.52l10.212,10.212a.736.736,0,0,0,1.041-1.041L156.039,179.9a.768.768,0,0,0-.52-.228Z" transform="translate(-146.014 -162.922)" fill="#5d3b71"></path>
</svg>
