<?xml version="1.0" encoding="UTF-8"?>
<svg xmlns="http://www.w3.org/2000/svg" width="44.91" height="28.573" viewBox="0 0 44.91 28.573">
  <g id="Group_7" data-name="Group 7" transform="translate(257.5 -112)">
    <g id="Group_5" data-name="Group 5" transform="translate(-257.5 112)">
      <path id="Path_32" data-name="Path 32" d="M-239.27,130.545v-8.115a3.718,3.718,0,0,1,3.629-3.8h7.938V116.7a4.6,4.6,0,0,0-4.49-4.7h-20.818a4.6,4.6,0,0,0-4.489,4.7v10.039a4.6,4.6,0,0,0,4.489,4.7h3.436v5.547a.377.377,0,0,0,.639.264l4.909-5.812h4.862A3.919,3.919,0,0,1-239.27,130.545Z" transform="translate(257.5 -112)" fill="#5d3b71"></path>
    </g>
    <g id="Group_6" data-name="Group 6" transform="translate(-237.211 120.342)">
      <path id="Path_33" data-name="Path 33" d="M-221.132,130.38v9.057a3.352,3.352,0,0,0,3.273,3.425h8.628l3.579,4.237a.274.274,0,0,0,.465-.193v-4.044h5.4a3.352,3.352,0,0,0,3.274-3.425V130.38a3.354,3.354,0,0,0-3.274-3.427h-18.074A3.353,3.353,0,0,0-221.132,130.38Z" transform="translate(221.132 -126.953)" fill="#5d3b71"></path>
    </g>
  </g>
</svg>
