<?xml version="1.0" encoding="UTF-8"?>
<svg xmlns="http://www.w3.org/2000/svg" id="Meal_Planning" data-name="Meal Planning" width="76" height="76" viewBox="0 0 76 76">
  <path id="Path_391" data-name="Path 391" d="M230.008,233.017a.912.912,0,0,0,0-1.321l-16.861-16.861a.971.971,0,0,0-1.321,0,12.868,12.868,0,1,0,18.182,18.214h0Zm-17.522-16.169,15.477,15.477a10.95,10.95,0,0,1-7.078,2.579,11.486,11.486,0,0,1-7.77-3.209,10.993,10.993,0,0,1-.629-14.848Z" transform="translate(-183.263 -187.719)" fill="#5d3b71"></path>
  <path id="Path_392" data-name="Path 392" d="M220.252,236.512a13.1,13.1,0,0,1-9.28-22.366,1.215,1.215,0,0,1,1.7,0l16.861,16.861a1.159,1.159,0,0,1,0,1.667h0A12.986,12.986,0,0,1,220.252,236.512Zm-8.43-22.24a.714.714,0,0,0-.5.189,12.626,12.626,0,0,0,0,17.868c4.939,4.907,5.568,3.712,8.934,3.712a12.567,12.567,0,0,0,8.934-3.712h0a.7.7,0,0,0,0-1.007l-16.861-16.861A.715.715,0,0,0,211.821,214.272Zm8.43,20.353a11.061,11.061,0,0,1-7.927-3.3,11.3,11.3,0,0,1-.661-15.162l.252-.315.126.315,15.634,15.634-.189.157a11.194,11.194,0,0,1-7.235,2.642Zm-8.4-17.93a10.812,10.812,0,0,0,.786,14.313,10.63,10.63,0,0,0,7.613,3.146,10.016,10.016,0,0,0,6.732-2.359l-15.1-15.1Z" transform="translate(-182.629 -187.187)" fill="#5d3b71"></path>
  <path id="Path_393" data-name="Path 393" d="M231.119,252.883l-1.636,1.636a.912.912,0,0,0,0,1.321.912.912,0,0,0,1.321,0l1.636-1.636a.934.934,0,0,0-1.321-1.321Z" transform="translate(-197.743 -213.782)" fill="#5d3b71"></path>
  <path id="Path_394" data-name="Path 394" d="M229.7,255.809a1.274,1.274,0,0,1-.849-.346,1.052,1.052,0,0,1-.346-.849,1.216,1.216,0,0,1,.346-.849l1.636-1.636a1.18,1.18,0,0,1,2.013.849,1.215,1.215,0,0,1-.346.849l-1.636,1.636a1.215,1.215,0,0,1-.849.346Zm1.636-3.523a.626.626,0,0,0-.5.22l-1.636,1.636a.712.712,0,1,0,1.007,1.007l1.636-1.636a.7.7,0,0,0,0-1.007A.742.742,0,0,0,231.331,252.286Z" transform="translate(-197.263 -213.217)" fill="#5d3b71"></path>
  <path id="Path_395" data-name="Path 395" d="M248.387,262.14v-2.3a.944.944,0,1,0-1.887,0v2.3a.944.944,0,1,0,1.887,0Z" transform="translate(-209.601 -218.1)" fill="#5d3b71"></path>
  <path id="Path_396" data-name="Path 396" d="M246.9,262.787a1.2,1.2,0,0,1-1.2-1.2v-2.3a1.2,1.2,0,0,1,2.391,0v2.3A1.2,1.2,0,0,1,246.9,262.787Zm0-4.184a.7.7,0,0,0-.692.692v2.3a.692.692,0,1,0,1.384,0v-2.3A.7.7,0,0,0,246.9,258.6Z" transform="translate(-209.053 -217.552)" fill="#5d3b71"></path>
  <path id="Path_397" data-name="Path 397" d="M225.084,241.544a.927.927,0,0,0-.944-.944h-2.3a.944.944,0,1,0,0,1.887h2.3A.927.927,0,0,0,225.084,241.544Z" transform="translate(-192.054 -205.557)" fill="#5d3b71"></path>
  <path id="Path_398" data-name="Path 398" d="M223.592,242.191h-2.3a1.2,1.2,0,1,1,0-2.391h2.3a1.2,1.2,0,0,1,0,2.391Zm-2.3-1.887a.692.692,0,1,0,0,1.384h2.3a.692.692,0,1,0,0-1.384Z" transform="translate(-191.506 -205.009)" fill="#5d3b71"></path>
  <path id="Path_399" data-name="Path 399" d="M135.825,199.331a5.189,5.189,0,0,0-5.725,5.19v19.5a9.555,9.555,0,0,0,2.3,6.2l9.311,10.758a3.269,3.269,0,0,1,.818,2.171v8.871a.927.927,0,0,0,.944.944h16.106a.927.927,0,0,0,.944-.944V232.865a5.089,5.089,0,0,0-1.541-3.68l-11.356-11.356a5.227,5.227,0,0,0-7.046-.315v-12.8a5.4,5.4,0,0,0-4.719-5.411h0Zm12.9,31.771-7.172-7.172a3.359,3.359,0,0,1,4.75-4.75l11.356,11.356a3.279,3.279,0,0,1,.975,2.359V251.11H144.413v-7.927a5.157,5.157,0,0,0-1.258-3.4l-9.311-10.758a7.6,7.6,0,0,1-1.856-4.97v-19.5a3.348,3.348,0,0,1,3.68-3.334,3.466,3.466,0,0,1,3.02,3.523v16.829a5.067,5.067,0,0,0,1.541,3.68l7.172,7.172a.934.934,0,0,0,1.321-1.321h0Z" transform="translate(-129.817 -177.249)" fill="#5d3b71"></path>
  <path id="Path_400" data-name="Path 400" d="M158.927,252.776H142.821a1.2,1.2,0,0,1-1.2-1.2v-8.871a3.128,3.128,0,0,0-.755-2.013l-9.311-10.758a9.634,9.634,0,0,1-2.359-6.354v-19.5a5.526,5.526,0,0,1,1.793-4.058,5.47,5.47,0,0,1,4.215-1.384,5.606,5.606,0,0,1,4.939,5.631V216.6a5.525,5.525,0,0,1,6.983.629l11.356,11.356a5.379,5.379,0,0,1,1.6,3.838V251.58a1.2,1.2,0,0,1-1.2,1.2ZM134.674,199.11a5.169,5.169,0,0,0-3.366,1.29,5.024,5.024,0,0,0-1.636,3.712v19.5a9.057,9.057,0,0,0,2.265,6.04l9.311,10.758a3.574,3.574,0,0,1,.881,2.328v8.871a.7.7,0,0,0,.692.692h16.106a.7.7,0,0,0,.692-.692V232.454a4.948,4.948,0,0,0-1.447-3.523l-11.356-11.356a5.021,5.021,0,0,0-6.732-.315l-.377.315V204.269a5.152,5.152,0,0,0-4.5-5.159h-.535Zm23.53,51.778h-14.69v-8.179a4.883,4.883,0,0,0-1.227-3.24l-9.311-10.758a7.848,7.848,0,0,1-1.919-5.127v-19.5a3.617,3.617,0,0,1,1.164-2.642,3.546,3.546,0,0,1,2.768-.912,3.723,3.723,0,0,1,3.24,3.743V221.1a4.979,4.979,0,0,0,1.478,3.523l7.172,7.172a.712.712,0,1,0,1.007-1.007h0l-7.172-7.172a3.581,3.581,0,1,1,5.065-5.065l11.356,11.356a3.572,3.572,0,0,1,1.038,2.517v18.434Zm-14.219-.472h13.747V232.454a2.971,2.971,0,0,0-.912-2.171l-11.356-11.356a3.114,3.114,0,0,0-4.4,4.4l7.172,7.172a1.179,1.179,0,1,1-1.667,1.667L139.392,225a5.379,5.379,0,0,1-1.6-3.838V204.3a3.2,3.2,0,0,0-2.8-3.271,3.006,3.006,0,0,0-2.391.786,3.05,3.05,0,0,0-1.007,2.3v19.5a7.36,7.36,0,0,0,1.793,4.813l9.311,10.758a5.4,5.4,0,0,1,1.321,3.555v7.707Z" transform="translate(-129.2 -176.776)" fill="#5d3b71"></path>
  <path id="Path_401" data-name="Path 401" d="M274.312,253.069h16.106a.927.927,0,0,0,.944-.944v-8.871a3.269,3.269,0,0,1,.818-2.171l9.311-10.758a9.555,9.555,0,0,0,2.3-6.2v-19.5a5.259,5.259,0,0,0-1.7-3.869,5.122,5.122,0,0,0-4.026-1.321,5.372,5.372,0,0,0-4.719,5.411v12.8a5.26,5.26,0,0,0-7.046.315l-11.356,11.356A5.217,5.217,0,0,0,273.4,233v19.157a.927.927,0,0,0,.944.944h0Zm.944-20.1a3.333,3.333,0,0,1,.975-2.359l11.356-11.356a3.359,3.359,0,0,1,4.75,4.75l-7.2,7.172a.934.934,0,1,0,1.321,1.321l7.172-7.172a5.25,5.25,0,0,0,1.541-3.68V204.814a3.466,3.466,0,0,1,3.02-3.523,3.314,3.314,0,0,1,2.579.849,3.382,3.382,0,0,1,1.1,2.485v19.5a7.6,7.6,0,0,1-1.856,4.97L290.7,239.857a5.218,5.218,0,0,0-1.258,3.4v7.927H275.224V232.968Z" transform="translate(-228.039 -177.321)" fill="#5d3b71"></path>
  <path id="Path_402" data-name="Path 402" d="M289.87,252.776H273.764a1.168,1.168,0,0,1-1.164-1.2V232.423a5.326,5.326,0,0,1,1.6-3.838l11.356-11.356a5.525,5.525,0,0,1,6.983-.629V204.269a5.606,5.606,0,0,1,4.939-5.631,5.431,5.431,0,0,1,4.215,1.384,5.526,5.526,0,0,1,1.793,4.058v19.5a9.8,9.8,0,0,1-2.359,6.354L291.82,240.7a3.128,3.128,0,0,0-.755,2.013v8.871A1.2,1.2,0,0,1,289.87,252.776Zm-.44-36.647a5.131,5.131,0,0,0-3.555,1.447l-11.356,11.356a4.9,4.9,0,0,0-1.447,3.523v19.157a.7.7,0,0,0,.692.692H289.87a.7.7,0,0,0,.692-.692v-8.871a3.512,3.512,0,0,1,.881-2.328l9.311-10.758a9.28,9.28,0,0,0,2.265-6.04v-19.5a5.017,5.017,0,0,0-5.474-5,5.152,5.152,0,0,0-4.5,5.159v13.306l-.377-.315a4.977,4.977,0,0,0-3.177-1.132Zm-.283,34.76h-14.69V232.455a3.628,3.628,0,0,1,1.038-2.517l11.356-11.356a3.581,3.581,0,0,1,5.065,5.065l-7.2,7.172a.712.712,0,0,0,1.007,1.007l7.172-7.172a4.948,4.948,0,0,0,1.447-3.523V204.3a3.7,3.7,0,0,1,3.24-3.743,3.546,3.546,0,0,1,2.768.912,3.5,3.5,0,0,1,1.164,2.642v19.5a7.91,7.91,0,0,1-1.919,5.127L290.279,239.5a5.007,5.007,0,0,0-1.227,3.24v8.179Zm-14.219-.472h13.747v-7.707A5.462,5.462,0,0,1,290,239.155l9.311-10.758a7.3,7.3,0,0,0,1.793-4.813v-19.5a3.114,3.114,0,0,0-1.007-2.3A3.043,3.043,0,0,0,297.7,201a3.246,3.246,0,0,0-2.8,3.271V221.1a5.4,5.4,0,0,1-1.6,3.869l-7.172,7.172a1.179,1.179,0,0,1-1.667-1.667l7.2-7.172a3.114,3.114,0,1,0-4.4-4.4L275.9,230.253a3.023,3.023,0,0,0-.912,2.171v17.962Z" transform="translate(-227.491 -176.776)" fill="#5d3b71"></path>
  <path id="Path_403" data-name="Path 403" d="M252.046,159.3a.912.912,0,0,0,1.321,0l2.2-2.2,6.826,2.2a5.924,5.924,0,0,0,1.793.283,5.472,5.472,0,0,0,4.97-2.988,5.739,5.739,0,0,0,.566-2.485v-.126a6.066,6.066,0,0,0,5.411-3.649,5.664,5.664,0,0,0,.409-2.171,5.758,5.758,0,0,0,5.788-5.348,5.681,5.681,0,0,0-1.2-3.806,5.666,5.666,0,0,0-7.833-7.833,5.681,5.681,0,0,0-3.806-1.2,5.758,5.758,0,0,0-5.348,5.788,5.222,5.222,0,0,0-2.171.409,6.082,6.082,0,0,0-3.649,5.411,6.229,6.229,0,0,0-2.642.566,5.623,5.623,0,0,0-2.705,6.763l2.2,6.826-2.2,2.2a.912.912,0,0,0,0,1.321h0Zm1.793-10.947a3.724,3.724,0,0,1,1.73-4.5,3.629,3.629,0,0,1,2.517-.283.889.889,0,0,0,.786-.189.94.94,0,0,0,.346-.724v-.849a4.2,4.2,0,0,1,2.454-3.869,3.492,3.492,0,0,1,2.2-.157.889.889,0,0,0,.786-.189.94.94,0,0,0,.346-.724v-1.007a3.977,3.977,0,0,1,3.555-4,3.842,3.842,0,0,1,2.957,1.164.932.932,0,0,0,1.29.063,3.779,3.779,0,0,1,5.348,5.316.9.9,0,0,0,.063,1.29,3.734,3.734,0,0,1,1.164,2.957,3.93,3.93,0,0,1-4,3.555H274.38a.9.9,0,0,0-.723.346.912.912,0,0,0-.189.786,3.524,3.524,0,0,1-.157,2.2,4.15,4.15,0,0,1-3.869,2.454h-.849a.9.9,0,0,0-.724.346,1.026,1.026,0,0,0-.189.786,4.13,4.13,0,0,1,.094.849,3.8,3.8,0,0,1-.377,1.667,3.71,3.71,0,0,1-4.5,1.73l-5.914-1.887,14.187-14.187a.912.912,0,0,0,0-1.321.94.94,0,0,0-1.321,0l-14.187,14.187-1.919-5.914Z" transform="translate(-213.165 -129.735)" fill="#5d3b71"></path>
  <path id="Path_404" data-name="Path 404" d="M263.877,159.381a6.539,6.539,0,0,1-1.887-.283l-6.669-2.139-2.108,2.108a1.18,1.18,0,0,1-2.013-.849,1.142,1.142,0,0,1,.346-.818l2.108-2.108-2.139-6.669a5.685,5.685,0,0,1,5.316-7.644,6.264,6.264,0,0,1,3.775-5.379,5.972,5.972,0,0,1,2.045-.44,6,6,0,0,1,5.568-5.788,5.767,5.767,0,0,1,3.838,1.132,5.911,5.911,0,0,1,8.116,8.116,5.944,5.944,0,0,1,1.132,3.838,6.022,6.022,0,0,1-5.788,5.568,5.777,5.777,0,0,1-.409,2.045,6.3,6.3,0,0,1-5.379,3.775,5.805,5.805,0,0,1-.6,2.517,5.73,5.73,0,0,1-5.159,3.114Zm-8.682-2.988,6.952,2.233a5.391,5.391,0,0,0,1.73.283,5.19,5.19,0,0,0,5.316-5.222v-.377h.22a5.848,5.848,0,0,0,5.19-3.492,4.77,4.77,0,0,0,.378-2.076v-.252h.22a5.568,5.568,0,0,0,5.568-5.127,5.433,5.433,0,0,0-1.132-3.649l-.094-.126.094-.126a5.417,5.417,0,0,0-7.487-7.487l-.126.094-.126-.094a5.273,5.273,0,0,0-3.649-1.132,5.568,5.568,0,0,0-5.127,5.568v.252h-.252a5.6,5.6,0,0,0-2.076.377,5.848,5.848,0,0,0-3.492,5.19v.22h-.252a5.269,5.269,0,0,0-5.1,7.046l2.233,6.952-2.3,2.3a.742.742,0,0,0-.22.5.626.626,0,0,0,.22.5h0a.7.7,0,0,0,1.007,0l2.3-2.3Zm8.714,1.1a3.882,3.882,0,0,1-1.321-.22l-6.26-2.013,14.439-14.439a.742.742,0,0,0,.22-.5.626.626,0,0,0-.22-.5.7.7,0,0,0-1.007,0l-14.439,14.439-2.013-6.26a3.822,3.822,0,0,1,4.53-5.065.666.666,0,0,0,.6-.126.765.765,0,0,0,.283-.566v-.849a4.352,4.352,0,0,1,2.611-4.089,3.683,3.683,0,0,1,2.328-.189.666.666,0,0,0,.6-.126.764.764,0,0,0,.283-.566v-1.007a4.167,4.167,0,0,1,3.775-4.215,3.955,3.955,0,0,1,3.146,1.258.693.693,0,0,0,.975.031,4.036,4.036,0,0,1,5.694,5.694.724.724,0,0,0,.031.975,3.929,3.929,0,0,1,1.227,3.146,4.215,4.215,0,0,1-4.215,3.806h-1.007a.715.715,0,0,0-.566.283.666.666,0,0,0-.126.6,3.683,3.683,0,0,1-.189,2.328,4.384,4.384,0,0,1-4.089,2.611h-.849a.714.714,0,0,0-.566.283.666.666,0,0,0-.126.6,4.493,4.493,0,0,1,.094.912,3.724,3.724,0,0,1-.409,1.762,3.78,3.78,0,0,1-3.46,2.045Zm-6.7-2.454,5.536,1.793a3.493,3.493,0,0,0,4.215-1.6,3.3,3.3,0,0,0,.346-1.573,2.251,2.251,0,0,0-.094-.818,1.168,1.168,0,0,1,1.133-1.447h.849a3.909,3.909,0,0,0,3.649-2.328,3.475,3.475,0,0,0,.157-2.045,1.168,1.168,0,0,1,1.132-1.447h1.007a3.689,3.689,0,0,0,3.743-3.334,3.54,3.54,0,0,0-1.1-2.768,1.15,1.15,0,0,1-.063-1.636,3.544,3.544,0,0,0-5-5,1.21,1.21,0,0,1-1.636-.063,3.54,3.54,0,0,0-2.768-1.1,3.687,3.687,0,0,0-3.334,3.743v1.007a1.168,1.168,0,0,1-1.447,1.132,3.241,3.241,0,0,0-2.045.157,3.941,3.941,0,0,0-2.328,3.649v.849a1.168,1.168,0,0,1-1.447,1.132,3.586,3.586,0,0,0-2.359.252,3.493,3.493,0,0,0-1.6,4.215l1.793,5.536,13.9-13.9a1.217,1.217,0,0,1,1.667,0c.44.44.346.5.346.849a1.215,1.215,0,0,1-.346.849l-13.9,13.9Z" transform="translate(-212.822 -129.308)" fill="#5d3b71"></path>
  <path id="Path_405" data-name="Path 405" d="M176.7,153.4A11.7,11.7,0,1,0,165,141.7a11.72,11.72,0,0,0,11.7,11.7Zm0-21.517a9.815,9.815,0,1,1-9.815,9.815,9.827,9.827,0,0,1,9.815-9.815Z" transform="translate(-153.738 -129.748)" fill="#5d3b71"></path>
  <path id="Path_406" data-name="Path 406" d="M176.154,153.107a11.954,11.954,0,1,1,11.954-11.954A11.968,11.968,0,0,1,176.154,153.107Zm0-23.4a11.482,11.482,0,1,0,11.482,11.482A11.505,11.505,0,0,0,176.154,129.7Zm0,21.517a10.066,10.066,0,1,1,10.066-10.066A10.076,10.076,0,0,1,176.154,151.22Zm0-19.629a9.594,9.594,0,1,0,9.594,9.594A9.612,9.612,0,0,0,176.154,131.591Z" transform="translate(-153.19 -129.2)" fill="#5d3b71"></path>
  <path id="Path_407" data-name="Path 407" d="M189.657,160.413a5.757,5.757,0,1,0-5.757-5.757A5.759,5.759,0,0,0,189.657,160.413Zm0-9.626a3.869,3.869,0,1,1-3.869,3.869A3.866,3.866,0,0,1,189.657,150.787Z" transform="translate(-166.693 -142.703)" fill="#5d3b71"></path>
  <path id="Path_408" data-name="Path 408" d="M189.177,160.254a5.977,5.977,0,1,1,5.977-5.977A5.974,5.974,0,0,1,189.177,160.254Zm0-11.513a5.5,5.5,0,1,0,5.5,5.5A5.511,5.511,0,0,0,189.177,148.74Zm0,9.626a4.089,4.089,0,1,1,4.089-4.089A4.081,4.081,0,0,1,189.177,158.366Zm0-7.738a3.618,3.618,0,1,0,3.618,3.618A3.618,3.618,0,0,0,189.177,150.628Z" transform="translate(-166.213 -142.292)" fill="#5d3b71"></path>
</svg>
