<?xml version="1.0" encoding="UTF-8"?>
<svg xmlns="http://www.w3.org/2000/svg" id="Motivation" width="69.875" height="77.483" viewBox="0 0 69.875 77.483">
  <path id="Path_409" data-name="Path 409" d="M132.612,186.2a1.236,1.236,0,0,1-2.421-.5l4.265-20.334a2.116,2.116,0,0,0-.028-1.018,1.825,1.825,0,0,0-.55-.853l-.055-.055a32.823,32.823,0,0,1-7.264-10.4,30.518,30.518,0,0,1,6.329-33.761A30.211,30.211,0,0,1,154.35,110.4a29.878,29.878,0,0,1,21.049,8.475,30.335,30.335,0,0,1,9.3,20.692,2.557,2.557,0,0,0,.138.8v.055a2.746,2.746,0,0,0,.358.688l7.457,11.557a4.323,4.323,0,0,1,.715,2.036,4.374,4.374,0,0,1-.358,2.119,4.562,4.562,0,0,1-1.293,1.733,4.738,4.738,0,0,1-1.954.908l-4.925.936a2.114,2.114,0,0,0-1.073.55,1.888,1.888,0,0,0-.523,1.073l-1.733,10.7a4.3,4.3,0,0,1-1.458,2.641,4.4,4.4,0,0,1-2.807,1.1l-11.584.413a1.786,1.786,0,0,0-1.321.578,1.92,1.92,0,0,0-.605,1.321l-.413,7.182a1.226,1.226,0,0,1-2.449-.138l.413-7.182a4.377,4.377,0,0,1,1.321-2.944,4.448,4.448,0,0,1,2.972-1.266l11.584-.413a1.847,1.847,0,0,0,1.238-.5,1.932,1.932,0,0,0,.633-1.183l1.733-10.7a4.784,4.784,0,0,1,1.183-2.421,4.33,4.33,0,0,1,2.366-1.266l4.925-.936a1.964,1.964,0,0,0,.88-.385,2.034,2.034,0,0,0,.578-.77,1.933,1.933,0,0,0,.165-.963,1.749,1.749,0,0,0-.33-.908l-7.457-11.556a5.922,5.922,0,0,1-.605-1.266v-.055a5.075,5.075,0,0,1-.275-1.458,27.877,27.877,0,0,0-27.846-26.8,27.9,27.9,0,0,0-27.873,27.873c0,7.677.853,7.842,2.366,11.309a30.153,30.153,0,0,0,6.686,9.6l.055.055a4.342,4.342,0,0,1,1.266,4.127l-4.265,20.334Zm19.316-50.518c7.016-3.88,9.85-7.512,10.318-10.236a3.5,3.5,0,0,0-.825-3.082,4.02,4.02,0,0,0-2.917-1.238c-1.9-.055-4.072,1.018-5.5,3.66a1.237,1.237,0,0,1-2.174,0c-1.431-2.641-3.577-3.715-5.5-3.66a4.068,4.068,0,0,0-2.917,1.238,3.5,3.5,0,0,0-.825,3.082c.468,2.752,3.274,6.384,10.318,10.236h.028Zm12.74-9.851c-.578,3.467-3.907,7.924-12.162,12.327a1.228,1.228,0,0,1-1.156,0c-8.255-4.43-11.584-8.86-12.162-12.327a5.936,5.936,0,0,1,1.431-5.145,6.62,6.62,0,0,1,4.65-2.036,8.19,8.19,0,0,1,6.659,3.3,8.232,8.232,0,0,1,6.659-3.3,6.569,6.569,0,0,1,4.65,2.036,5.88,5.88,0,0,1,1.431,5.145Zm9.74,12.409a1.233,1.233,0,0,1,2.064,1.348,6.241,6.241,0,0,1-2.256,2.064,6.077,6.077,0,0,1-2.944.743,6.314,6.314,0,0,1-2.944-.743,6.241,6.241,0,0,1-2.256-2.064,1.211,1.211,0,0,1,.358-1.706,1.234,1.234,0,0,1,1.706.358,3.852,3.852,0,0,0,1.348,1.238,3.665,3.665,0,0,0,1.788.44,4,4,0,0,0,1.789-.44,3.853,3.853,0,0,0,1.348-1.238Z" transform="translate(-123.725 -110.152)" fill="#5d3b71"></path>
  <path id="Path_410" data-name="Path 410" d="M130.677,186.818a1.129,1.129,0,0,1-.3-.028A1.511,1.511,0,0,1,129.191,185l4.265-20.334a1.9,1.9,0,0,0-.028-.88,1.7,1.7,0,0,0-.468-.715l-.083-.083a32.606,32.606,0,0,1-7.292-10.456A31.153,31.153,0,0,1,123,140.125,30.626,30.626,0,0,1,153.625,109.5a29.986,29.986,0,0,1,21.214,8.557,30.426,30.426,0,0,1,9.383,20.884,2.991,2.991,0,0,0,.11.715v.055a4.7,4.7,0,0,0,.33.633l7.457,11.556a4.569,4.569,0,0,1,.743,2.174,4.615,4.615,0,0,1-.385,2.256,4.853,4.853,0,0,1-1.376,1.844,5.036,5.036,0,0,1-2.091.963l-4.925.936a1.561,1.561,0,0,0-.908.5,1.888,1.888,0,0,0-.468.936l-1.733,10.7a4.614,4.614,0,0,1-1.541,2.807,4.9,4.9,0,0,1-2.972,1.183l-11.584.413a1.584,1.584,0,0,0-1.128.5,1.8,1.8,0,0,0-.523,1.128l-.413,7.209a1.516,1.516,0,1,1-3.027-.165l.413-7.182a4.712,4.712,0,0,1,4.568-4.457l11.584-.413a1.679,1.679,0,0,0,1.073-.413,1.629,1.629,0,0,0,.55-1.018l1.733-10.7a4.807,4.807,0,0,1,1.266-2.559,4.864,4.864,0,0,1,2.5-1.348l4.925-.936a1.775,1.775,0,0,0,.77-.33,2.079,2.079,0,0,0,.5-.66,1.745,1.745,0,0,0,.138-.825,1.384,1.384,0,0,0-.275-.77l-7.457-11.556a5.78,5.78,0,0,1-.633-1.321v-.055a5.653,5.653,0,0,1-.275-1.541A27.595,27.595,0,0,0,126,140.262c0,7.347.8,7.622,2.339,11.2a29.557,29.557,0,0,0,6.631,9.52l.055.055a4.548,4.548,0,0,1,1.266,2.036,4.6,4.6,0,0,1,.11,2.366l-4.265,20.334a1.5,1.5,0,0,1-1.486,1.211Zm22.948-76.768a30.062,30.062,0,0,0-30.074,30.074c0,8.035.853,8.282,2.531,12.189a32.033,32.033,0,0,0,7.182,10.291l.083.083a2.121,2.121,0,0,1,.605.963,2.322,2.322,0,0,1,.055,1.156l-4.265,20.334a.955.955,0,0,0,1.871.385h0l4.265-20.334a4.458,4.458,0,0,0-.083-2.091,4.517,4.517,0,0,0-1.1-1.789l-.055-.055a29.611,29.611,0,0,1-6.769-9.713,28.583,28.583,0,0,1-2.366-11.419,28.183,28.183,0,0,1,28.176-28.176,27.5,27.5,0,0,1,19.508,7.869,27.917,27.917,0,0,1,8.612,19.206,4.369,4.369,0,0,0,.22,1.376v.055a8.281,8.281,0,0,0,.605,1.211l7.457,11.556a2.164,2.164,0,0,1,.358,1.046,2.074,2.074,0,0,1-.193,1.073,2.4,2.4,0,0,1-.66.881,2.039,2.039,0,0,1-.991.44l-4.925.936a4.3,4.3,0,0,0-2.229,1.183,4.108,4.108,0,0,0-1.128,2.256l-1.733,10.7a2.356,2.356,0,0,1-.743,1.348,2.2,2.2,0,0,1-1.431.55l-11.584.413a4.145,4.145,0,0,0-4.017,3.935l-.413,7.182a.965.965,0,1,0,1.926.11l.413-7.182a2.156,2.156,0,0,1,.688-1.486,2.219,2.219,0,0,1,1.513-.633l11.584-.413a4.3,4.3,0,0,0,2.641-1.046,4.108,4.108,0,0,0,1.348-2.476l1.733-10.7a2.211,2.211,0,0,1,.605-1.211,2.25,2.25,0,0,1,1.211-.633l4.925-.936a4.062,4.062,0,0,0,1.844-.853,4.008,4.008,0,0,0,1.211-1.623,4.188,4.188,0,0,0,.33-1.981,4.246,4.246,0,0,0-.66-1.926l-7.457-11.556a3.057,3.057,0,0,1-.358-.743v-.055a2.242,2.242,0,0,1-.165-.853,30.088,30.088,0,0,0-30.074-28.891Zm16.922,32.028a6.35,6.35,0,0,1-3.082-.8,6.507,6.507,0,0,1-2.339-2.146,1.511,1.511,0,0,1,2.531-1.651,3.453,3.453,0,0,0,4.568,1.156,3.721,3.721,0,0,0,1.156-1.018l.083-.138a1.511,1.511,0,0,1,2.531,1.651,6.254,6.254,0,0,1-2.339,2.146,6.429,6.429,0,0,1-3.082.8Zm-4.182-4.733a.906.906,0,0,0-.523.165.945.945,0,0,0-.275,1.321,5.72,5.72,0,0,0,2.146,1.981,5.937,5.937,0,0,0,2.834.715,6.017,6.017,0,0,0,2.834-.715,5.72,5.72,0,0,0,2.146-1.981.956.956,0,0,0-1.541-1.128l-.055.083a4.265,4.265,0,0,1-1.458,1.348,4.145,4.145,0,0,1-3.852,0,4.012,4.012,0,0,1-1.458-1.348,1,1,0,0,0-.8-.44Zm-15.189.605a1.605,1.605,0,0,1-.715-.165c-4.182-2.256-11.364-6.851-12.3-12.52a6.268,6.268,0,0,1,1.513-5.393,6.867,6.867,0,0,1,4.843-2.119,8.416,8.416,0,0,1,6.659,3.137,8.455,8.455,0,0,1,6.659-3.137,6.817,6.817,0,0,1,4.843,2.119,6.268,6.268,0,0,1,1.513,5.393h0c-.936,5.668-8.117,10.291-12.3,12.52A1.605,1.605,0,0,1,151.176,137.951ZM144.737,118.3h-.22a6.372,6.372,0,0,0-4.457,1.954,5.764,5.764,0,0,0-1.376,4.925c.385,2.339,2.476,7.016,12.024,12.134a1.05,1.05,0,0,0,.908,0c9.548-5.118,11.639-9.8,12.024-12.134h0a5.7,5.7,0,0,0-1.376-4.925,6.372,6.372,0,0,0-4.457-1.954,7.979,7.979,0,0,0-6.439,3.192l-.22.275-.22-.275a8.011,8.011,0,0,0-6.218-3.192Zm6.494,17.032h-.22c-6.191-3.439-9.906-7.154-10.456-10.483a3.832,3.832,0,0,1,.88-3.3,4.378,4.378,0,0,1,3.109-1.321,6.513,6.513,0,0,1,5.751,3.8.869.869,0,0,0,.385.385.951.951,0,0,0,1.293-.385c1.321-2.449,3.467-3.88,5.751-3.8a4.378,4.378,0,0,1,3.109,1.321,3.772,3.772,0,0,1,.88,3.3c-.55,3.329-4.265,7.016-10.456,10.428H151.2Zm-6.494-14.556H144.6a3.82,3.82,0,0,0-2.724,1.156,3.269,3.269,0,0,0-.743,2.834c.3,1.816,2.009,5.531,10.043,9.988,8.035-4.458,9.74-8.172,10.043-9.988a3.269,3.269,0,0,0-.743-2.834,3.884,3.884,0,0,0-2.724-1.156c-2.064-.055-4.017,1.238-5.255,3.522a1.477,1.477,0,0,1-2.036.605,1.427,1.427,0,0,1-.605-.605,6.006,6.006,0,0,0-5.09-3.522Z" transform="translate(-123 -109.5)" fill="#5d3b71"></path>
</svg>
