<?xml version="1.0" encoding="UTF-8"?>
<svg xmlns="http://www.w3.org/2000/svg" id="Movement" width="83.422" height="80.848" viewBox="0 0 83.422 80.848">
  <path id="Path_411" data-name="Path 411" d="M319.15,265.9a4.85,4.85,0,1,0-4.85-4.85A4.863,4.863,0,0,0,319.15,265.9Zm0-7A2.153,2.153,0,1,1,317,261.05,2.168,2.168,0,0,1,319.15,258.9Z" transform="translate(-254.125 -213.982)" fill="#5d3b71"></path>
  <path id="Path_412" data-name="Path 412" d="M178.269,179.846H174.71v-5.97A18.44,18.44,0,0,0,188.055,156.2,18.106,18.106,0,0,0,175.6,138.8L172.988,121.7a.105.105,0,0,0-.029-.086v-.029a3.319,3.319,0,0,1,.689-2.181,1.337,1.337,0,0,1,1.062-.631h10.045a1.347,1.347,0,0,0,1.349-1.349v-6.974a1.347,1.347,0,0,0-1.349-1.349H174.193a11.6,11.6,0,0,0-9.758,5.051,9.946,9.946,0,0,0-1.091,9.1l2.267,14.981a18.169,18.169,0,0,0-9.787,5.826l-27.466-3.128-4.075-16.216h5.74a5.769,5.769,0,1,0,0-11.537h-9.672a7.317,7.317,0,0,0-13.317,4.19,7.177,7.177,0,0,0,6.831,7.29l4.1,16.273a13.841,13.841,0,0,0-4.162,2.21l-3.358-4.018L112,137.8a1.345,1.345,0,1,0-1.722-2.066l-5.166,4.362a1.348,1.348,0,0,0,.861,2.382,1.27,1.27,0,0,0,.861-.316l1.55-1.32,3.444,4.1a16.639,16.639,0,0,0-4.305,11.193c0,7.634,5.223,14.207,11.882,15.613v8.036h-4.736a5.089,5.089,0,0,0-5.08,5.08V188.6a1.347,1.347,0,0,0,1.349,1.349h71.09a1.347,1.347,0,0,0,1.349-1.349v-3.731a5.089,5.089,0,0,0-5.08-5.08h0Zm-6.257,0h-3.444v-5.31c.373,0,.718.057,1.091.057a15.947,15.947,0,0,0,2.353-.172Zm-16.158-11.537a18.2,18.2,0,0,0,10.016,5.855v5.654H128.244v-8.38l27.61-3.157ZM166.7,115.615a8.834,8.834,0,0,1,7.519-3.846h9.213v4.276H174.71a4.029,4.029,0,0,0-3.186,1.665,6.607,6.607,0,0,0-1.234,3.014l-4.707.718a7.2,7.2,0,0,1,1.091-5.8h0Zm-.488,8.438,4.334-.66,2.239,14.666a18.369,18.369,0,0,0-3.128-.287,5.515,5.515,0,0,0-1.349.086Zm3.444,16.417a15.7,15.7,0,0,1,0,31.4c-8.639,0-7.577-1.435-10.418-3.961l10.217-1.177c6.142-.689,10.447-5.051,10.447-10.59s-4.305-9.873-10.447-10.59l-10.217-1.177a15.548,15.548,0,0,1,10.418-3.961h0Zm-59.9-23.1a4.618,4.618,0,0,1,4.621-4.621c2.554,0,3.243.918,4.075,2.411a1.328,1.328,0,0,0,1.177.689h10.418a3.071,3.071,0,0,1,0,6.142h-15.67a4.618,4.618,0,0,1-4.621-4.621h0Zm6.917,7.319h4.85l3.989,15.9-2.009-.23a13.979,13.979,0,0,0-2.9,0l-3.961-15.67Zm-6.458,31.484a13.9,13.9,0,0,1,3.415-9.069l3.214,3.817a8.015,8.015,0,0,0-1.923,5.223,8.093,8.093,0,1,0,8.093-8.093c-4.477,0-2.9.431-4.1,1.119l-3.329-3.961a10.679,10.679,0,0,1,6.458-2.3c2.353,0,.775,0,1.177.057l45.949,5.223c4.736.545,8.065,3.788,8.065,7.893s-3.3,7.376-8.065,7.921l-45.949,5.223c-6.8.775-12.972-5.683-12.972-13.145h0Zm11.738.861a1.32,1.32,0,0,0,1.033.488,1.219,1.219,0,0,0,.861-.316,1.358,1.358,0,0,0,.172-1.894l-3.358-3.989a5.325,5.325,0,0,1,2.325-.545,5.4,5.4,0,1,1-5.4,5.4c0-2.985.373-2.239,1-3.128l3.358,3.989Zm.115,15.01a7.719,7.719,0,0,0,1.406-.086l2.038-.23v8.065h-3.444v-7.778h0Zm58.548,15.24H112.229V184.9a2.4,2.4,0,0,1,2.382-2.382h63.6a2.376,2.376,0,0,1,2.382,2.382v2.382h.029Z" transform="translate(-104.633 -109.1)" fill="#5d3b71"></path>
</svg>
