<?xml version="1.0" encoding="UTF-8"?>
<svg xmlns="http://www.w3.org/2000/svg" id="Nutrition" width="76.551" height="76.201" viewBox="0 0 76.551 76.201">
  <path id="Path_413" data-name="Path 413" d="M262.7,143.858h-.8a1.806,1.806,0,0,1-1.7-1.727c0-.447-.208-11.047,5.479-15.156,3.99-2.918,13.459-4.645,14.531-4.854a1.79,1.79,0,0,1,2.084,2.114c-.089.387-2.174,9.916-5.479,14.084-4.05,5.122-11.613,5.538-14.114,5.538Zm15.424-17.687c-3.395.774-8.189,2.114-10.332,3.662-2.859,2.055-3.752,7.236-3.96,10.422,2.62-.149,7.593-.864,10.184-4.139,1.727-2.174,3.216-6.7,4.109-9.916h0Z" transform="translate(-218.868 -122.088)" fill="#5d3b71"></path>
  <path id="Path_414" data-name="Path 414" d="M325.707,227.912a.887.887,0,0,1-.863-.685c-1.161-4.794-3.454-7.891-6.819-9.141a.9.9,0,0,1,.625-1.7c3.96,1.459,6.61,4.973,7.921,10.392a.888.888,0,0,1-.655,1.072h-.208Z" transform="translate(-259.067 -188.276)" fill="#5d3b71"></path>
  <path id="Path_415" data-name="Path 415" d="M174.432,241.91a12.046,12.046,0,0,1-8.754-3.663,39.1,39.1,0,0,1-6.223-7.117c-.089-.119-3.394-4.526-4.407-6.223a1.782,1.782,0,0,1,3.067-1.816c.744,1.251,3.305,4.7,4.228,5.955a36.118,36.118,0,0,0,5.806,6.61.789.789,0,0,1,.149.179c.149.179,4.02,4.407,10.63,1.459a22.892,22.892,0,0,1,7-1.638,22.514,22.514,0,0,1,6.908,1.608c6.759,3.007,10.66-1.4,10.69-1.429a.789.789,0,0,0,.149-.179c15.573-13.965,11.94-34.094,11.911-34.3-1.429-5.9-4.109-9.975-7.98-12.03-5.628-3.007-11.97-.774-12.03-.744-.089.03-.179.06-.3.089-6.461,1.221-9.32,1.191-9.469,1.161a51.816,51.816,0,0,1-9.38-1.161,1.6,1.6,0,0,1-.3-.089c-.06,0-6.461-2.263-12.059.744-3.841,2.055-6.521,6.134-7.95,12.119a35.838,35.838,0,0,0-.387,6.551,1.834,1.834,0,0,1-1.727,1.846h-.06a1.8,1.8,0,0,1-1.787-1.727,36.768,36.768,0,0,1,.447-7.385q2.591-10.63,9.8-14.531c6.581-3.514,13.608-1.4,14.8-.983a58.032,58.032,0,0,0,8.605,1.1,53.677,53.677,0,0,0,8.665-1.1c1.161-.387,8.218-2.531,14.8.983,4.794,2.561,8.069,7.414,9.767,14.412.179.983,4.05,22.362-12.923,37.637-2,2.233-7.533,5.509-14.71,2.293a19.663,19.663,0,0,0-5.538-1.31,19.7,19.7,0,0,0-5.628,1.37,14.031,14.031,0,0,1-5.866,1.31h.06Z" transform="translate(-142.988 -165.709)" fill="#5d3b71"></path>
  <path id="Path_416" data-name="Path 416" d="M240.759,161.122a1.843,1.843,0,0,1-1.667-1.1c-3.246-7.8-7.861-9.826-8.069-9.916a1.789,1.789,0,0,1,1.37-3.305c.238.089,6.164,2.561,10.035,11.851a1.764,1.764,0,0,1-.953,2.323,1.892,1.892,0,0,1-.685.149h-.03Z" transform="translate(-197.613 -139.352)" fill="#5d3b71"></path>
  <path id="Path_417" data-name="Path 417" d="M163.623,253.536H128.785A7.165,7.165,0,0,1,121.4,246.6v-15.96a7.184,7.184,0,0,1,7.385-6.938h4.824a1.787,1.787,0,0,1,0,3.573h-4.824a3.391,3.391,0,1,0,0,6.729h34.838a1.792,1.792,0,0,1,1.787,1.787v15.99a1.792,1.792,0,0,1-1.787,1.787h0Zm-38.65-16.973V246.6a3.63,3.63,0,0,0,3.811,3.365h33.052V237.546H128.785a7.719,7.719,0,0,1-3.811-.983Z" transform="translate(-121.4 -193.444)" fill="#5d3b71"></path>
  <path id="Path_418" data-name="Path 418" d="M161.693,301.231a.877.877,0,0,1-.893-.893v-6.045a.893.893,0,0,1,1.787,0v6.045A.877.877,0,0,1,161.693,301.231Z" transform="translate(-149.068 -242.39)" fill="#5d3b71"></path>
  <path id="Path_419" data-name="Path 419" d="M195.593,301.231a.877.877,0,0,1-.893-.893v-6.045a.893.893,0,0,1,1.787,0v6.045A.877.877,0,0,1,195.593,301.231Z" transform="translate(-172.874 -242.39)" fill="#5d3b71"></path>
  <path id="Path_420" data-name="Path 420" d="M229.593,301.231a.877.877,0,0,1-.893-.893v-6.045a.893.893,0,0,1,1.787,0v6.045A.877.877,0,0,1,229.593,301.231Z" transform="translate(-196.75 -242.39)" fill="#5d3b71"></path>
</svg>
