<?xml version="1.0" encoding="UTF-8"?>
<svg xmlns="http://www.w3.org/2000/svg" width="25.752" height="25.69" viewBox="0 0 25.752 25.69">
  <g id="Group_2" data-name="Group 2" transform="translate(-554.077 -43.488)">
    <g id="Group_3" data-name="Group 3" transform="translate(570.876 57.644)">
      <path id="Path_29" data-name="Path 29" d="M722.964,187.134l.5-.5a2.838,2.838,0,0,0,.377-.466,2.886,2.886,0,0,0,.149-.26,2.816,2.816,0,0,0,.212-.561,2.75,2.75,0,0,0,.061-.294,2.794,2.794,0,0,0,.026-.6,2.785,2.785,0,0,0-.034-.3,2.889,2.889,0,0,0-.066-.293,2.947,2.947,0,0,0-.1-.284,2.837,2.837,0,0,0-.126-.273,2.819,2.819,0,0,0-.54-.717,2.778,2.778,0,0,0-.227-.2l-3.115-2.423q-.1-.078-.209-.147t-.222-.128c-.076-.039-.153-.075-.232-.108s-.16-.061-.241-.086-.164-.046-.248-.064-.168-.031-.253-.042-.17-.016-.256-.019-.17,0-.256,0-.17.014-.254.027-.168.03-.251.051-.165.045-.246.072-.16.059-.238.094-.154.074-.228.116-.147.087-.217.136-.138.1-.2.155-.129.112-.19.172l-1,1Z" transform="translate(-715.34 -179.376)" fill="#5d3b71"></path>
    </g>
    <path id="Path_30" data-name="Path 30" d="M596.543,52.406l1-1c.061-.06.118-.123.173-.189s.106-.134.155-.2.094-.143.135-.217.081-.151.116-.229.067-.157.095-.238.052-.163.073-.246.037-.166.05-.251.022-.169.027-.254.007-.171,0-.256-.009-.171-.019-.256-.024-.169-.041-.253-.039-.166-.064-.248-.054-.162-.087-.241-.068-.156-.107-.232-.082-.149-.128-.221-.1-.142-.148-.209l-2.422-3.114a2.7,2.7,0,0,0-.877-.745,2.7,2.7,0,0,0-1.108-.313,3.228,3.228,0,0,0-1.356.241,3.252,3.252,0,0,0-.608.331,3.194,3.194,0,0,0-.523.454l-.263.263Z" transform="translate(-32.733)" fill="#5d3b71"></path>
    <path id="Path_31" data-name="Path 31" d="M569.591,82.677a1.076,1.076,0,0,1-.911.114,1.055,1.055,0,0,1-.281-.141,24.435,24.435,0,0,1-5.784-5.784,1.057,1.057,0,0,1-.141-.282,1.074,1.074,0,0,1,.114-.911l-5.948-7.647q-.251.27-.481.559t-.437.595q-.207.306-.389.626t-.34.654q-.157.334-.289.679t-.236.7q-.1.353-.181.715t-.126.726q-.049.366-.07.734t-.013.737q.008.369.044.736t.1.73q.064.363.156.721t.211.706q.119.349.265.688t.317.666q.46.884.986,1.73t1.116,1.65q.589.8,1.238,1.56t1.353,1.461q.7.7,1.461,1.353t1.56,1.238q.8.589,1.65,1.116t1.73.986q.328.168.667.311t.689.259q.349.117.706.206t.72.152q.363.062.73.1t.735.042q.368.007.736-.015t.732-.07q.365-.049.725-.125t.714-.18q.353-.1.7-.234t.678-.286q.333-.156.654-.336t.627-.385q.306-.2.6-.432t.562-.476Z" transform="translate(0 -21.982)" fill="#5d3b71"></path>
  </g>
</svg>
