<?xml version="1.0" encoding="UTF-8"?>
<svg xmlns="http://www.w3.org/2000/svg" id="Primary_Care_" data-name="Primary Care+" width="83.163" height="73" viewBox="0 0 83.163 73">
  <path id="Path_421" data-name="Path 421" d="M159.23,215.637h7.381l6.018,13.285a2.125,2.125,0,0,0,1.845,1.164,1.909,1.909,0,0,0,1.788-1.221l7.352-17.912,7.352,17.912a1.938,1.938,0,0,0,1.788,1.221h.028a1.959,1.959,0,0,0,1.788-1.164l6.018-13.285h7.381a1.959,1.959,0,1,0,0-3.917h-8.658a1.959,1.959,0,0,0-1.788,1.164l-4.655,10.276-7.437-18.139a1.962,1.962,0,0,0-3.633,0L174.36,223.16,169.7,212.884a1.959,1.959,0,0,0-1.788-1.164h-8.658a1.959,1.959,0,1,0,0,3.917h-.028Z" transform="translate(-142.033 -180.42)" fill="#5d3b71"></path>
  <path id="Path_422" data-name="Path 422" d="M104.335,153.731c5.99,26.343,38.634,40,40.025,40.565a1.633,1.633,0,0,0,.738.142,2.133,2.133,0,0,0,.738-.142c1.391-.568,34.064-14.25,40.025-40.565,3.548-15.613-5.024-26.825-14.477-30.658-9.651-3.889-19.7-.71-26.286,8.119-6.614-8.828-16.663-12.008-26.286-8.119-9.453,3.832-18.026,15.045-14.477,30.658Zm22.738-28.33c5.621,0,11.752,2.725,16.351,10.333a1.951,1.951,0,0,0,1.675.937,1.979,1.979,0,0,0,1.675-.937c6.586-10.872,16.266-11.78,23.135-9,7.948,3.208,15.158,12.774,12.121,26.144-5.053,22.227-32.049,35.285-36.931,37.47-4.882-2.186-31.878-15.244-36.931-37.47-3.037-13.37,4.173-22.908,12.121-26.144a18.252,18.252,0,0,1,6.756-1.334h.028Z" transform="translate(-103.517 -121.438)" fill="#5d3b71"></path>
</svg>
