<?xml version="1.0" encoding="UTF-8"?>
<svg xmlns="http://www.w3.org/2000/svg" id="Weight_Management" data-name="Weight Management" width="76.334" height="77.246" viewBox="0 0 76.334 77.246">
  <path id="Path_423" data-name="Path 423" d="M145.867,106a22.236,22.236,0,0,0-20.733,14.3H109.417a1.765,1.765,0,0,0-1.717,1.717v59.517a1.729,1.729,0,0,0,1.717,1.717h72.9a1.784,1.784,0,0,0,1.717-1.717V122.012a1.765,1.765,0,0,0-1.717-1.717H166.573A22.3,22.3,0,0,0,145.867,106Zm0,3.353h0a18.929,18.929,0,0,1,18,13.116l.376,1.153h16.442V179.84H111.053V123.622h16.415l.376-1.153a18.9,18.9,0,0,1,18-13.116h.027Z" transform="translate(-107.7 -106)" fill="#5d3b71"></path>
  <path id="Path_424" data-name="Path 424" d="M203.9,130.4A16.907,16.907,0,0,0,187,147.271v1.663h33.8v-1.663A16.907,16.907,0,0,0,203.9,130.4Zm0,3.353a13.463,13.463,0,0,1,13.384,11.828H190.514A13.463,13.463,0,0,1,203.9,133.753Z" transform="translate(-165.731 -123.856)" fill="#5d3b71"></path>
  <path id="Path_425" data-name="Path 425" d="M245.669,181.685a2.535,2.535,0,1,1-5.069,0,2.535,2.535,0,0,1,5.069,0" transform="translate(-204.954 -159.53)" fill="#5d3b71"></path>
  <path id="Path_426" data-name="Path 426" d="M248.1,150h1.046v8.046H248.1V150Z" transform="translate(-210.443 -138.199)" fill="#5d3b71"></path>
</svg>
