<?xml version="1.0" encoding="UTF-8"?>
<svg xmlns="http://www.w3.org/2000/svg" width="521.677" height="43.611" viewBox="0 0 521.677 43.611">
  <g id="FORTE_FOREVER_Horizontal_Logo" transform="translate(-17.4 -12.3)">
    <path id="Path_361" data-name="Path 361" d="M61.134,36.1v-.369a1.273,1.273,0,0,0-.123.492c0,.246-.123.554-.185.554v-.8c0-.123,0-.246.123-.308V34.2c0-.123,0-.185-.062-.246,0-.062-.123,0-.185.123h0c-.062.677,0,.615-.185.308,0-.185-.123-.308-.246.123a2.343,2.343,0,0,1-.185.615c-.062.185-.123.308-.185.246,0-.246-.062-.308-.123-.246h0c-.123.615-.185.738-.246.677-.062,0-.123-.185-.185-.123h0a.666.666,0,0,1-.062.369c0,.062-.062.123-.123.185a1.8,1.8,0,0,1-.123.554v.246a.37.37,0,0,1-.062.246v.369l.062.123H59.1l.123-.308h0a1.047,1.047,0,0,1-.062.431,1.14,1.14,0,0,1-.123.431,1.14,1.14,0,0,1-.123.431,7841.337,7841.337,0,0,0-.123.369c-.123.308-.185.554-.308.8l-.185.369a6218576604795.189,6218576604795.189,0,0,1-.246.369v.123c-.062,0-.246.308-.246.308,0,.123-.123.185-.185.308h0l-.123.123-.123.123c.123-.492.369-.615.492-.984v-.308c0-.123,0-.246-.062-.185-.123.062.123-.431.246-.677a4.9,4.9,0,0,1,.185-.923,23173.934,23173.934,0,0,1,.123-.492c.062-.062,0-.185.062-.246v-.246c0-.123.123-.308.123-.492a12641429797259.63,12641429797259.63,0,0,0,.123-.492c-.062,0-.123,0-.123-.185v-.246a1.2,1.2,0,0,1,.062-.431,1.2,1.2,0,0,1,.062-.431v-.431c0-.246,0-.554.123-.677V33.89c-.123.123-.062-.246-.062-.554-.062-.369-.123-.431-.246-.123,0,.554-.062.677-.185.554V35.8a1.159,1.159,0,0,1-.123.492,1.354,1.354,0,0,1-.062.492,1.448,1.448,0,0,1-.123.492v.369a.191.191,0,0,1-.062.123,1.3,1.3,0,0,1-.185.431.47.47,0,0,1-.123.308l-.123.308c-.062.246-.185.431-.246.308,0-.185-.185.123-.246.123l-.123.308v.308a.33.33,0,0,1-.185.246,1.148,1.148,0,0,1-.246.185l-.123.308c0,.185-.123.308-.185.492a.991.991,0,0,1-.246.431c-.062.123-.185.308-.246.431,0,.062-.123.123-.123.185a.191.191,0,0,1-.062.123v.123c-.123.123-.185.246-.308.369l-.123.185h-.062a.62.62,0,0,1-.062.185l-.185.369a.885.885,0,0,1-.123.185c0,.062-.062.123-.123.185a2.6,2.6,0,0,1-.308.431c0,.062-.123.123-.185.185,0,.062-.123.123-.185.185v-.369h0a1.334,1.334,0,0,0-.369.431,1.415,1.415,0,0,1-.492.431l-.308.308a.849.849,0,0,1-.185.246c.123-.062.185-.123.246-.123h.123l-.369.369h-.123a.191.191,0,0,0-.123.062.885.885,0,0,0-.185.123h-.123l-.308.246h0a2.731,2.731,0,0,1-.677.492c-.246.185-.431.308-.677.492-.062.062-.185.123-.246.185l-.308.185c-.185.123-.308.246-.431.246a.818.818,0,0,0-.431.185c-.062,0-.123.123-.185.123h-.369l-.185.123c0,.062-.185.185-.308.246a1.914,1.914,0,0,0-.369.246v0l-.308.123h0V48.9a.47.47,0,0,0-.308.123l-.308.123a.466.466,0,0,0-.246.123L46,49.391h0l-.308.123c-.123,0-.185.062-.308.123l-.185.123h0c-.123-.062-.308,0-.554,0s-.492.123-.738.123c0,0,.123.062.123.123v.062h-.861v.062H42.8l-.677.123H41.82a2.859,2.859,0,0,0-.554.185c.246,0,.185.123.369.185-.185,0-.123-.123-.369-.185a.3.3,0,0,0-.185.062,3,3,0,0,1-.431.185,3,3,0,0,0,.431-.185c-.554,0,0-.123-.123-.185H39.113v-.123c-.185,0-.185,0-.185.123a1.354,1.354,0,0,0-.492.062h-.308a.78.78,0,0,1-.369-.062H36.592a1.82,1.82,0,0,1-.738-.185.526.526,0,0,1-.369-.185,2.86,2.86,0,0,0-.554-.185s0,.062-.123.062h0c.062,0,.062,0,.123-.062h-.369l-.308-.185h-.431a17380.831,17380.831,0,0,0-.492-.123.37.37,0,0,1-.246-.062.424.424,0,0,1-.308-.185,1.3,1.3,0,0,1-.431-.185c-.123-.062-.308-.123-.431-.185h-.246a.3.3,0,0,1-.185-.062H31.3l.062.123a.118.118,0,0,1-.062-.185c0-.062-.123-.185-.369-.308a.885.885,0,0,0-.123-.185l-.369-.308a.191.191,0,0,1-.123-.062h-.123c0-.062-.123-.123-.123-.123l-.185-.185c-.123-.123-.246-.185-.369-.308s-.246-.185-.369-.308h-.123l-.369-.369-.185-.185-.185-.185a2.76,2.76,0,0,1-.677-.8c-.369-.369-.369-.431-.123-.369,0,0-.062-.123-.123-.123,0,0-.062-.123-.123-.123-.062-.123-.185-.185-.246-.246h-.185a.191.191,0,0,1-.123-.062l-.185-.185c-.246-.369-.123-.308,0-.369l-.369-.554-.185-.246h0v-.246a.505.505,0,0,1-.308-.308,92980.55,92980.55,0,0,0-.246-.369,1.345,1.345,0,0,0-.185-.308.885.885,0,0,0-.123-.185s-.062-.123-.123-.123h-.123l-.246-.431c0-.062-.062-.123-.123-.185l-.123-.246a.849.849,0,0,1-.185-.246v0c0,.123.123.185.185.246-.062-.246-.062-.369.062-.123h0a4.878,4.878,0,0,0-.246-.554l-.185-.431a.3.3,0,0,0-.062-.185c0-.062,0-.123-.062,0v.246h0a.465.465,0,0,0-.062-.246.37.37,0,0,0-.062-.246c0-.185-.123-.308-.123-.431h.062v-.369h0a2.9,2.9,0,0,0-.123-.308c0-.185-.062-.308,0-.369v-.246c0-.123-.123-.185-.185-.308,0-.123-.123-.246-.123-.492v-.246l-.123-.123v-.246h0V35.8c0-.185-.123-.308-.123-.492V33.89a1.14,1.14,0,0,1-.123-.431v-.923c-.062,0-.123,0-.123-.369l-.123-.246c0,.123-.123.185-.185.308,0-.062.123-.185.185-.308v-.738c0,.123-.062.185-.123.308a1.039,1.039,0,0,1,.123-.308,1.354,1.354,0,0,1,.062-.492c0-.185.062-.308.062-.492v-.492a1.448,1.448,0,0,1,.123-.492.947.947,0,0,1,.308-.615.823.823,0,0,1,.062-.308v-.8c.062-.123.123-.185.185-.308l.185-.308h0l.185-.554a.191.191,0,0,1,.062-.123,1.354,1.354,0,0,1,.062-.492v0a1.354,1.354,0,0,1-.062.492A26.248,26.248,0,0,1,25.7,23.064c0-.062.123-.185.185-.246a.614.614,0,0,0,.246-.308s.062-.123.123-.123l.062-.062h.062c.123-.185.185-.308.308-.369l.123-.185h.062a.215.215,0,0,1,.062-.123h-.123a.885.885,0,0,0-.185.123h0s-.123,0,0-.246a.381.381,0,0,1-.246.123.381.381,0,0,0,.246-.123c.246-.246.369-.369.492-.369h.123a.3.3,0,0,0,.185-.062l.123-.123L27.8,20.6c-.123,0-.185,0-.123-.123v-.123a.191.191,0,0,1,.062-.123c.062-.062.123-.185.246-.246.123-.123.185-.185.185-.246V19.62a.8.8,0,0,0-.431.308,1.08,1.08,0,0,1-.308.246c-.062.062-.185.123-.246.185a.991.991,0,0,1-.431.246h0v-.123h0c.308-.308.308-.369.185-.431v-.308l.185-.185h0l.123-.123.246-.246a.3.3,0,0,0,.185-.062,6.537,6.537,0,0,0,.677-.554c.246-.185.492-.308.738-.492l.246-.185v-.062a1.062,1.062,0,0,1,.185-.246,1.08,1.08,0,0,1,.308-.246c.123-.062.185-.123.308-.185.123,0,.185-.123.308-.123a.47.47,0,0,0,.308-.123,1.3,1.3,0,0,0,.431-.185,1.3,1.3,0,0,0,.431-.185c.123-.062.308-.123.431-.185.123,0,.308-.123.431-.123h.123a.163.163,0,0,1,.185-.185H32.9l.492-.123v-.123a.191.191,0,0,0,.123-.062.885.885,0,0,0,.185-.123l.185-.246a.246.246,0,0,0-.246.123h-.246l-.308.123c-.185,0-.308.123-.492.185-.123,0-.308.123-.431.123a3,3,0,0,0-.431.185h-.615c-.308.185-.677.369-.984.554a.466.466,0,0,0-.246.123l-.246.123-.492.246c-.185.123-.308.185-.492.308a.562.562,0,0,1-.308.185c-.062,0-.123.062-.185.062H27.98a1.1,1.1,0,0,1-.431.308c-.062,0-.123.123-.185.185-.062,0-.123.123-.185.185L27,18.574c-.062,0-.123.123-.185.185l-.369.369h0c-.062,0-.185.123-.246.185-.062,0-.123,0,0-.062h0a6.735,6.735,0,0,1,.677-.615l-.369.246c-.246.185-.185,0-.308,0h0l-.431.431a1.631,1.631,0,0,1-.369.308h-.062c0-.062.308-.369.308-.369L25.889,19h.062a.215.215,0,0,1,.062-.123l.123-.123.308-.246.123-.123h.062l.062-.123c.062,0,.123-.123.185-.123l.738-.554c.123-.062.246-.185.369-.246,0,0,.123-.123.185-.123a.885.885,0,0,0,.185-.123,2.079,2.079,0,0,1,.738-.369h0c.369-.185.984-.492.677-.554.062,0,.123-.123.185-.123s.123-.123.246-.123a1.542,1.542,0,0,1,.431-.246,1.842,1.842,0,0,0,.492-.246.466.466,0,0,0,.246-.123h.246c.246-.062.431-.185.677-.246a.47.47,0,0,0,.308-.123.874.874,0,0,0,.369-.123c.123,0,.308-.123.431-.123a1.14,1.14,0,0,0,.431-.123,1.14,1.14,0,0,0,.431-.123,1.047,1.047,0,0,0,.431-.062c.308,0,.554-.123.861-.123a1.047,1.047,0,0,0,.431-.062h.8a1.2,1.2,0,0,0,.492-.062,1.354,1.354,0,0,0,.492-.062,1.047,1.047,0,0,0,.431-.062.874.874,0,0,0,.369-.123.832.832,0,0,1,.554,0,.874.874,0,0,1,.369.123c.185,0,.246.062.246.123h.554c.185,0,.369.062.554.062.123,0,.246-.123.492-.185a.32.32,0,0,0,.123.246,1.109,1.109,0,0,1,.615.123h1.169a.465.465,0,0,1,.246.062,3,3,0,0,0,.431.185,4.238,4.238,0,0,0,.492.185c.369.123.738.246,1.169.369a1.564,1.564,0,0,1,.861.185,2.532,2.532,0,0,1,.492.185h.123a.19.19,0,0,1,.123.062c.062,0,.185.123.246.123s.185.123.246.123.185.123.246.185a1.613,1.613,0,0,0,.554.308h.185a.191.191,0,0,1,.123.062h0a.19.19,0,0,1-.123-.062h-.185a2.158,2.158,0,0,1,.492.308l.123.062h0l.246.123h.123c0,.062.123.185.123.185l.123.123a.951.951,0,0,0,.369.185h.185a.3.3,0,0,1,.185.062l.369.246a1.631,1.631,0,0,1,.369.308,1.406,1.406,0,0,0,.615.431h0a2.408,2.408,0,0,0,.615.492s.123.062.123.123l.123.123c.062.062.123.185.185.246a.191.191,0,0,1,.123.062,1.08,1.08,0,0,1,.246.308l.554.554a3.38,3.38,0,0,0,.431.554c.062.123.123.185.185.308.123.185.246.308.308.308.062.123.185.246.246.369s.185.246.308.431c0,.062.062.123.123.185,0,.062.062.123.123.185A.874.874,0,0,1,55.6,23l-.185-.185a.191.191,0,0,0-.062-.123l-.123-.123V22.7l.431.615a.191.191,0,0,0,.062.123.517.517,0,0,1-.369-.246,2.6,2.6,0,0,1-.308-.431,2.6,2.6,0,0,1-.308-.431c0-.062-.123-.123-.123-.185s-.123-.123-.123-.185a2.6,2.6,0,0,1-.308-.431h-.123l.185.308.123.185a.885.885,0,0,0,.123.185l.185.246.123.246v.123a.132.132,0,0,1,.123.123c.062,0,.123.123.246.246a1.08,1.08,0,0,0,.246.308v.123a.885.885,0,0,0,.123.185l.185.308c.062,0,.185.062.185.123a.885.885,0,0,0,.123.185,1.9,1.9,0,0,0,.123.492l.123.246.123.246h0l.123.308h0l.062.185h.062a.215.215,0,0,0,.062.123,8.714,8.714,0,0,0,.492,1.107,2.185,2.185,0,0,0,.246.554l.185.554a1.345,1.345,0,0,1,.185.308.874.874,0,0,0,.123.369,1.047,1.047,0,0,0,.062.431v.492c.062.246.308.492.062.615-.062,0-.062.308,0,.677.062.246,0,.677.123.8a.085.085,0,0,1,.123,0v.554h.062a.191.191,0,0,1,.062-.123V32.23a.33.33,0,0,0,.185-.246c0-.062.062,0,.062.308v.062c.185-.185.185.861.308.984h0c0-.8,0-1.353.246-.677,0,.123.062.062.123.123v-2.03l-.123-.431v-.492l-.123-.492c-.062-.246-.123-.554-.185-.8a.465.465,0,0,0-.062-.246v-.246c-.062-.246-.123-.431-.185-.615v-.615c-.062,0-.185-.246-.246-.431l-.062-.062.062.062a.874.874,0,0,0-.123-.369,1.955,1.955,0,0,0-.185-.554V25.34s0-.123-.062-.123c0-.123-.062-.185-.123-.308l-.123-.308c0-.123-.062-.185-.123-.308a2.185,2.185,0,0,1-.246-.554h0v-.246c-.123,0-.123-.123-.185-.185L57.075,23l-.246-.369c0-.062-.062-.123-.123-.185l-.185-.308h0c-.062-.062-.123-.185-.185-.246a.191.191,0,0,0-.062-.123V21.65c-.185-.185-.308-.369-.431-.492l-.123-.123c-.062-.062-.123-.123-.123-.185l-.185-.308-.246-.308a1.08,1.08,0,0,0-.246-.308l-.246-.308c-.062-.062-.185-.123-.246-.246a.849.849,0,0,1-.185-.246l-.431-.431-.123-.123-.123-.123-.246-.246-.246-.246c-.062-.062-.185-.123-.246-.246h0c-.123-.123-.308-.246-.431-.369a.191.191,0,0,0-.062-.123l-.062-.062-.185-.185-.369-.369a11088.981,11088.981,0,0,0-.246-.123c-.062,0-.123-.123-.246-.185,0,.062-.246,0-.369-.123h0a2.6,2.6,0,0,1-.431-.308c-.123-.123-.246-.185-.369-.308,0,0-.123-.062-.123-.123,0,0-.123,0-.123-.062-.123,0-.185-.123-.308-.185a5.409,5.409,0,0,0-.615-.369l-.431-.246c-.123-.062-.308-.185-.431-.246a4.463,4.463,0,0,1-.554-.308,21.317,21.317,0,0,0-4.367-1.415,2.186,2.186,0,0,1-.615-.123h-.369a.989.989,0,0,0-.677-.185h-4.49a1.7,1.7,0,0,0-.554.062h-.246c-.062,0-.185.062-.246.062a1.8,1.8,0,0,0-.554.123c-.185,0-.308,0-.369.062h-.246a2.242,2.242,0,0,0-.861.123,5.413,5.413,0,0,0-.923.308,3.7,3.7,0,0,1-.861.308.874.874,0,0,0-.369.123.874.874,0,0,0-.369.123c-.123,0-.246.123-.369.123s-.246.123-.369.185c-.492.246-.984.492-1.6.738-.185.062-.369.185-.554.246-.123,0-.185.123-.308.123-.062,0-.185.123-.308.185l-.554.369-.554.369c-.123.062-.185.123-.308.185a.48.48,0,0,0-.246.246c-.185.123-.369.308-.554.431-.185.185-.369.308-.554.492-.062.062-.185.123-.246.246l-.246.246a6.515,6.515,0,0,0-.738.615,9.46,9.46,0,0,0-.738.8l-.246.308a11.592,11.592,0,0,0-1.353,1.6,2.209,2.209,0,0,0-.431.615c-.062.123-.123.185-.185.308,0,0-.062.123-.123.123l-.123.185c-.123.185-.246.431-.369.615h0v.185a.3.3,0,0,1-.062.185c0,.123-.123.246-.123.369,0,.062-.123.308-.185.308-.185.308-.369.615-.554.984a2.185,2.185,0,0,1-.246.554,2.185,2.185,0,0,1-.246.554.452.452,0,0,1-.123.369,1.638,1.638,0,0,1-.246.492c-.062.246-.123.554-.185.8,0,.123-.062.246-.062.431V28.6c-.062,0-.185.431-.185.431v.431c-.062,0-.185.431-.185.431v.185c0,.062-.062.123-.062.185a.874.874,0,0,1-.123.369h0a.47.47,0,0,1-.123.308v.8a.418.418,0,0,1-.185.246v3.629a.663.663,0,0,0,.123.492,3.921,3.921,0,0,1,.123.554,3.174,3.174,0,0,0,.123.677c.062.492.185.923.246,1.353v.246h0a1.109,1.109,0,0,0,.123.615.78.78,0,0,0,.062.369.874.874,0,0,0,.123.369,2.2,2.2,0,0,0,.246.677c.062.246.185.431.246.677,0,.123.062.185.123.308a.874.874,0,0,0,.123.369,2.047,2.047,0,0,0,.369.615l.185.492.246.369v.246l.308.492h.185s0,.123.062.123c0,.123.123.246.185.369h0c.123.123.185.246.308.369l-.308-.369h-.123v.062a1.211,1.211,0,0,1,.246.492.19.19,0,0,0,.062.123v.123c.062,0,.246.246.246.246.185.185.246.308.246.369V46.5a1.08,1.08,0,0,0,.246.308,2.959,2.959,0,0,1,.554.677l.246.308a.445.445,0,0,1,.246.369.885.885,0,0,0,.123.185l.123.123.308.308.123.185.185.123.185.123a5,5,0,0,0,.554.615,9.461,9.461,0,0,0,.8.738,1.1,1.1,0,0,0,.431.308.885.885,0,0,1,.185.123h0c.062.062.185.123.246.185s.185.123.246.185c.185.123.308.185.492.308l.185.123a.885.885,0,0,1,.185.123,2.343,2.343,0,0,0,.8.492,1.474,1.474,0,0,1,.8.431,10.591,10.591,0,0,0,3.014,1.476,2.907,2.907,0,0,1,1.046.431c.062.062.123.185.554.246h.308c.123.062.185.123.308.123a1.8,1.8,0,0,1,.554.123,7.91,7.91,0,0,1,1.169.246.78.78,0,0,1,.369.062h.369a2.523,2.523,0,0,1,.677.062h0v.062a3.661,3.661,0,0,1,.492.062h0A.74.74,0,0,0,36.9,55.6a1.354,1.354,0,0,1,.492.062.717.717,0,0,1,.431.123h1.23s-.123.062.185.123a5.417,5.417,0,0,1,1.046-.123h0a5.417,5.417,0,0,0-1.046.123H41.2a5.384,5.384,0,0,0,.984-.123,1.354,1.354,0,0,0,.492-.062,1.448,1.448,0,0,0,.492-.123H43.6c0-.123.185-.185.369-.185-.185,0-.308.123-.369.123a1.82,1.82,0,0,0,.615-.123l.431-.123a7.461,7.461,0,0,0,.861-.308A1.174,1.174,0,0,0,46,54.8a2.705,2.705,0,0,1,.738-.369c.123,0,.185-.062.308-.123l.308-.123A4.237,4.237,0,0,0,47.848,54h0a44357.987,44357.987,0,0,0,.492-.246,2.532,2.532,0,0,1,.492-.185c.062,0,.185-.123.246-.123s.185-.123.246-.123c.123-.123.308-.185.431-.308h0c.062,0,.123-.062.185-.123a.666.666,0,0,0,.308-.246h-.123a1.892,1.892,0,0,1,.554-.246h.185c.246-.185.431-.308.677-.492,0-.123-.431,0-.431-.123h0c-.431.246-.431.185-.185,0h0c0-.062.431-.369.431-.369a2.6,2.6,0,0,1,.431-.308,1.08,1.08,0,0,0,.308-.246l.123-.123s.123-.062.123-.123a2.209,2.209,0,0,1,.615-.431,11088.947,11088.947,0,0,0,.246-.123l.123-.062.185-.123s.123-.062.123-.123a7.791,7.791,0,0,1,.8-.677.885.885,0,0,1,.123-.185l.123-.123.123-.123c.185-.123,0,.123-.123.246h0a.885.885,0,0,0,.185-.123s.123-.123.185-.123l.308-.308h0c-.062,0-.123,0,0-.062.246-.246.185-.062.246-.123l.308-.308.369-.492.369-.554a2.676,2.676,0,0,1,.369-.431l.308-.431c.123-.123.185-.308.308-.431a.621.621,0,0,1,.123-.308c.123-.185.185-.246.246-.246l.123-.246.123-.246.246-.492a.4.4,0,0,1,.123-.308c0-.123.123-.185.185-.308l.185-.369.185-.369c.123-.246.246-.554.369-.8V41.7c-.062.062-.185.123-.246.185l-.185.492a2.047,2.047,0,0,1-.185.369q-.092.185-.185.185a2.048,2.048,0,0,1-.185.369.885.885,0,0,1-.123.185l-.123.123-.123.185a1.178,1.178,0,0,1-.246.492l-.123.123H57.69l-.308.308a1.342,1.342,0,0,1-.246.308s-.062.123-.123.123c0,0-.062.123-.123.123-.185.185-.308.369-.492.554s-.308.369-.492.554l-.246.246-.246.246a3.712,3.712,0,0,1-.492.492,3.98,3.98,0,0,1-.554.492l-.185.185h0a.693.693,0,0,0-.431.246l-.308.246.369-.369L54,47.976a.215.215,0,0,1,.123-.062l.123-.123.369-.369.738-.738a.3.3,0,0,1,.062-.185c0-.062.123-.123.123-.185v.062a3.412,3.412,0,0,1,.369-.492c0-.062.123-.123.185-.185l.062-.062.062-.062.615-.615a1.63,1.63,0,0,1,.369-.677c.123-.123.246-.185.308-.246l.123-.185h0v-.062c0-.123.123-.185.185-.308a.885.885,0,0,1,.123-.185A.62.62,0,0,0,58,43.117c.123-.246.185-.431.123-.431h0l.185-.369h0v-.185a7.216,7.216,0,0,1,.308-.677,5.715,5.715,0,0,1,.308-.615l.123-.246v-.123l.123-.123c.062-.308.123-.431,0-.308s-.185.062,0-.431c.062-.246.123-.431.185-.615s.123-.308.185-.308v-.246a3.6,3.6,0,0,0,.123-.8,1.04,1.04,0,0,1,.123-.554c0-.123.062-.123.185-.246l.123-.369V36.1ZM35.607,50.56h.246c.185,0,.369.123.554.123h.861a1.039,1.039,0,0,0,.308.123h.738c.062,0,.062.062,0,.123.185.062.677.062.738.185h-1.23c-.123-.062-.246-.062-.369-.123H36.9a.3.3,0,0,0-.185.062.226.226,0,0,0,.185-.062h.554v-.123a3.174,3.174,0,0,1-.677-.123.78.78,0,0,1-.369-.062.874.874,0,0,1-.369-.123,1.662,1.662,0,0,1-.738-.308h.185Zm15.009,1.046a2.532,2.532,0,0,1-.492.185h-.185l-.492.246a.885.885,0,0,0-.185.123h-.185a.942.942,0,0,1-.431.308.918.918,0,0,0-.431.185h0l-.308.123h0v.062a.12.12,0,0,0,.123.123c-.123,0-.062-.062-.123-.123l-.369.123a.874.874,0,0,0-.369.123h-.185a.74.74,0,0,0-.492.123c-.185,0-.369.123-.492.123h-.246a.246.246,0,0,1-.246.123,1.8,1.8,0,0,0-.554.123h-.492a1.159,1.159,0,0,0-.492.123h-.492a1.2,1.2,0,0,0-.492.062,1.047,1.047,0,0,0-.431.062H41.2a4.061,4.061,0,0,0-.861.062h-2.4a2.616,2.616,0,0,1-.677-.123h-.308a.78.78,0,0,1-.369-.062H36.1a1.159,1.159,0,0,1-.492-.123h-.246a.466.466,0,0,0-.246-.123c-.185,0-.308-.123-.492-.123l-.308-.123h-.123l-.123-.123a2.662,2.662,0,0,1-.738-.308h-.246a.37.37,0,0,1-.246-.062c-.123-.062-.308-.123-.431-.185a2.675,2.675,0,0,0-.431-.246c-.123-.062-.308-.123-.431-.185h-.123c-.246-.123-.677-.308-.677-.369s.431.123.677.308a3.3,3.3,0,0,0,.677.308.818.818,0,0,1,.431.185l.369.123h.123a.664.664,0,0,1,.431.185h.185s0,.062.123.062h.246a6.793,6.793,0,0,1,.984.185c.369.062.677.185,1.107.246h.308a.555.555,0,0,1,.308.062h.431a.874.874,0,0,0,.369.123c.185,0,.308,0,.369.062h.369a.226.226,0,0,0,.185.062h3.506a.912.912,0,0,1,.431.062h.861a1.817,1.817,0,0,0,.8-.123h.431c0-.062.185-.123.185-.123h.185l.8-.185a30.718,30.718,0,0,0,3.137-.984A9.763,9.763,0,0,1,50,51.729a.459.459,0,0,1,.185-.185h0c-.123.062-.246.185-.185.185h.185l.185-.062a.3.3,0,0,0,.185-.062.885.885,0,0,0,.185-.123l.369-.185c.185-.123.369-.185.369-.062a1.877,1.877,0,0,1-.492.431Z" transform="translate(0 0)" fill="#d0d2d3"></path>
    <path id="Path_362" data-name="Path 362" d="M60.3,73.5Z" transform="translate(-16.512 -23.555)" fill="#d0d2d3"></path>
    <path id="Path_363" data-name="Path 363" d="M83,58.623l.062.062.062-.185Z" transform="translate(-25.249 -17.782)" fill="#d0d2d3"></path>
    <path id="Path_364" data-name="Path 364" d="M61.757,18.276c-.185-.123-.369-.185-.431-.308l-.308-.185a.3.3,0,0,1-.185-.062h-.185c0-.062-.308-.246-.308-.246V17.6h-.123c-.062,0-.123-.062-.185-.123a.191.191,0,0,1-.123-.062s-.062-.123-.123-.123c-.123,0-.246-.123-.369-.185-.123,0-.246-.123-.369-.123-.246-.062-.492-.185-.738-.246a.874.874,0,0,1-.369-.123c-.123,0-.246,0-.308-.123h-.185c0-.062-.123-.062-.185-.123-.246,0-.431-.123-.677-.123H56.1a.889.889,0,0,1-.431-.123H55.3l-.369-.062h-.738L53.822,16h-2.4a1.565,1.565,0,0,0-.431.123H50.5v.185a1.047,1.047,0,0,1,.431.062,2.523,2.523,0,0,0,.677-.062h.062a1.448,1.448,0,0,1,.492-.123h.308a.78.78,0,0,1,.369.062c.185,0,.431.062.615.062a2.616,2.616,0,0,1,.677.123h1.415c.369.062.738.123,1.046.185a1.448,1.448,0,0,1,.492.123.919.919,0,0,1,.431.185h.369a.819.819,0,0,0,.308.185l.431.123H58.8c.062.062.123.123.185.123.431,0,.369.185.554.246.123,0,.185.062.308.123l.308.123c.123.062.185.123.308.185a1.345,1.345,0,0,1,.308.185l.369.185a11622.9,11622.9,0,0,1,.369.246c0-.062.369,0,.554,0h0a2.873,2.873,0,0,0-.615-.308Z" transform="translate(-12.74 -1.424)" fill="#d0d2d3"></path>
    <path id="Path_365" data-name="Path 365" d="M79.338,30.061l-.246-.308a.219.219,0,0,1-.185-.123.885.885,0,0,0-.123-.185c0-.062-.123-.123-.185-.246v.123a.191.191,0,0,0,.062.123.3.3,0,0,0,.062.185l.185.308.123.123c.123.123.185.308.308.431a1.2,1.2,0,0,1,.431.062l-.246-.431L79.4,30Z" transform="translate(-23.555 -6.505)" fill="#d0d2d3"></path>
    <path id="Path_366" data-name="Path 366" d="M71.538,21.546c-.123-.062-.308-.123-.431-.185a.3.3,0,0,1-.185-.062H70.8v.123l.185.185a1.345,1.345,0,0,0,.308.185.466.466,0,0,1,.246.123c.062,0,.185.123.246.123.123.062.246.123.308.062l-.369-.369c-.123-.062-.185-.123-.308-.185Z" transform="translate(-20.553 -3.464)" fill="#d0d2d3"></path>
    <path id="Path_367" data-name="Path 367" d="M86.7,47.569v.185s.062,0,.062-.123v0Z" transform="translate(-26.673 -13.433)" fill="#d0d2d3"></path>
    <path id="Path_368" data-name="Path 368" d="M38.1,20.9Z" transform="translate(-7.967 -3.31)" fill="#d0d2d3"></path>
    <path id="Path_369" data-name="Path 369" d="M24.711,54.15c1.907-8,10.764-37.091,36.907-26.327.431.185.861.492,0,.431A35.44,35.44,0,0,0,46.3,30.284c-6.459,2.46-15.255,9.473-21.283,23.928-.246.615-.615,1.169-.369-.062Z" transform="translate(-2.759 -5.066)" fill="#874f9e"></path>
    <path id="Path_370" data-name="Path 370" d="M25.243,60.929c1.292-5.844,6.459-21.713,24.851-17.223.492.123.984.369,0,.431-4.675.246-19.13,2.214-24.543,16.793-.246.677-.554,1.23-.308,0Z" transform="translate(-2.984 -11.784)" fill="#66bb46"></path>
    <path id="Path_371" data-name="Path 371" d="M133.8,53.1V28h16.485v2.214H136.26v9.227h11.81v2.03H136.26V53.1H133.8Z" transform="translate(-44.801 -6.043)" fill="#6d6e70"></path>
    <path id="Path_372" data-name="Path 372" d="M199.21,53.127a10.578,10.578,0,0,1-4.8-1.107,11.582,11.582,0,0,1-3.752-2.891,12.886,12.886,0,0,1-2.4-4.06,13.738,13.738,0,0,1-.861-4.736,12.8,12.8,0,0,1,.923-4.8,12.54,12.54,0,0,1,2.522-4.06,13.112,13.112,0,0,1,3.752-2.83,10.961,10.961,0,0,1,9.473.062A11.52,11.52,0,0,1,207.76,31.6a13.608,13.608,0,0,1,2.4,4.06,13.4,13.4,0,0,1,.861,4.675,13.039,13.039,0,0,1-.923,4.8,13.528,13.528,0,0,1-2.46,4.06,11.243,11.243,0,0,1-3.752,2.768A10.845,10.845,0,0,1,199.21,53Zm-9.288-12.733a12.029,12.029,0,0,0,.677,3.937,10.724,10.724,0,0,0,1.907,3.383,8.647,8.647,0,0,0,6.766,3.2,8.191,8.191,0,0,0,3.875-.923,9.388,9.388,0,0,0,2.953-2.4,10.589,10.589,0,0,0,1.845-3.383,11.585,11.585,0,0,0,.677-3.814,12.314,12.314,0,0,0-.677-3.937,9.793,9.793,0,0,0-1.907-3.322,9.213,9.213,0,0,0-2.953-2.337,8.6,8.6,0,0,0-7.627.062,9.388,9.388,0,0,0-2.953,2.4,10.589,10.589,0,0,0-1.845,3.383,11.585,11.585,0,0,0-.677,3.814Z" transform="translate(-65.431 -5.889)" fill="#6d6e70"></path>
    <path id="Path_373" data-name="Path 373" d="M256.7,53.1V28h10.641a6.99,6.99,0,0,1,3.014.677,6.765,6.765,0,0,1,2.337,1.784,8.176,8.176,0,0,1,1.538,2.522,7.791,7.791,0,0,1,.554,2.891,7.461,7.461,0,0,1-.431,2.645,8.7,8.7,0,0,1-1.107,2.276,6.551,6.551,0,0,1-1.722,1.722,6.131,6.131,0,0,1-2.276.923l6.151,9.719h-2.768l-5.905-9.288h-7.443v9.288h-2.46Zm2.46-11.441H267.4a4.5,4.5,0,0,0,2.03-.492,4.436,4.436,0,0,0,1.538-1.292,6.646,6.646,0,0,0,.984-1.845,6.335,6.335,0,0,0,.369-2.153,5.182,5.182,0,0,0-.431-2.153,5.68,5.68,0,0,0-1.107-1.845,5.292,5.292,0,0,0-1.6-1.23,4.374,4.374,0,0,0-1.968-.431h-8V41.655Z" transform="translate(-92.104 -6.043)" fill="#6d6e70"></path>
    <path id="Path_374" data-name="Path 374" d="M333.322,30.214h-8.981V53.158h-2.46V30.214H312.9V28h20.36v2.214Z" transform="translate(-113.734 -6.043)" fill="#6d6e70"></path>
    <path id="Path_375" data-name="Path 375" d="M392.416,50.944v2.214H375.5V28h16.547v2.214H377.96v9.042h12.3v2.091h-12.3v9.6h14.455Z" transform="translate(-137.828 -6.043)" fill="#6d6e70"></path>
    <path id="Path_376" data-name="Path 376" d="M472,53.1V28h16.485v2.214H474.46v9.227h11.81v2.03H474.46V53.1H472Z" transform="translate(-174.97 -6.043)" fill="#6d6e70"></path>
    <path id="Path_377" data-name="Path 377" d="M537.41,53.127a10.578,10.578,0,0,1-4.8-1.107,11.582,11.582,0,0,1-3.752-2.891,12.886,12.886,0,0,1-2.4-4.06,13.738,13.738,0,0,1-.861-4.736,12.8,12.8,0,0,1,.923-4.8,12.54,12.54,0,0,1,2.522-4.06,13.113,13.113,0,0,1,3.752-2.83,10.96,10.96,0,0,1,9.473.062A11.519,11.519,0,0,1,545.96,31.6a13.607,13.607,0,0,1,2.4,4.06,13.4,13.4,0,0,1,.861,4.675,13.039,13.039,0,0,1-.923,4.8,13.528,13.528,0,0,1-2.46,4.06,11.243,11.243,0,0,1-3.752,2.768A10.844,10.844,0,0,1,537.41,53Zm-9.288-12.733a12.03,12.03,0,0,0,.677,3.937,10.724,10.724,0,0,0,1.907,3.383,8.647,8.647,0,0,0,6.766,3.2,8.191,8.191,0,0,0,3.875-.923,9.388,9.388,0,0,0,2.953-2.4,10.587,10.587,0,0,0,1.845-3.383,11.585,11.585,0,0,0,.677-3.814,12.315,12.315,0,0,0-.677-3.937,9.794,9.794,0,0,0-1.907-3.322,9.214,9.214,0,0,0-2.953-2.337,8.6,8.6,0,0,0-7.627.062,9.388,9.388,0,0,0-2.953,2.4,10.588,10.588,0,0,0-1.845,3.383,11.585,11.585,0,0,0-.677,3.814Z" transform="translate(-195.6 -5.889)" fill="#6d6e70"></path>
    <path id="Path_378" data-name="Path 378" d="M594.9,53.1V28h10.641a6.99,6.99,0,0,1,3.014.677,6.765,6.765,0,0,1,2.337,1.784,8.176,8.176,0,0,1,1.538,2.522,7.791,7.791,0,0,1,.554,2.891,7.46,7.46,0,0,1-.431,2.645,8.7,8.7,0,0,1-1.107,2.276,6.55,6.55,0,0,1-1.722,1.722,6.132,6.132,0,0,1-2.276.923l6.151,9.719h-2.768l-5.905-9.288h-7.443v9.288h-2.46Zm2.46-11.441H605.6a4.5,4.5,0,0,0,2.03-.492,4.436,4.436,0,0,0,1.538-1.292,6.647,6.647,0,0,0,.984-1.845,6.335,6.335,0,0,0,.369-2.153,5.182,5.182,0,0,0-.431-2.153,5.68,5.68,0,0,0-1.107-1.845,5.291,5.291,0,0,0-1.6-1.23,4.374,4.374,0,0,0-1.968-.431h-8V41.655Z" transform="translate(-222.273 -6.043)" fill="#6d6e70"></path>
    <path id="Path_379" data-name="Path 379" d="M672.716,50.944v2.214H655.8V28h16.547v2.214H658.26v9.042h12.3v2.091h-12.3v9.6h14.394Z" transform="translate(-245.712 -6.043)" fill="#6d6e70"></path>
    <path id="Path_380" data-name="Path 380" d="M712.522,28,721.5,50.083,730.483,28h2.584L722.61,53.158h-2.153L710,28h2.583Z" transform="translate(-266.573 -6.043)" fill="#6d6e70"></path>
    <path id="Path_381" data-name="Path 381" d="M793.516,50.944v2.214H776.6V28h16.547v2.214H779.06v9.042h12.3v2.091h-12.3v9.6h14.394Z" transform="translate(-292.206 -6.043)" fill="#6d6e70"></path>
    <path id="Path_382" data-name="Path 382" d="M835.1,53.1V28h10.641a6.99,6.99,0,0,1,3.014.677,6.765,6.765,0,0,1,2.337,1.784,8.177,8.177,0,0,1,1.538,2.522,7.792,7.792,0,0,1,.554,2.891,7.46,7.46,0,0,1-.431,2.645,8.7,8.7,0,0,1-1.107,2.276,6.549,6.549,0,0,1-1.722,1.722,6.13,6.13,0,0,1-2.276.923l6.151,9.719h-2.768l-5.905-9.288h-7.443v9.288h-2.46Zm2.46-11.441H845.8a4.5,4.5,0,0,0,2.03-.492,4.436,4.436,0,0,0,1.538-1.292,6.647,6.647,0,0,0,.984-1.845,6.335,6.335,0,0,0,.369-2.153,5.182,5.182,0,0,0-.431-2.153,5.681,5.681,0,0,0-1.107-1.845,5.291,5.291,0,0,0-1.6-1.23,4.374,4.374,0,0,0-1.968-.431h-8V41.655Z" transform="translate(-314.722 -6.043)" fill="#6d6e70"></path>
  </g>
</svg>
