<?xml version="1.0" encoding="UTF-8"?>
<svg xmlns="http://www.w3.org/2000/svg" id="Layer_1" viewBox="0 0 600 145">
  <defs>
    <style>.cls-1{fill:none;}.cls-1,.cls-2,.cls-3{stroke-width:0px;}.cls-2{fill:#828282;fill-rule:evenodd;}.cls-3{fill:#3a3a3a;}</style>
  </defs>
  <path class="cls-1" d="m415.2,131.2c-1.6,0-2.8,1.2-3,3h5.9c-.2-1.7-1.2-3-2.9-3Z"></path>
  <path class="cls-1" d="m336.3,137.3h0c0,1.1,1,1.7,2.2,1.7s3.1-1,3.1-2.4v-.7c-.7-.3-1.6-.5-2.6-.5-1.7,0-2.7.7-2.7,1.8Z"></path>
  <path class="cls-1" d="m392.1,73c-8.9,0-12.6,8.8-12.6,19.6s3.7,19.6,12.6,19.6,12.6-8.8,12.6-19.6c0-10.7-3.7-19.6-12.6-19.6Z"></path>
  <path class="cls-1" d="m274.7,134.6c8.3,0,12.9-4.9,12.9-9.7s-2.3-7.5-9-7.5h-11.2c-2.9,1.5-4.9,5-4.9,8.5,0,5.2,4.4,8.7,12.2,8.7Z"></path>
  <path class="cls-1" d="m326.3,131.2c-1.6,0-2.8,1.2-3,3h5.9c-.2-1.7-1.2-3-2.9-3Z"></path>
  <path class="cls-1" d="m274.2,72.5c-5.6,0-9.2,4.7-9.2,12.5s3.6,12.5,9.2,12.5,9.1-4.7,9.1-12.5c0-7.8-3.6-12.5-9.1-12.5Z"></path>
  <path class="cls-1" d="m390.5,137.3h0c0,1.1,1,1.7,2.2,1.7s3.1-1,3.1-2.4v-.7c-.7-.3-1.6-.5-2.6-.5-1.7,0-2.7.7-2.7,1.8Z"></path>
  <path class="cls-3" d="m313.9,129c-1.8,0-2.9.9-3.6,2v-6.2h-2.6v16h2.6v-6.5c0-1.8,1.1-2.9,2.6-2.9s2.5,1,2.5,2.8v6.6h2.6v-7.4c0-2.7-1.5-4.4-4.1-4.4Z"></path>
  <path class="cls-3" d="m326.3,129c-3.3,0-5.7,2.7-5.7,6h0c0,3.6,2.6,6,5.9,6s3.6-.9,4.7-2.2l-1.6-1.4c-.9.9-1.8,1.4-3.1,1.4s-3-1.1-3.3-2.9h8.5c0-.3,0-.5,0-.7,0-3.3-1.9-6.2-5.5-6.2Zm-3,5.2c.2-1.8,1.4-3,3-3s2.8,1.3,2.9,3h-5.9Z"></path>
  <path class="cls-3" d="m331,114.3c0-2.2-.8-2.3-.8-2.3h-1.2c-2,0-4-2-4-4v-20.4c0-8.2,4.9-13.2,11.2-13.2s9.4,3,9.4,9.6v23.9c0,2-2,4-4,4h-1.2s-.8.2-.8,2.3.8,3.1.8,3.1h23.7s.8-.9.8-2.9-.8-2.5-.8-2.5h-1.2c-2,0-4-2-4-4v-24.4c0-11.5-7.2-17.2-17.7-17.2s-13.7,3.6-17.3,8.9c0,0,0-5.3,0-5.9,0-1.7-1.7-2.3-3.6-1.5-1.3.5-8.1,2.9-13.8,2.9-.3.4-.8,1.3-.8,2.7s.3,1.9.8,2.7h1.2c2,0,4,2,4,4v27.7c0,2-2,4-4,4h-1.2s-.8.1-.8,2.3.8,3.1.8,3.1h23.7s.8-.8.8-3.1Z"></path>
  <path class="cls-3" d="m287.2,70c-3.6-2.3-8.1-3.7-13-3.7-12.4,0-21.5,8.3-21.5,18.7s3.5,11.6,8.3,14.8l-8.4,10.5s-1.1,1.9-1.1,3.9,1.2,3.2,1.2,3.2h6c-4.4,2.6-6.4,6.9-6.4,10.6,0,7.2,6.3,13.1,20.4,13.1s27.4-7.5,27.4-19.3-5-14.1-17.5-14.1h-18.9l3.7-5c2.1.7,3.8,1,6.8,1,12.3,0,21.5-8.4,21.5-18.7s-.9-6.2-2.5-8.8h7.3c.4-.7.8-1.6.8-3.1s-.5-2.5-.8-3h-13.3Zm-19.8,47.3h11.2c6.7,0,9,3.7,9,7.5s-4.6,9.7-12.9,9.7-12.2-3.5-12.2-8.7c0-3.5,2-7,4.9-8.5Zm6.8-19.9c-5.6,0-9.2-4.7-9.2-12.5s3.6-12.5,9.2-12.5,9.1,4.7,9.1,12.5c0,7.8-3.6,12.5-9.1,12.5Z"></path>
  <path class="cls-3" d="m215.6,100.6c-1.6-.6-2.9,0-2.9,0-3.7,6.5-7.1,9.4-12.3,9.4-9.4,0-15.5-8.5-15.5-18.7s4.2-18.7,14-18.7,10.8,3.8,10.8,9.6v1.8c.1,0,0,.8,2.5.8s3.2-.8,3.2-.8l-.5-13.1s0-.3-.2-.6c-.2-.2-.5-.4-.5-.4-3.9-2.2-9.1-3.5-15.3-3.5-14.4,0-27.7,9.6-27.7,27s11.7,25.4,25.2,25.4,18.5-7.9,21.1-16.8c0,0-.7-1-2-1.4Z"></path>
  <path class="cls-3" d="m233.6,62.8c4.6,0,8.3-3.8,8.3-8.5s-3.7-8.5-8.3-8.5-8.3,3.8-8.3,8.5,3.7,8.5,8.3,8.5Z"></path>
  <path class="cls-3" d="m240.3,78.4c0-2,2-4,4-4h1.2s.8-.5.8-2.5-.8-3-.8-3h-23.7s-.8,1.2-.8,3.1.8,2.3.8,2.3h1.2c2,0,4,2,4,4v29.6c0,2-2,4-4,4h-1.2s-.8.4-.8,2.3.8,3.1.8,3.1h23.7s.8-1,.8-3-.8-2.5-.8-2.5h-1.2c-2,0-4-2-4-4v-29.6Z"></path>
  <path class="cls-3" d="m393.3,129.1c-1.9,0-3.1.4-4.4,1l.7,2.1c1.1-.4,2-.7,3.3-.7,1.8,0,2.8.9,2.8,2.5v.2c-.9-.3-1.8-.5-3.2-.5-2.7,0-4.7,1.2-4.7,3.8h0c0,2.4,1.9,3.6,4.1,3.6s3-.7,3.7-1.7v1.4h2.6v-6.9c0-3.1-1.7-4.9-5.1-4.9Zm2.5,7.6c0,1.4-1.3,2.4-3.1,2.4s-2.2-.6-2.2-1.7h0c0-1.2,1-1.8,2.6-1.8s2,.2,2.6.5v.7h0Z"></path>
  <path class="cls-3" d="m404.2,131.9v-2.6h-2.6v11.6h2.6v-4.4c0-3.1,1.6-4.6,3.9-4.6h.2v-2.8c-2,0-3.4,1.1-4.1,2.8Z"></path>
  <path class="cls-3" d="m424,110.1c0-1.6-.8-2-.8-2h-1.2c-2,0-4-2-4-4v-35.3s0-1-1.2-1h-3.1c-.6,0-1.1.5-1.1.5l-4.3,5.6c-.5.7-1.1,0-1.1,0h0c-2.8-3.4-7.6-7.5-16.3-7.5-13,0-25.3,9.4-25.3,26.7s10.6,25.7,23.7,25.7,12.1-3.1,15.9-7.9v6s0,1.4,1.6,1.7c1.4.3,2.4-.1,2.4-.1l13.9-5.9s.8-.7.8-2.3Zm-31.9,2c-8.9,0-12.6-8.8-12.6-19.6s3.7-19.6,12.6-19.6,12.6,8.8,12.6,19.6c0,10.7-3.7,19.6-12.6,19.6Z"></path>
  <path class="cls-3" d="m423.7,131.3h-.6c-.2-.2-.4-.3-.5-.3-.1,0-.2-.2-.2-.3s0-.2.2-.3.3-.1.5-.1.3,0,.4,0c.2,0,.3.2.3.5h.7c0-.4-.2-.7-.4-.9-.3-.2-.6-.3-1-.3s-.8.1-1,.3-.4.5-.4.8.1.6.4.8c.1.1.4.2.8.3h.4c.2.1.4.2.5.3.1,0,.2.2.2.3,0,.2-.1.3-.3.4-.1,0-.3,0-.4,0-.3,0-.5,0-.6-.2,0,0-.1-.2-.1-.4h-.7c0,.4.1.7.4.9s.6.3,1.1.3.8-.1,1.1-.3c.3-.2.4-.5.4-.8s-.1-.6-.3-.7c-.1-.1-.4-.2-.6-.3Z"></path>
  <path class="cls-3" d="m427.6,129.7l-.7,2.8-.7-2.8h-1.1v3.6h.7v-3l.7,3h.7l.7-3v3h.7v-3.6h-1.1Z"></path>
  <path class="cls-3" d="m339.1,129.1c-1.9,0-3.1.4-4.4,1l.7,2.1c1.1-.4,2-.7,3.3-.7,1.8,0,2.8.9,2.8,2.5v.2c-.9-.3-1.8-.5-3.2-.5-2.7,0-4.7,1.2-4.7,3.8h0c0,2.4,1.9,3.6,4.1,3.6s3-.7,3.7-1.7v1.4h2.6v-6.9c0-3.1-1.7-4.9-5.1-4.9Zm2.5,7.6c0,1.4-1.3,2.4-3.1,2.4s-2.2-.6-2.2-1.7h0c0-1.2,1-1.8,2.6-1.8s2,.2,2.6.5v.7h0Z"></path>
  <path class="cls-3" d="m415.2,129c-3.3,0-5.7,2.7-5.7,6h0c0,3.6,2.6,6,5.9,6s3.6-.9,4.7-2.2l-1.6-1.4c-.9.9-1.8,1.4-3.1,1.4s-3-1.1-3.3-2.9h8.5c0-.3,0-.5,0-.7,0-3.3-1.9-6.2-5.5-6.2Zm-3,5.2c.2-1.8,1.4-3,3-3s2.8,1.3,2.9,3h-5.9Z"></path>
  <path class="cls-3" d="m381.6,138.8c-2,0-3.5-1.7-3.5-3.7h0c0-2.1,1.4-3.7,3.3-3.7s2.2.6,3,1.4l1.6-1.8c-1.1-1.2-2.4-2-4.6-2-3.5,0-6,2.8-6,6h0c0,3.3,2.5,6,6,6s3.6-.9,4.7-2.2l-1.6-1.6c-.8.9-1.7,1.4-3,1.4Z"></path>
  <rect class="cls-3" x="347.5" y="124.9" width="2.6" height="16"></rect>
  <path class="cls-3" d="m356.8,126.1h-2.6v3.2h-1.5v2.3h1.5v6.1c0,2.5,1.4,3.4,3.3,3.4s1.7-.2,2.4-.6v-2.2c-.5.3-1.1.4-1.6.4-.9,0-1.4-.4-1.4-1.4v-5.7h3.1v-2.3h-3.1v-3.2h0Z"></path>
  <path class="cls-3" d="m368.9,129c-1.8,0-2.9.9-3.6,2v-6.2h-2.6v16h2.6v-6.5c0-1.8,1.1-2.9,2.6-2.9s2.5,1,2.5,2.8v6.6h2.6v-7.4c0-2.7-1.5-4.4-4.1-4.4Z"></path>
  <path class="cls-2" d="m227.5,25.2c0-5.4,2.4-10.1,6.2-13.3,3.8,3.2,6.2,8,6.2,13.4,0,5.4-2.4,10.1-6.2,13.3-3.8-3.2-6.2-8-6.2-13.4m18.8-13.7c-1.6,3.7-1.3,7.8.4,11.2,3.6-1.1,6.7-3.8,8.2-7.5s1.3-7.8-.4-11.2c-3.6,1.1-6.7,3.8-8.2,7.5m-33.9,3.5c1.5,3.8,4.6,6.4,8.2,7.6,1.7-3.3,2-7.4.5-11.2-1.5-3.8-4.6-6.4-8.2-7.6-1.7,3.3-2,7.4-.5,11.2m-21.5,26.5c3.7,1.6,7.8,1.3,11.2-.4-1.1-3.6-3.8-6.7-7.5-8.2s-7.8-1.3-11.2.4c1.1,3.6,3.8,6.7,7.5,8.2m82-8.5c-3.8,1.5-6.4,4.6-7.6,8.2,3.3,1.7,7.4,2,11.2.5,3.8-1.5,6.4-4.6,7.6-8.2-3.3-1.7-7.4-2-11.2-.5m-10.2,15.1c-5.4,0-10.1,2.4-13.4,6.2,3.2,3.8,8,6.2,13.3,6.2s10.1-2.4,13.4-6.2c-3.2-3.8-8-6.2-13.3-6.2m-12.8-18.8c-3.8,3.8-5.5,8.9-5.1,13.8,4.9.4,10-1.3,13.8-5,3.8-3.8,5.5-8.9,5.1-13.8-5-.4-10,1.3-13.8,5m-45.2,18.8c-5.4,0-10.1,2.4-13.3,6.2,3.2,3.8,8,6.2,13.4,6.2s10.1-2.4,13.3-6.2c-3.2-3.8-8-6.2-13.4-6.2m12.8-18.8c-3.8-3.8-8.9-5.4-13.8-5-.4,4.9,1.3,10,5.1,13.8,3.8,3.8,8.9,5.4,13.8,5,.4-5-1.3-10-5.1-13.8"></path>
</svg>
