<?xml version="1.0" encoding="UTF-8"?>
<svg xmlns="http://www.w3.org/2000/svg" id="Layer_1" viewBox="0 0 600 145">
  <defs>
    <style>.cls-1,.cls-2,.cls-3{stroke-width:0px;}.cls-2{fill:#515151;}.cls-3{fill:#2c2c2c;}</style>
  </defs>
  <path class="cls-3" d="m389.3,32.7c-2.1,3.8-4,7.3-6,10.7-3.4,6-6.8,12.1-10.3,18.1-4.5,7.9-8.9,15.7-13.4,23.6-2.7,4.8-5.4,9.6-8.2,14.4-.3.5-.9,1-1.4,1-3.9,0-7.8,0-11.9,0-.7-4.6-1.3-9.1-2.1-14.2-1.4,2.5-2.6,4.6-3.8,6.6-1.2,2.2-2.4,4.4-3.7,6.6-.3.5-1,1.1-1.5,1.2-3.9,0-7.8,0-11.9,0-3.2-22.5-6.5-45-9.7-67.6h13.2c1.9,16.5,3.9,32.9,5.8,49.4.1,0,.3,0,.4.1,1.1-1.9,2.2-3.9,3.3-5.8,1.4-2.5,2.7-5.1,4.2-7.6.7-1.3,1-2.5.8-4-1.5-10.2-3-20.4-4.4-30.7,0-.6,0-1.1-.1-1.8h13c.6,5.1,1.2,10.1,1.8,15.1.1,0,.3.1.4.2,1-1.7,1.9-3.4,2.9-5.1,1.6-3,3.2-6,4.9-9,.2-.4.8-.9,1.2-1,4.4,0,8.7,0,13.4,0-1.5,2.8-2.9,5.3-4.4,7.9-3.3,5.8-6.6,11.6-9.9,17.4-1.8,3.1-3.6,6.2-5.3,9.4-.4.8-.6,1.9-.5,2.8.3,3.6.8,7.2,1.2,10.9,0,.4.1.8.3,1.6,1-1.7,1.8-3,2.5-4.3,3.9-7.2,7.8-14.4,11.7-21.5,4.3-7.8,8.5-15.7,12.9-23.5.2-.4,1-.9,1.5-.9,4.2,0,8.5,0,13.1,0Z"></path>
  <path class="cls-2" d="m87.8,76.7c1.1,0,1.7,0,2.4,0,9.4,0,18.8,0,28.2,0,1.4,0,1.9-.4,2.4-1.7,2.9-9.2,5.9-18.3,8.9-27.5.1-.4.3-.9.7-1.6.5,1.3.9,2.3,1.2,3.4,2.8,8.4,5.6,16.8,8.2,25.3.6,1.8,1.4,2.2,3.1,2.2,9.2,0,18.3,0,27.5,0,.7,0,1.4,0,2.1,0,0,.1.1.3.2.4-1.9,1.4-3.7,2.8-5.6,4.2-6.2,4.5-12.4,8.9-18.6,13.4-1.1.8-1.5,1.5-1,3,3.1,9,6,18.1,8.9,27.1.2.5.3,1,.6,2-2-1.4-3.7-2.5-5.3-3.7-6.6-4.8-13.3-9.7-19.9-14.6-1.1-.9-1.9-.5-2.8.2-5.7,4.1-11.4,8.3-17.1,12.4-2.5,1.8-4.9,3.6-7.8,5.7.5-1.7.9-3,1.3-4.3,2.7-8.4,5.4-16.8,8.2-25.1.4-1.2.3-1.8-.8-2.6-7.7-5.5-15.4-11.2-23.1-16.8-.5-.3-.9-.7-1.7-1.4Z"></path>
  <path class="cls-3" d="m206.8,100.8c4-19.2,8-38.2,12.1-57.4h-21.6c.8-3.9,1.6-7.5,2.4-11.3h56.4c-.8,3.7-1.6,7.4-2.5,11.2-.9,0-1.8,0-2.6,0-5.7,0-11.3,0-17,0-1.4,0-2.1.4-2.4,1.8-1.8,8.8-3.6,17.6-5.5,26.4-1.9,9.2-3.9,18.4-5.8,27.6-.3,1.3-.8,1.8-2.2,1.8-3.6-.1-7.3,0-11.3,0Z"></path>
  <path class="cls-3" d="m264.5,77.8c2.5,7.4,5.1,14.9,7.7,22.7h-8.3c-4.7,0-4.7,0-5.7-4.4-1.8-7.8-3.6-15.7-5.4-23.5,0-.3,0-.6,0-.9,2.3,0,4.5.1,6.7,0,4.4-.3,8-3.3,9-7.3.7-2.8-.7-5.2-3.5-5.4-3.9-.2-7.9,0-12,0-2.8,13.9-5.6,27.7-8.3,41.6h-11.5c.2-1.1.3-2.1.5-3.1,3-15,6.1-30,9-45.1.2-1.2.6-1.7,1.9-1.7,8.5,0,17-.1,25.5,0,5.6.1,11.7,4.5,10,12.6-1.8,8.2-7.2,12.7-15.5,14.5Z"></path>
  <path class="cls-3" d="m385.3,51.2h37.7c-.6,3.1-1.2,6.1-1.9,9.3h-26.6c-.7,3.4-1.4,6.6-2.1,10.2h24.6c-.6,2.9-1.1,5.5-1.8,8.1-.1.4-1.1.7-1.7.8-7,0-13.9,0-20.9,0-.6,0-1.3,0-2.1,0-.8,3.8-1.6,7.5-2.5,11.5h27c-.7,3.3-1.3,6.3-2,9.4h-38.1c3.4-16.5,6.8-32.8,10.3-49.3Z"></path>
  <path class="cls-3" d="m421.8,87.6c4.1,1.9,8,3.9,12.1,5.4,3.2,1.2,6.5.6,9.4-1.4,2.8-2,3.6-5.2,1.3-7.8-2.5-2.9-5.4-5.4-8.2-8-1.5-1.4-3.2-2.6-4.6-4.1-4.6-4.6-4.8-11-.3-15.8,4-4.3,9.1-6.1,14.8-6.6,5.4-.4,10.6.3,15.4,3,1.4.8,2.2,1.6,1.5,3.4-.8,2.2-1.3,4.6-1.9,7-2.7-1.4-5.2-2.8-7.8-4-2.1-1-4.3-1.7-6.6-1.1-2.3.5-4.4,1.4-5,3.9-.6,2.5,1.1,4.1,2.8,5.5,2.9,2.6,5.9,5,8.8,7.6,2.5,2.2,4.5,4.6,5.3,7.9,1.1,4.4-.7,7.9-3.3,11.2-3.7,4.8-8.8,6.9-14.6,7.7-7.1.9-13.9,0-20-4-.5-.4-1.1-1.3-1-1.9.5-2.8,1.2-5.5,1.7-7.9Z"></path>
  <path class="cls-3" d="m512.2,50.8c-.7,3.3-1.3,6.2-2,9.2,0,.3-1,.6-1.6.6-3.8,0-7.7,0-11.5,0-1.2,0-1.8.4-2,1.6-2.5,12.1-5.1,24.1-7.6,36.2-.1.6-.3,1.3-.4,2h-11.6c2.8-13.2,5.5-26.4,8.3-39.7h-15.4c.4-1.7.7-3.2,1-4.7.4-1.7.4-3.9,1.4-4.9.9-.8,3.1-.3,4.8-.3,11.3,0,22.7,0,34,0h2.5Z"></path>
  <path class="cls-1" d="m190.4,63.8c-4.6,3.3-9.1,6.6-13.7,9.8-.4.3-1.1.3-1.7.3-10.3,0-20.7,0-31,0-1.2,0-1.8-.4-2.1-1.5-1-3.3-2.2-6.6-3.2-9.9-.2-.6-.2-1.4,0-2,2.9-9.2,5.9-18.3,8.9-27.4,0-.2.2-.3.4-.6,1.6,4.9,3.2,9.7,4.7,14.4,1.6,4.9,3.3,9.8,4.8,14.7.4,1.3,1,1.7,2.4,1.7,9.4,0,18.9,0,28.3,0,.6,0,1.3,0,1.9,0,0,.1,0,.3.1.4Z"></path>
  <path class="cls-2" d="m162.5,18c2.8,8.7,5.5,16.9,8.2,25.2.7,2.1,1.4,4.1,2,6.2.3,1,.7,1.5,2,1.5,10.9,0,21.8,0,33.3,0-1.9,1.4-3.5,2.6-5,3.7-1.8,1.3-3.7,2.4-5.3,3.8-2,1.8-4.2,2.2-6.8,2.2-9.7-.1-19.5,0-29.2,0-1.2,0-1.8-.3-2.1-1.5-1.5-4.8-3.2-9.6-4.7-14.4-.3-1-.4-2.1-.1-3.1,2.3-7.5,4.8-14.9,7.2-22.3.1-.3.3-.6.6-1.3Z"></path>
  <path class="cls-3" d="m290.4,50.7h11.4c-.8,3.6-1.5,7.2-2.2,10.7-2.5,12.1-5.1,24.2-7.6,36.3-.6,2.8-.5,2.8-3.3,2.8-2.8,0-5.6,0-8.8,0,3.5-16.7,7-33.2,10.5-49.8Z"></path>
  <path class="cls-2" d="m190,103.8c-1.6-1.2-3.3-2.3-4.9-3.5-4.9-3.6-10-7-14.8-10.9-1.3-1.1-1.6-3.3-2.4-5.1,0-.2.2-.6.4-.7,4.1-3,8.2-6,12.6-9.2,3.2,9.9,6.4,19.5,9.5,29-.1.1-.3.2-.4.3Z"></path>
  <path class="cls-1" d="m174.1,113.5c-7.8-5.6-15.5-11.3-23.5-17,4.9-3.6,9.8-7.1,14.8-10.7,3,9.3,6,18.4,9,27.5-.1,0-.2.1-.3.2Z"></path>
  <path class="cls-3" d="m440.5,111.7c-.9,4.7-1.8,9-2.6,13.4h-2.4c.8-3.9,1.5-7.8,2.3-11.6.3-1.4.5-2.9.9-4.3.2-.6.6-1.3,1.1-1.4.9-.3,1.8,0,2.2,1.1,1.3,3.5,2.8,7,4.2,10.4.2.5.5,1,1,2.1.9-4.8,1.8-9.1,2.6-13.5h2.4c-.3,1.7-.7,3.5-1,5.2-.7,3.6-1.4,7.3-2.2,10.9-.1.5-.7,1.1-1.2,1.3-.7.2-1.5.3-1.9-.9-1.4-3.8-3-7.5-4.6-11.2-.1-.3-.3-.6-.7-1.4Z"></path>
  <path class="cls-3" d="m341.6,125c-2.4.5-3,0-2.7-2.3.7-4.7.6-4.8-4-4.8q-2.6,0-3.1,2.5c-.2,1-.4,2.1-.6,3.1-.2,1.6-1,2.2-2.8,1.5,1.1-5.7,2.3-11.4,3.4-17.2,2.6,0,5.2-.1,7.7,0,2.2.1,3.8,1.5,4.1,3.3.3,2.1-.1,4-2,5.3-.3.2-.6.4-.9.7,1.9,2.5.2,5.3.9,8Zm-8.8-9.5c2.1,0,3.8,0,5.6,0,1.7,0,2.9-1.5,2.9-3.1,0-1.5-1-2.3-2.9-2.3-1.5,0-2.9,0-4.4,0-.4,1.9-.7,3.6-1.1,5.5Z"></path>
  <path class="cls-3" d="m475.4,115h8.1c.2,1.8-.4,2.6-2.2,2.5-1.8-.1-3.5,0-5.3,0-.5,0-1.3.5-1.4.9-.4,1.4-.6,2.8-.9,4.4h8.8q0,2.4-2.2,2.4c-3.2,0-6.3,0-9.6,0,1.1-5.6,2.2-11,3.3-16.4,0-.5.7-1.2,1.2-1.2,3.5,0,6.9,0,10.5,0,.1,1.8-.4,2.6-2.2,2.5-1.8-.2-3.7,0-5.5,0-1.2,0-1.7.4-1.9,1.5-.2,1.1-.3,2.2-.6,3.5Z"></path>
  <path class="cls-3" d="m359.6,110c-2.5,0-5,0-7.4,0-1.1,0-1.7.2-1.9,1.5,0,1.1-.4,2.3-.7,3.6h8c.3,2.2.2,2.4-1.8,2.4-2.1,0-4.1,0-6.2,0-.1,0-.2,0-.5.2-.3,1.6-.6,3.3-1,5.2h9c-.2.8-.3,1.5-.4,2.2h-11.6c.7-3.4,1.3-6.6,1.9-9.9.4-2.1.8-4.3,1.3-6.4.1-.5.7-1.1,1.1-1.1,3.4,0,6.8,0,10.5,0-.2.9-.3,1.6-.4,2.3Z"></path>
  <path class="cls-3" d="m234,107.7c0,1.9-.6,2.5-2.3,2.3-2.3-.1-4.6,0-7,0-.3,1.7-.7,3.3-1,5.1h8.1c.2,1.9-.5,2.5-2.2,2.4-1.7-.1-3.4,0-5.1,0-1,0-1.4.4-1.5,1.3-.2,1.3-.5,2.6-.8,4.2h8.8c.2,1.6,0,2.4-1.8,2.4-3.2,0-6.5,0-10,0,.6-3.1,1.2-6,1.7-8.9.5-2.4,1-4.7,1.4-7.1.2-1.1.5-1.6,1.8-1.6,3.3,0,6.6,0,10,0Z"></path>
  <path class="cls-3" d="m293.4,107.9c-1,5.2-2.2,10.3-3,15.5-.3,1.9-1.1,2.2-2.8,1.7.5-2.5.9-4.9,1.4-7.6-2.6,0-5,0-7.4,0-.3,0-.8.6-.9,1-.4,1.6-.8,3.2-1,4.8-.2,1.9-1.1,2.2-2.8,1.7.9-4.5,1.8-9,2.6-13.6.1-.6.4-1.3.4-1.9,0-2,1.1-2.2,2.9-1.7-.4,2.2-.9,4.5-1.3,7h8c.4-1.6.8-3.4,1.1-5.2.4-2.1.4-2.1,2.8-1.7Z"></path>
  <path class="cls-3" d="m204.9,107.8h2.5c-.4,2.4-.8,4.8-1.3,7.3,2.6,0,4.9,0,7.2,0,.4,0,.9-.7,1-1.1.5-2,.9-4,1.3-6.1h2.5c-1.1,5.8-2.3,11.5-3.4,17.3h-2.5c.5-2.5.9-4.9,1.4-7.5h-8.1c-.5,2.5-1,5-1.6,7.6h-2.4c1.1-5.9,2.3-11.6,3.4-17.4Z"></path>
  <path class="cls-3" d="m469,113.5h-2.2c-.3-2.1-1.2-3.7-3.7-3.8-2.6,0-5.1,1.4-5.9,3.8-.5,1.6-.8,3.4-.9,5.1,0,2.5,1.4,4.1,3.4,4.6,2.5.5,4.5-.3,5.5-2.7.6-1.4,1.4-1.7,2.7-1.3.2,3.3-2.8,6-6,6.4-4.8.5-7.9-2.3-8-7.1,0-4.1,1-7.7,4.7-10,2.4-1.5,5-1.6,7.6-.4,2.1,1,3.1,2.8,2.9,5.4Z"></path>
  <path class="cls-3" d="m310,113.6h-2.3c-.3-2.2-1.3-3.7-3.6-3.9-2.7-.2-4.5,1.2-5.7,3.4-1.3,2.1-1.3,4.5-1,6.8.3,2,1.8,3.3,3.9,3.6,1.8.2,3.7-.8,4.7-2.5q1-1.8,2.9-1.5c0,3.7-3.4,6.5-7.6,6.3-3.7-.2-6.2-2.4-6.6-6.7-.4-4.5,1.7-9.4,5.9-11.1,3.9-1.6,8.3,0,9.2,3.6.2.6.2,1.2.2,2Z"></path>
  <path class="cls-3" d="m430.1,107.8c1,5.7,1.9,11.4,2.9,17.1-2.5.5-2.6.4-2.8-1.7,0-.3,0-.6,0-.9,0-1.8-.9-2.3-2.8-2.4-3.1-.2-5.2.5-6.1,3.7-.5,1.8-2,1.7-3.6,1.5,1.2-2.1,2.3-4.2,3.5-6.3,1.8-3.1,3.7-6.1,5.3-9.3.8-1.7,1.9-2.1,3.7-1.6Zm-5.7,9.9h5c-.3-2.3-.7-4.4-1-6.6-.1,0-.3,0-.4,0-1.1,2.1-2.3,4.2-3.6,6.7Z"></path>
  <path class="cls-3" d="m366.4,125.1c1.2-2.2,2.3-4.2,3.5-6.3,1.8-3.2,3.7-6.4,5.5-9.7.7-1.2,1.5-2,2.7-1.5.6.2,1,1.3,1.1,2,.9,5.1,1.8,10.2,2.7,15.4h-2.6c-.2-1.2-.4-2.5-.5-3.8-.1-.9-.5-1.6-1.6-1.4-.2,0-.4,0-.5,0-3.4-.6-5.8.5-6.8,4-.5,1.8-2,1.2-3.5,1.1Zm10.8-13.9c-.2,0-.3,0-.5,0-1.1,2.1-2.2,4.2-3.5,6.6,1.6,0,2.8,0,3.9,0,.4,0,1-.6.9-.9-.2-1.9-.5-3.8-.8-5.6Z"></path>
  <path class="cls-3" d="m323,107.8c1,5.8,2,11.5,2.9,17.2-2.4.5-2.6.4-2.8-1.9,0-.6,0-1.3-.3-1.9-.2-.5-.8-1-1.2-1.1-1.5-.1-3.1-.1-4.6,0-.5,0-1,.5-1.3.9-.6.8-1.2,1.7-1.5,2.6-.6,1.7-1.8,1.9-3.6,1.5,1.2-2.1,2.3-4.2,3.5-6.2,1.8-3.1,3.6-6.2,5.3-9.3,1.1-1.9,1.1-1.9,3.6-1.8Zm-5.7,9.9h5c-.3-2.3-.7-4.5-1-6.6h-.4c-1.2,2.1-2.3,4.2-3.6,6.6Z"></path>
  <path class="cls-3" d="m232.9,125c3.1-5.5,6.1-10.8,9-16.1.6-1.1,1.5-1.3,2.6-1.3,1.3,0,1,1.1,1.1,1.8.9,5.2,1.8,10.4,2.7,15.6h-2.5c-.2-1.1-.4-2.2-.5-3.2,0-1.4-.6-2.1-2-1.9,0,0-.1,0-.2,0-3.2-.4-5.8.1-6.7,3.8-.4,1.7-1.9,1.6-3.5,1.3Zm11.8-7.3c-.4-2.4-.7-4.6-1.1-6.7-.1,0-.3,0-.4,0-1.2,2.2-2.3,4.3-3.6,6.8h5Z"></path>
  <path class="cls-1" d="m105.3,63.5h16.2c-1,3.2-2,6.2-3.1,9.5-4.4-3.2-8.5-6.2-13.1-9.5Z"></path>
  <path class="cls-3" d="m269,110.1h-5.3c.2-.9.3-1.6.4-2.3h13.3c-.2.8-.3,1.4-.5,2.2-1.2,0-2.3.1-3.4,0-1.7-.2-2.2.6-2.5,2.1-.8,4.3-1.7,8.6-2.6,13h-2.5c1-5,1.9-9.9,2.9-15Z"></path>
  <path class="cls-3" d="m387.2,122.8h8.5c-.1.9-.2,1.5-.4,2.3h-11.1c.6-3.2,1.2-6.3,1.8-9.5.4-2,1-4,1.2-6,.2-1.9,1.1-2.3,2.9-1.7-1,4.9-1.9,9.8-2.9,14.9Z"></path>
  <path class="cls-3" d="m404,107.7c-1,5-1.9,9.9-2.9,15h8.5c-.2,1-.4,1.6-.5,2.4h-11.1c1.1-5.5,2.2-10.9,3.2-16.3.3-1.8,1.5-1.1,2.7-1.1Z"></path>
  <path class="cls-3" d="m253.6,122.8h8.4c-.1.8-.2,1.5-.4,2.3h-11.1c1.1-5.5,2.2-10.9,3.2-16.4.3-1.5,1.4-.9,2.7-1-1,5.1-1.9,10-2.9,15.1Z"></path>
  <path class="cls-3" d="m415.4,107.8h2.5c-.4,2.3-.8,4.6-1.3,6.8-.6,2.9-1.2,5.9-1.7,8.8-.3,1.5-.8,2.3-2.8,1.6,1.1-5.6,2.2-11.3,3.4-17.2Z"></path>
  <path class="cls-2" d="m125.6,51.1c-.5,1.6-1,3.1-1.6,4.8-2.2-1.6-4.2-3-6.6-4.8h8.2Z"></path>
  <path class="cls-2" d="m134.9,50.9h4.1c-.7,2-1.3,3.8-2,6.1-.8-2.2-1.4-4-2.1-6.1Z"></path>
</svg>
