<?xml version="1.0" encoding="UTF-8"?>
<svg xmlns="http://www.w3.org/2000/svg" id="Layer_1" viewBox="0 0 600 145">
  <defs>
    <style>.cls-1{fill:#4a4a4a;}.cls-1,.cls-2{stroke-width:0px;}.cls-2{fill:#6a6a6a;}</style>
  </defs>
  <path class="cls-1" d="m162.1,11.8c-1,5.8-2,11.6-3,17.7-16.5-1.9-30.1,3.1-40.9,16.7,2.5-12,4.9-23.2,7.2-34.4,12.2,0,24.4,0,36.6,0Z"></path>
  <path class="cls-1" d="m167.6,83.8c2.4-16.4-6-26.6-18.8-34.7h46.7c-.9,4-1.7,7.9-2.6,11.7-1.6,6.9-3.2,13.8-4.7,20.8-.3,1.6-.9,2.3-2.6,2.2-5.9-.1-11.8,0-17.9,0Z"></path>
  <path class="cls-1" d="m119.4,83.8h-46.3c.2-.9.3-1.6.4-2.3,2.3-10.1,4.5-20.3,6.9-30.4.2-.8,1.2-1.9,1.8-1.9,5.8-.1,11.7,0,17.6,0,.3,0,.6.2,1,.3-2.4,15.9,5.8,26.1,18.6,34.3Z"></path>
  <path class="cls-1" d="m153,86.4c-2.4,11.3-4.6,22-6.9,32.6-.2,1.2-.6,1.8-2,1.8-11.3,0-22.6,0-33.9,0-.2,0-.5-.1-1.1-.2,1-5.7,1.9-11.4,3-17.3,16.8,2.5,30.2-2.9,40.9-16.7Z"></path>
  <path class="cls-2" d="m245.8,93.9c0,1.7-.3,3.1-.8,4.5-.5,1.3-1.4,2.4-2.5,3.3-1.1.9-2.6,1.6-4.5,2.1-1.8.5-4.1.8-6.7.8h-4.2v9c0,1.2,0,2.1.2,2.8.1.7.4,1.3.9,1.7.5.4,1.1.7,2,.8.9.1,2,.2,3.4.2v1.8h-16.5v-1.8c1.1,0,2-.1,2.6-.3.7-.2,1.2-.4,1.6-.8s.6-.9.8-1.6c.1-.7.2-1.6.2-2.7v-21.8c0-1.1,0-2-.2-2.6-.1-.7-.3-1.2-.7-1.6-.3-.4-.8-.7-1.4-.8-.6-.1-1.4-.2-2.4-.3v-1.8h14.7c4.3,0,7.6.8,10,2.4,2.4,1.6,3.5,3.8,3.5,6.7Zm-18.7,8.3h3.3c3.1,0,5.4-.6,7-1.8,1.5-1.2,2.3-3.2,2.3-5.9s-.6-4.6-1.8-5.7c-1.2-1.1-3.1-1.7-5.6-1.7h-4.3c-.5,0-.8.3-.8.8v14.3Z"></path>
  <path class="cls-2" d="m257.6,113.5c0,1.3,0,2.3,0,3,0,.8.2,1.3.5,1.7.3.4.6.6,1.1.8.5.1,1.2.2,2.1.3v1.6h-12.5v-1.6c.9,0,1.6-.1,2.2-.3.5-.1.9-.4,1.2-.8s.5-.9.5-1.6c0-.7.1-1.6.1-2.8v-5.5c0-2.1,0-3.8,0-5s-.2-2.1-.5-2.6-.7-.9-1.2-1-1.3-.2-2.3-.2v-1.6l8.2-1.8.7,5.8h.2c.4-.9.9-1.8,1.5-2.6.6-.8,1.3-1.4,2-2,.7-.5,1.5-1,2.3-1.3.8-.3,1.6-.5,2.4-.5s1.8.2,2.4.7c.6.5.9,1.1.9,1.9s-.2,1.3-.7,1.8c-.5.4-1.1.6-2,.6s-.9,0-1.3-.2c-.3-.1-.6-.3-.9-.4-.3-.1-.5-.3-.8-.4-.2-.1-.5-.2-.8-.2-.8,0-1.7.5-2.5,1.6s-1.5,2.4-2,4.1c-.3.9-.4,1.9-.6,3.1s-.2,2.3-.2,3.6v1.6Z"></path>
  <path class="cls-2" d="m280.2,113.5c0,1.2,0,2.2.2,2.9.1.7.3,1.3.6,1.7.3.4.7.7,1.3.9.6.2,1.3.3,2.3.3v1.6h-13.5v-1.6c.9,0,1.7-.1,2.3-.3.6-.2,1.1-.5,1.4-.8.3-.4.5-.9.7-1.6.1-.7.2-1.6.2-2.7v-6c0-1.8,0-3.3,0-4.5s-.1-2-.3-2.4c-.2-.7-.5-1.2-1.1-1.5s-1.6-.4-3.2-.4v-1.6l9.2-1.8v17.9Zm-5.4-27.4c0-.8.3-1.5.8-2.1s1.2-.8,2.1-.8,1.5.3,2.1.8c.6.6.8,1.3.8,2.1s-.3,1.5-.8,2.1c-.6.6-1.3.8-2.1.8s-1.5-.3-2.1-.8-.8-1.2-.8-2.1Z"></path>
  <path class="cls-2" d="m300.8,95.7c1.8,0,3.5.3,5.1,1,1.6.6,3,1.5,4.2,2.6,1.2,1.1,2.2,2.5,2.9,4,.7,1.5,1.1,3.2,1.1,5.1s-.4,3.7-1.1,5.3c-.7,1.6-1.7,3-2.9,4.1-1.2,1.2-2.6,2.1-4.2,2.7-1.6.7-3.3,1-5.1,1s-3.4-.3-5-1c-1.6-.6-3-1.5-4.1-2.7-1.2-1.2-2.1-2.5-2.8-4.1-.7-1.6-1-3.4-1-5.3s.3-3.5,1-5.1,1.6-2.9,2.8-4c1.2-1.1,2.6-2,4.1-2.6,1.6-.6,3.2-.9,5-.9Zm0,2.2c-1.2,0-2.2.3-3.2.8-1,.5-1.8,1.2-2.4,2.1-.7.9-1.2,2-1.5,3.3-.4,1.3-.5,2.7-.5,4.3s.2,3.1.5,4.4c.4,1.3.9,2.4,1.5,3.4.7.9,1.5,1.6,2.4,2.1.9.5,2,.8,3.2.8s2.3-.2,3.2-.8c1-.5,1.8-1.2,2.5-2.2.7-.9,1.2-2.1,1.6-3.4.4-1.3.6-2.8.6-4.4s-.2-3-.6-4.3c-.4-1.3-.9-2.4-1.6-3.3-.7-.9-1.5-1.6-2.5-2.2-1-.5-2-.8-3.2-.8Z"></path>
  <path class="cls-2" d="m326.6,113.5c0,1.3,0,2.3,0,3,0,.8.2,1.3.5,1.7.3.4.6.6,1.1.8.5.1,1.2.2,2.1.3v1.6h-12.5v-1.6c.9,0,1.6-.1,2.2-.3.5-.1.9-.4,1.2-.8s.5-.9.5-1.6c0-.7.1-1.6.1-2.8v-5.5c0-2.1,0-3.8,0-5,0-1.2-.2-2.1-.5-2.6s-.7-.9-1.2-1-1.3-.2-2.3-.2v-1.6l8.2-1.8.7,5.8h.2c.4-.9.9-1.8,1.5-2.6.6-.8,1.3-1.4,2-2,.7-.5,1.5-1,2.3-1.3.8-.3,1.6-.5,2.4-.5s1.8.2,2.4.7c.6.5.9,1.1.9,1.9s-.2,1.3-.7,1.8c-.5.4-1.1.6-2,.6s-.9,0-1.3-.2c-.3-.1-.6-.3-.9-.4-.3-.1-.5-.3-.8-.4-.2-.1-.5-.2-.8-.2-.8,0-1.7.5-2.5,1.6s-1.5,2.4-2,4.1c-.3.9-.4,1.9-.6,3.1-.1,1.1-.2,2.3-.2,3.6v1.6Z"></path>
  <path class="cls-2" d="m349.3,113.5c0,1.2,0,2.2.2,2.9.1.7.3,1.3.6,1.7.3.4.7.7,1.3.9.6.2,1.3.3,2.3.3v1.6h-13.5v-1.6c.9,0,1.7-.1,2.3-.3.6-.2,1.1-.5,1.4-.8.3-.4.5-.9.7-1.6.1-.7.2-1.6.2-2.7v-6c0-1.8,0-3.3,0-4.5s-.1-2-.3-2.4c-.2-.7-.5-1.2-1.1-1.5s-1.6-.4-3.2-.4v-1.6l9.2-1.8v17.9Zm-5.4-27.4c0-.8.3-1.5.8-2.1s1.2-.8,2.1-.8,1.5.3,2.1.8c.6.6.8,1.3.8,2.1s-.3,1.5-.8,2.1c-.6.6-1.3.8-2.1.8s-1.5-.3-2.1-.8-.8-1.2-.8-2.1Z"></path>
  <path class="cls-2" d="m356.4,99.1v-1.7c1.7-1,3-1.9,3.9-2.9.9-1,1.7-2.1,2.2-3.5h1.4v5.9h6.3v2.2h-6.3v14.3c0,1.1,0,2,.2,2.8.1.8.3,1.4.5,1.8.3.5.6.8,1,1,.4.2.9.3,1.5.3s1.4-.2,2-.5c.5-.3,1.1-.9,1.6-1.7l1.2.9c-.4,1.2-1.2,2-2.3,2.6-1.1.6-2.4.9-4,.9s-3.6-.5-4.7-1.5c-1.1-1-1.6-2.4-1.6-4.2v-16.6h-2.8Z"></path>
  <path class="cls-2" d="m385.4,128.4c-1.4,3.2-3.7,4.8-6.7,4.8s-3-.7-3-2.2.3-1.4.8-1.7c.5-.4,1.6-.7,3-.9.7,0,1.2-.2,1.7-.4s.9-.4,1.3-.7.7-.6,1-1c.3-.4.6-.9.9-1.5l1.6-3.3-9-19.5c-.4-.9-.8-1.6-1.1-2.1-.3-.5-.6-.9-.9-1.2-.3-.3-.7-.5-1.1-.6s-.9-.2-1.5-.3v-1.6h12.4v1.6c-2.1,0-3.1.5-3.1,1.5s.1,1,.4,1.9c.3.9.6,1.8.9,2.7l5.2,12.5h.2l4.3-10.5c.4-1,.7-1.9,1-2.5.3-.7.5-1.2.6-1.6.1-.4.2-.8.3-1.1s0-.5,0-.8c0-.8-.2-1.4-.7-1.6-.5-.3-1.3-.4-2.6-.4v-1.6h10.3v1.6c-.6,0-1.1,0-1.5.2-.4.2-.8.5-1.2,1.1s-.9,1.3-1.4,2.4-1.1,2.4-1.9,4.2l-10.2,22.7Z"></path>
  <path class="cls-2" d="m446.6,84.9h1.3l.4,10.8h-1.7c-.7-2.8-2-4.9-4-6.5-2-1.6-4.3-2.3-7.1-2.3s-3.6.4-5.1,1.1c-1.5.7-2.8,1.8-3.8,3.2-1,1.4-1.8,3.1-2.4,5.2-.5,2-.8,4.3-.8,6.9,0,5,1,8.9,3.1,11.6,2.1,2.7,5.1,4.1,9.1,4.1,6,0,9.9-3.2,11.6-9.6h1.9v11.7h-1.6l-1.1-3.7c-3.3,2.8-7.3,4.2-11.9,4.2s-5.1-.4-7.2-1.3c-2.1-.8-4-2-5.5-3.6-1.5-1.5-2.7-3.4-3.5-5.6-.8-2.2-1.2-4.7-1.2-7.4s.4-5.4,1.3-7.8c.9-2.3,2.1-4.4,3.7-6,1.6-1.7,3.5-3,5.7-3.9,2.2-.9,4.6-1.4,7.3-1.4s3.6.3,5.3.8c1.7.5,3.5,1.4,5.4,2.6l.8-2.9Z"></path>
  <path class="cls-2" d="m468.2,105.1v-1.9c0-3.8-1.6-5.7-4.9-5.7s-1,0-1.4.1c-.4,0-.7.3-.9.5-.3.2-.5.5-.7.9-.2.4-.4.9-.6,1.5-.3.9-.7,1.5-1,1.8s-.8.4-1.4.4c-1.6,0-2.3-.8-2.3-2.3s.8-2.7,2.4-3.5c1.6-.8,3.9-1.2,6.8-1.2s5.3.6,6.7,1.7c1.3,1.1,2,3,2,5.6v10.5c0,3.6.7,5.3,2.1,5.3s.9,0,1.3-.2c.4-.1.8-.4,1-.9l.7,1.1c-.4.7-1.1,1.3-2.1,1.8-1,.5-2,.7-3.1.7s-2.4-.4-3.1-1.3c-.7-.9-1-2.1-1-3.7h-.2c-.8,1.5-1.9,2.7-3.4,3.6-1.4.9-3,1.3-4.8,1.3s-3.5-.5-4.6-1.5c-1.1-1-1.7-2.3-1.7-4s.1-1.5.4-2.2c.3-.7.7-1.3,1.3-2s1.4-1.2,2.3-1.9c1-.6,2.2-1.2,3.6-1.9l6.8-3Zm0,2c-1.8.7-3.3,1.4-4.5,2-1.2.7-2.2,1.3-3,2s-1.3,1.3-1.6,2-.5,1.3-.5,2c0,1,.3,1.9,1,2.5s1.6,1,2.7,1,1.6-.2,2.3-.6c.7-.4,1.3-1,1.9-1.7.5-.7,1-1.5,1.3-2.5.3-1,.5-2,.5-3v-3.7Z"></path>
  <path class="cls-2" d="m488.2,113.5c0,1.3,0,2.3,0,3,0,.8.2,1.3.5,1.7.3.4.6.6,1.1.8.5.1,1.2.2,2.1.3v1.6h-12.5v-1.6c.9,0,1.6-.1,2.2-.3.5-.1.9-.4,1.2-.8s.5-.9.5-1.6c0-.7.1-1.6.1-2.8v-5.5c0-2.1,0-3.8,0-5s-.2-2.1-.5-2.6-.7-.9-1.2-1-1.3-.2-2.3-.2v-1.6l8.2-1.8.7,5.8h.2c.4-.9.9-1.8,1.5-2.6.6-.8,1.3-1.4,2-2,.7-.5,1.5-1,2.3-1.3.8-.3,1.6-.5,2.4-.5s1.8.2,2.4.7c.6.5.9,1.1.9,1.9s-.2,1.3-.7,1.8c-.5.4-1.1.6-2,.6s-.9,0-1.3-.2c-.3-.1-.6-.3-.9-.4-.3-.1-.5-.3-.8-.4-.2-.1-.5-.2-.8-.2-.8,0-1.7.5-2.5,1.6s-1.5,2.4-2,4.1c-.3.9-.4,1.9-.6,3.1s-.2,2.3-.2,3.6v1.6Z"></path>
  <path class="cls-2" d="m524.2,116.6c-2.7,3.2-6,4.8-9.9,4.8s-3.5-.3-5-.9c-1.5-.6-2.8-1.5-3.9-2.6-1.1-1.1-1.9-2.4-2.5-4-.6-1.5-.9-3.3-.9-5.1s.3-3.7.9-5.3c.6-1.6,1.5-3,2.6-4.2,1.1-1.2,2.5-2.1,4.1-2.7,1.6-.7,3.3-1,5.2-1,3,0,5.4.8,7,2.5,1.7,1.6,2.5,4,2.5,7.1s0,.7-.3.8-.6.1-1.2.1h-15.4c0,.3-.1.6-.1.9s0,.8,0,1.2c0,1.6.2,3.1.6,4.4.4,1.3,1,2.5,1.7,3.4.7.9,1.6,1.7,2.6,2.2,1,.5,2.1.8,3.4.8s2.5-.3,3.7-.9c1.1-.6,2.3-1.5,3.5-2.8l1.5,1.3Zm-7.7-12.7c.6,0,1.1,0,1.5,0,.4,0,.7,0,.8-.2s.3-.2.4-.4c0-.2,0-.4,0-.7,0-1.4-.5-2.6-1.4-3.4-.9-.9-2.2-1.3-3.8-1.3-3.4,0-5.5,2-6.3,6h8.6Z"></path>
  <path class="cls-1" d="m254.9,52.8h-20.4c-.9,2.1-1.6,3.9-2.2,5.5-.6,1.6-1.1,3-1.5,4.2s-.6,2.2-.8,3c-.2.8-.2,1.5-.2,2,0,1.4.5,2.4,1.4,2.9.9.5,2.4.8,4.6.8v2.9h-18.6v-2.9c1.2-.2,2.2-.4,3-.6s1.6-.6,2.2-1.1c.6-.5,1.2-1.1,1.7-1.8.5-.7,1-1.6,1.4-2.7l19.9-49.8h3.3l17.4,43.1c1.2,2.9,2.2,5.1,3.1,6.8.9,1.7,1.7,3,2.5,3.9.8.9,1.7,1.4,2.6,1.7.9.3,2.1.4,3.4.4v3h-24.9v-3c2.7,0,4.6-.3,5.6-.8,1-.5,1.5-1.4,1.5-2.5s0-1,0-1.4c0-.4-.1-.9-.3-1.4-.1-.5-.3-1.1-.5-1.7-.2-.6-.5-1.4-.9-2.3l-3.1-8.3Zm-18.9-3.8h17.4l-8.5-22.6-8.9,22.6Z"></path>
  <path class="cls-1" d="m293.6,62c0,2.1,0,3.7.2,5,.1,1.2.4,2.2.8,2.8.4.6,1.1,1.1,1.9,1.3.8.2,2,.4,3.4.5v2.7h-20.3v-2.7c1.5,0,2.7-.2,3.5-.4.9-.2,1.5-.6,2-1.3s.8-1.5.9-2.6c.1-1.1.2-2.7.2-4.6v-8.9c0-3.5,0-6.2-.1-8.1,0-1.9-.3-3.4-.8-4.3-.4-.9-1.1-1.5-2-1.6-.9-.2-2.2-.3-3.8-.3v-2.7l13.4-2.9,1.1,9.5h.3c.7-1.5,1.5-2.9,2.5-4.2,1-1.3,2.1-2.4,3.3-3.2,1.2-.9,2.4-1.6,3.7-2.1,1.3-.5,2.6-.8,3.9-.8s2.9.4,3.9,1.2c.9.8,1.4,1.8,1.4,3.2s-.4,2.2-1.1,2.9c-.8.7-1.9,1-3.3,1s-1.5-.1-2.1-.3c-.6-.2-1.1-.4-1.5-.7-.4-.2-.8-.4-1.2-.6-.4-.2-.8-.3-1.3-.3-1.4,0-2.8.9-4.1,2.6-1.4,1.8-2.4,4-3.2,6.7-.4,1.5-.7,3.1-1,5-.2,1.9-.3,3.8-.3,5.9v2.6Z"></path>
  <path class="cls-1" d="m330.5,62c0,2,0,3.6.3,4.8.2,1.2.5,2.1,1,2.8.5.7,1.2,1.2,2.1,1.4.9.3,2.1.4,3.7.5v2.7h-21.9v-2.7c1.5,0,2.8-.2,3.7-.5,1-.3,1.7-.7,2.3-1.4.5-.6.9-1.5,1.1-2.7.2-1.1.3-2.6.3-4.4v-9.8c0-3,0-5.4-.1-7.3,0-1.9-.2-3.2-.4-3.9-.3-1.2-.8-2-1.8-2.4-.9-.4-2.7-.6-5.2-.6v-2.7l15-2.9v29.1Zm-8.8-44.7c0-1.3.5-2.4,1.4-3.4.9-.9,2-1.4,3.4-1.4s2.4.5,3.4,1.4c.9.9,1.4,2,1.4,3.4s-.5,2.4-1.4,3.4c-.9.9-2,1.4-3.4,1.4s-2.4-.5-3.4-1.4c-.9-.9-1.4-2-1.4-3.4Z"></path>
  <path class="cls-1" d="m377.2,74.1h-36.7v-.3l26.5-37h-8.5c-2.2,0-4,0-5.4.3-1.4.2-2.6.5-3.4,1.1-.9.5-1.6,1.3-2,2.2-.5.9-.8,2.2-1.1,3.8h-2.4l1.2-10.6h32.9v.3l-26.1,36.7h8.9c2.6,0,4.8-.1,6.5-.3,1.7-.2,3.1-.6,4.2-1.2,1.1-.6,2-1.5,2.6-2.5.6-1.1,1.2-2.5,1.6-4.3h2.5l-1.3,11.9Z"></path>
  <path class="cls-1" d="m406.6,32.8c2.9,0,5.7.5,8.3,1.6,2.6,1,4.9,2.5,6.8,4.3,2,1.8,3.5,4,4.7,6.5,1.1,2.5,1.7,5.3,1.7,8.3s-.6,6-1.7,8.6c-1.1,2.6-2.7,4.8-4.7,6.7-2,1.9-4.2,3.4-6.8,4.4-2.6,1.1-5.4,1.6-8.3,1.6s-5.6-.5-8.1-1.6c-2.6-1-4.8-2.5-6.8-4.4-1.9-1.9-3.5-4.1-4.6-6.8-1.1-2.6-1.7-5.5-1.7-8.6s.6-5.8,1.7-8.3c1.1-2.5,2.7-4.7,4.6-6.6,1.9-1.8,4.2-3.3,6.8-4.3,2.6-1,5.3-1.5,8.1-1.5Zm0,3.7c-1.9,0-3.6.4-5.2,1.2-1.6.8-2.9,2-4,3.5-1.1,1.5-1.9,3.3-2.5,5.4-.6,2.1-.9,4.4-.9,7s.3,5,.9,7.2c.6,2.1,1.4,4,2.5,5.5,1.1,1.5,2.4,2.7,3.9,3.5,1.5.8,3.3,1.2,5.2,1.2s3.7-.4,5.3-1.2c1.6-.8,2.9-2,4.1-3.5,1.1-1.5,2-3.4,2.6-5.5.6-2.1.9-4.5.9-7.1s-.3-4.9-.9-7c-.6-2.1-1.5-3.9-2.6-5.4-1.1-1.5-2.5-2.7-4.1-3.5-1.6-.8-3.3-1.3-5.3-1.3Z"></path>
  <path class="cls-1" d="m448.3,62.1c0,2.1,0,3.7.2,4.9.1,1.2.4,2.1.8,2.8.4.6,1.1,1.1,1.9,1.3.8.2,2,.4,3.5.5v2.6h-20v-2.6c1.4-.1,2.6-.3,3.4-.5.8-.2,1.5-.6,2-1.2.5-.6.8-1.5.9-2.6.1-1.1.2-2.6.2-4.6v-10.2c0-6.1-.2-9.8-.5-11.1-.2-.7-.3-1.2-.6-1.6-.2-.4-.6-.8-1-1-.5-.2-1-.4-1.8-.5-.7,0-1.6-.1-2.8-.1v-2.4l12.2-2.9.9,7.6h.3c1.9-2.4,4.2-4.3,6.8-5.6,2.6-1.3,5.4-2,8.5-2s4.5.4,6.4,1.1c1.9.8,3.4,1.8,4.4,3.1.9,1.2,1.5,2.7,1.8,4.5.4,1.9.5,4.4.5,7.7v12.8c0,2.1,0,3.7.2,4.9.1,1.2.4,2.1.8,2.8.4.6,1,1.1,1.9,1.3.8.2,2,.4,3.3.5v2.6h-19.8v-2.6c1.4,0,2.6-.2,3.4-.4.8-.2,1.5-.6,1.9-1.3.4-.6.7-1.5.8-2.6.1-1.1.2-2.7.2-4.5v-10.1c0-2.9-.2-5.4-.5-7.3-.3-2-.8-3.6-1.5-4.8s-1.6-2.1-2.7-2.6c-1.1-.5-2.5-.8-4.1-.8-2.3,0-4.4.6-6.3,1.8-1.9,1.2-3.4,2.8-4.5,4.9-.3.5-.5,1-.6,1.5-.2.5-.3,1-.4,1.6-.1.6-.2,1.3-.2,2.1,0,.8,0,1.8,0,3v10.2Z"></path>
  <path class="cls-1" d="m511.2,48.2v-3.1c0-6.2-2.7-9.3-8-9.3s-1.6,0-2.2.2-1.1.4-1.5.8c-.4.4-.8.9-1.1,1.5-.3.7-.6,1.5-1,2.4-.6,1.5-1.1,2.5-1.6,2.9-.5.5-1.3.7-2.3.7-2.6,0-3.8-1.3-3.8-3.8s1.3-4.3,3.9-5.7c2.6-1.4,6.3-2,11.1-2s8.7.9,10.9,2.7,3.2,4.9,3.2,9.2v17.1c0,5.8,1.1,8.7,3.4,8.7s1.4,0,2.1-.3c.7-.2,1.2-.6,1.7-1.4l1.1,1.8c-.6,1.2-1.7,2.2-3.4,2.9-1.6.8-3.3,1.2-5.1,1.2s-3.9-.7-5-2.1c-1.1-1.4-1.6-3.4-1.6-6h-.4c-1.3,2.5-3.2,4.5-5.5,5.9-2.3,1.5-4.9,2.2-7.8,2.2s-5.7-.8-7.6-2.4c-1.8-1.6-2.8-3.8-2.8-6.6s.2-2.4.6-3.5c.4-1.1,1.1-2.2,2.1-3.2,1-1,2.2-2,3.8-3,1.6-1,3.5-2,5.8-3l11-4.8Zm0,3.3c-2.9,1.1-5.4,2.2-7.4,3.3-2,1.1-3.6,2.1-4.9,3.2-1.2,1.1-2.1,2.1-2.6,3.2-.5,1.1-.8,2.2-.8,3.3,0,1.7.6,3.1,1.7,4.1,1.1,1.1,2.6,1.6,4.4,1.6s2.6-.3,3.7-1c1.1-.7,2.2-1.6,3-2.7.9-1.1,1.6-2.5,2.1-4.1.5-1.6.8-3.2.8-4.9v-6Z"></path>
</svg>
