<?xml version="1.0" encoding="UTF-8"?>
<svg xmlns="http://www.w3.org/2000/svg" id="Layer_1" viewBox="0 0 508.2 257.7">
  <defs>
    <style>.cls-1{fill:none;}.cls-1,.cls-2,.cls-3,.cls-4,.cls-5{stroke-width:0px;}.cls-2{fill:#4b4b4b;}.cls-3{fill:#353535;}.cls-4{fill:#545454;}.cls-5{fill:#fff;}</style>
  </defs>
  <path class="cls-3" d="m377.9,151.2l69.7,46.4-30.7-73.1,64.4-53.6h-78.8L377.9,2.5l-22.6,68.3h-12.2L318.5,2.5l-22.8,68.3h-11.2L259.9,2.5l-22.4,67.2,12.4,6.2,10.6-40,13.2,48h52.9l-47.1,34.6,22.2,46.1-41.8-28.5v15.3l69.7,46.4-30.7-73.1,48.8-40.6h37.5l-47.1,34.6,22.2,46-41.8-28.5v15.3s69.7,46.4,69.7,46.4l-30.7-73.1,48.8-40.6h38.3l-47.1,34.5,22.2,46-41.8-28.5v15.3Zm-67.9-80.3l9.2-34.9,9.6,34.9h-18.8Zm59.4,0l9.2-34.9,9.6,34.9h-18.8Z"></path>
  <polygon class="cls-1" points="26.9 60.5 27.2 60.3 26.9 60.5 26.9 60.5"></polygon>
  <polygon class="cls-1" points="16.9 102.3 16.6 102.5 16.6 102.5 16.9 102.3"></polygon>
  <polygon class="cls-1" points="7 143.7 6.7 143.9 6.7 143.9 7 143.7"></polygon>
  <path class="cls-2" d="m239.4,62.9c-11.5-4.7-27.7-9.4-46.9-9.4-17.8,0-38.3,4.1-59.4,15.9-23.8,13.3-42.5,17.8-57.1,17.8s-16.6-1.7-22.8-4.3c-7.7-3.2-14.6-8.1-20.1-14.4-1.7-1.9-3.2-3.9-4.6-6-.5-.8-.8-1.3-1-1.7-.1-.2-.2-.3-.2-.4h0c0,0-.3.1-.3.1l-4.7,14.5c2.3,2.9,4.9,5.5,7.7,8,5.5,4.8,11.8,8.7,18.6,11.5,7.7,3.1,16.8,5.2,27.5,5.2h0c17.2,0,38-5.3,63.2-19.4,19.2-10.7,37.3-14.3,53.3-14.3,17.2,0,31.9,4.2,42.2,8.5,4.1,1.7,8.1,3.6,12,5.8.7.4,1.3.7,1.8,1.1l3.3-12.4c-4-2.2-8.2-4.2-12.5-5.9Z"></path>
  <path class="cls-4" d="m27.2,60.3h0l-.3.2h0s.3-.2.3-.2Z"></path>
  <polygon class="cls-5" points="26.9 60.5 26.9 60.5 25.6 61.1 26.9 60.5"></polygon>
  <path class="cls-2" d="m229.1,104.9c-11.5-4.7-27.7-9.4-46.9-9.4-17.8,0-38.3,4.1-59.4,15.9-23.8,13.3-42.5,17.8-57.1,17.8s-16.6-1.7-22.8-4.3c-7.7-3.2-14.6-8.1-20.1-14.4-1.7-1.9-3.2-3.9-4.6-6-.5-.8-.8-1.3-1-1.7-.1-.2-.2-.3-.2-.4h0c0,0-.3,0-.3,0h0s.3-.1.3-.1l-.3.2-4.7,14.4c2.3,2.9,4.9,5.5,7.7,8,5.5,4.8,11.8,8.7,18.6,11.5,7.7,3.1,16.8,5.2,27.5,5.2h0c17.2,0,38-5.3,63.2-19.4,19.2-10.7,37.3-14.3,53.3-14.3,17.2,0,31.9,4.2,42.2,8.5,4.1,1.7,8.1,3.6,12,5.8.7.4,1.3.7,1.8,1.1l3.3-12.4c-4-2.2-8.2-4.2-12.4-5.9Z"></path>
  <polygon class="cls-5" points="16.6 102.5 16.6 102.5 15.2 103.1 16.6 102.5"></polygon>
  <path class="cls-2" d="m219.2,146.3c-11.5-4.7-27.7-9.4-46.9-9.4s-38.3,4.1-59.4,15.9c-23.8,13.3-42.5,17.8-57.1,17.8s-16.6-1.7-22.8-4.3c-7.7-3.2-14.6-8.1-20.1-14.4-1.7-1.9-3.2-3.9-4.6-6-.5-.8-.8-1.3-1-1.7-.1-.2-.2-.3-.2-.4h0c0,0-.3,0-.3,0h0s.3-.1.3-.1l-.3.2-4.7,14.5c2.3,2.9,4.9,5.5,7.7,8,5.5,4.8,11.8,8.7,18.6,11.5,7.7,3.1,16.8,5.2,27.5,5.2h0c17.2,0,38-5.3,63.2-19.4,19.2-10.7,37.3-14.3,53.3-14.3,17.2,0,31.9,4.2,42.2,8.5,4.1,1.7,8.1,3.6,12,5.8.7.4,1.3.7,1.8,1.1l3.3-12.4c-4-2.2-8.2-4.2-12.4-5.9Z"></path>
  <polygon class="cls-5" points="6.7 143.9 6.7 143.9 5.3 144.5 6.7 143.9"></polygon>
  <polygon class="cls-2" points="20.8 255.1 12.3 255.1 12.3 229.4 5.2 229.4 5.2 222.1 27.9 222.1 27.9 229.4 20.8 229.4 20.8 255.1"></polygon>
  <path class="cls-2" d="m111.9,254.7h-10.7l-8.1-12.7h0v12.7h-8.6v-33h12.8c6.5,0,11.5,3.1,11.5,10.1s-2.5,8.5-7.2,9.3l10.4,13.5Zm-18.9-18.2h.8c2.8,0,5.9-.5,5.9-4.1s-3.1-4.1-5.9-4.1h-.8v8.2Z"></path>
  <rect class="cls-2" x="160.9" y="221.7" width="8.6" height="33"></rect>
  <path class="cls-2" d="m246.4,232.3c-1.8-2.3-4.6-3.7-7.5-3.6-5.2,0-8.8,4-8.8,9.1s3.6,9,8.9,9c2.9,0,5.6-1.3,7.4-3.5v10.3c-2.8.9-4.9,1.5-7.6,1.5-4.6,0-9-1.7-12.4-4.9-3.6-3.3-5.3-7.6-5.3-12.5,0-4.5,1.7-8.8,4.9-12.1,3.3-3.4,7.8-5.3,12.6-5.3,2.7,0,5.4.6,7.8,1.7v10.3Z"></path>
  <path class="cls-2" d="m309.9,249.4l-2.3,5.7h-9.1l12.7-33h9.4l12.4,33h-9.1l-2.1-5.7h-11.8Zm6-17.1h0l-3.5,10.5h7.1l-3.5-10.5Z"></path>
  <path class="cls-2" d="m410.9,254.7h-10.7l-8.1-12.7h0v12.7h-8.6v-33h12.8c6.5,0,11.5,3.1,11.5,10.1s-2.5,8.5-7.2,9.3l10.4,13.5Zm-18.8-18.2h.8c2.8,0,5.9-.5,5.9-4.1s-3.1-4.1-5.9-4.1h-.8v8.2Z"></path>
  <polygon class="cls-2" points="471.4 229 471.4 234.5 481 234.5 481 241.7 471.4 241.7 471.4 247.4 481.6 247.4 481.6 254.7 462.8 254.7 462.8 221.7 481.6 221.7 481.6 229 471.4 229"></polygon>
  <path class="cls-2" d="m497.9,221.3c1.5,0,2.9.4,4.1,1.1,1.3.7,2.4,1.8,3.1,3.1,1.5,2.6,1.5,5.8,0,8.4-.7,1.3-1.8,2.4-3.1,3.1-2.6,1.5-5.8,1.5-8.4,0-1.3-.7-2.4-1.8-3.1-3.1-1.5-2.6-1.5-5.8,0-8.4.7-1.3,1.8-2.4,3.1-3.1,1.3-.7,2.7-1.1,4.1-1.1m0,1.4c-1.2,0-2.4.3-3.4.9-1.1.6-2,1.5-2.6,2.6-1.3,2.2-1.3,4.8,0,7,.6,1.1,1.5,2,2.6,2.6,2.2,1.2,4.8,1.2,7,0,1.1-.6,2-1.5,2.6-2.6,1.2-2.2,1.2-4.8,0-7-.6-1.1-1.5-2-2.6-2.6-1.1-.6-2.2-.9-3.4-.9m-3.7,11.6v-9h3.1c.8,0,1.6,0,2.3.2.5.2.9.5,1.1.9.3.4.4.9.4,1.3,0,.6-.3,1.3-.7,1.7-.5.5-1.2.8-1.9.8.3.1.5.3.8.5.5.5,1,1.1,1.3,1.8l1.1,1.8h-1.8l-.8-1.4c-.6-1.1-1.1-1.8-1.5-2.1-.3-.2-.8-.3-1.2-.3h-.9v3.8h-1.4Zm1.5-5.1h1.8c.8,0,1.4-.1,1.7-.4.5-.4.6-1.2.2-1.7-.2-.2-.4-.4-.6-.5-.5-.1-1-.2-1.5-.2h-1.7v2.7Z"></path>
</svg>
