<?xml version="1.0" encoding="UTF-8"?>
<svg xmlns="http://www.w3.org/2000/svg" xmlns:xlink="http://www.w3.org/1999/xlink" id="Group_126" data-name="Group 126" width="490.632" height="119.78" viewBox="0 0 490.632 119.78">
  <defs>
    <clipPath id="clip-path">
      <rect id="Rectangle_78" data-name="Rectangle 78" width="490.632" height="119.78" fill="none"></rect>
    </clipPath>
  </defs>
  <path id="Path_66" data-name="Path 66" d="M112.8,75.18v-48.2h33.192V30.1H116.468V49.246H141.54v2.988H116.468V75.18Z" transform="translate(58.289 13.941)" fill="#5d5f62"></path>
  <g id="Group_122" data-name="Group 122" transform="translate(0 0)">
    <g id="Group_121" data-name="Group 121" clip-path="url(#clip-path)">
      <path id="Path_67" data-name="Path 67" d="M178.288,75.636a22.1,22.1,0,0,1-9.7-2.105,24.873,24.873,0,0,1-7.543-5.5,24.32,24.32,0,0,1-4.885-7.808,24.591,24.591,0,0,1-1.725-9.028,23.837,23.837,0,0,1,1.834-9.234,25.537,25.537,0,0,1,5.028-7.808,23.992,23.992,0,0,1,7.578-5.4,22.549,22.549,0,0,1,9.483-2,22.054,22.054,0,0,1,9.736,2.137,24.311,24.311,0,0,1,7.541,5.6,25.581,25.581,0,0,1,4.851,7.842,24.107,24.107,0,0,1-.108,18.158,25.2,25.2,0,0,1-5.03,7.775,24.254,24.254,0,0,1-7.578,5.365,22.554,22.554,0,0,1-9.483,2M158.1,51.2a22.071,22.071,0,0,0,1.473,7.977,21.321,21.321,0,0,0,4.166,6.789,20.394,20.394,0,0,0,6.431,4.719,18.886,18.886,0,0,0,8.189,1.765,18.435,18.435,0,0,0,8.3-1.834,20.079,20.079,0,0,0,6.323-4.854,22.427,22.427,0,0,0,4.059-6.822,21.928,21.928,0,0,0-4.274-22.507,20.726,20.726,0,0,0-6.358-4.72,18.321,18.321,0,0,0-8.048-1.762,18.662,18.662,0,0,0-8.333,1.831,20.391,20.391,0,0,0-6.395,4.855,22.07,22.07,0,0,0-4.094,6.824A21.724,21.724,0,0,0,158.1,51.2" transform="translate(79.803 13.826)" fill="#5d5f62"></path>
      <path id="Path_68" data-name="Path 68" d="M209,75.181v-48.2h21.19a13.788,13.788,0,0,1,5.962,1.289,15.162,15.162,0,0,1,4.708,3.428,16.22,16.22,0,0,1,3.088,4.82,13.978,13.978,0,0,1,1.115,5.4,15.5,15.5,0,0,1-.863,5.125,14.836,14.836,0,0,1-2.443,4.446,13.5,13.5,0,0,1-3.807,3.259,13.8,13.8,0,0,1-4.884,1.7l12.716,18.739h-4.241l-12.355-18.2H212.663v18.2Zm3.663-21.388H230.55A9.681,9.681,0,0,0,235,52.776a11.2,11.2,0,0,0,3.451-2.682,11.752,11.752,0,0,0,2.192-3.8,13.135,13.135,0,0,0,.755-4.377,11.434,11.434,0,0,0-.9-4.449,12.407,12.407,0,0,0-2.443-3.768,12.236,12.236,0,0,0-3.592-2.615,10.075,10.075,0,0,0-4.417-.983H212.663Z" transform="translate(107.999 13.941)" fill="#5d5f62"></path>
      <path id="Path_69" data-name="Path 69" d="M293.266,30.1h-18.68V75.18h-3.664V30.1H252.243V26.978h41.023Z" transform="translate(130.344 13.941)" fill="#5d5f62"></path>
      <path id="Path_70" data-name="Path 70" d="M335.054,72.058v3.123H301.075v-48.2h33.333V30.1H304.739V49.043h25.933v2.985H304.739v20.03Z" transform="translate(155.577 13.941)" fill="#5d5f62"></path>
      <path id="Path_71" data-name="Path 71" d="M117.538,66.151c.018-.49.058-1.089-.093-.975a2.994,2.994,0,0,0-.369,1.379c-.137.752-.281,1.485-.479,1.526-.124.026-.127-.384-.085-.89.018-.217.038-.435.064-.645s.035-.416.065-.605a2.247,2.247,0,0,1,.291-.918l.05-.828c.015-.278.041-.552.038-.83-.038-.393-.091-.743-.111-1.185a10.728,10.728,0,0,0-.109-1.244,1.5,1.5,0,0,0-.206-.62c-.162-.22-.35-.068-.567.37l-.008.03c-.2,1.8-.164,1.59-.428.777-.141-.432-.356-.909-.669.293-.149.57-.3,1.182-.47,1.641-.188.458-.376.767-.558.746-.029-.672-.17-.769-.335-.733a.168.168,0,0,0-.089.023c-.273,1.634-.472,1.957-.651,1.9s-.335-.482-.523-.376v.1a5.267,5.267,0,0,1-.231.877,3.288,3.288,0,0,1-.282.572,8.982,8.982,0,0,1-.308,1.445q-.048.162-.1.319c-.033.106-.073.209-.109.314-.074.211-.147.425-.214.652l-.135.989.341.356.2.056.393-.846.143-.03q-.123.626-.244,1.251c-.1.413-.206.821-.311,1.229s-.214.811-.325,1.212c-.052.2-.124.4-.19.592s-.137.387-.2.579a17.621,17.621,0,0,1-.91,2.205q-.257.521-.531,1.01c-.091.162-.184.323-.278.481s-.2.3-.3.453l-.2.41-.466.881c-.158.293-.3.59-.478.872v0l-.322.364-.32.376a9.043,9.043,0,0,1,1.414-2.625c-.083-.1,0-.494.053-.83s.03-.625-.2-.5c-.352.185.282-1.171.629-1.938a19.4,19.4,0,0,1,.5-2.477c.065-.214.111-.438.173-.661s.127-.455.2-.689.153-.472.241-.716l.138-.37c.024-.062.049-.124.073-.188s.044-.129.067-.193c.144-.42.281-.9.414-1.4.065-.249.132-.5.2-.751s.111-.505.17-.751c-.187.014-.312-.1-.331-.463a3.686,3.686,0,0,1,.058-.746c.044-.323.147-.719.232-1.219.068-.356.121-.742.17-1.135l.073-.593c.021-.2.053-.394.065-.59.077-.68.083-1.568.323-1.782a3.478,3.478,0,0,0-.038-.717c-.038-.161-.091-.229-.158-.168-.315.284-.249-.683-.228-1.521-.185-1.022-.413-1.194-.692-.408-.032,1.441-.2,1.846-.479,1.558a2.53,2.53,0,0,0-.1.508,6.384,6.384,0,0,0-.061.646c-.032.6-.108,1.25-.132,1.837a3.381,3.381,0,0,0,.1,1.483,2.5,2.5,0,0,1-.038,1.034c-.082.449-.214.949-.264,1.356-.082.441-.147.889-.235,1.332l-.3,1.318c-.053.218-.106.435-.159.652l-.082.325c-.032.106-.068.211-.1.317-.138.42-.285.834-.443,1.238-.126.3-.241.6-.375.889l-.416.872c-.252.67-.535,1.25-.595.924-.089-.484-.511.325-.736.315l-.332.825a2.327,2.327,0,0,1-.135.8,1.236,1.236,0,0,1-.443.6c-.118-.1-.406.329-.636.579l-.356.793a11.185,11.185,0,0,1-.554,1.312q-.3.639-.632,1.25c-.24.4-.488.783-.742,1.163-.127.19-.256.378-.384.566-.065.093-.127.187-.2.278l-.211.265a1.406,1.406,0,0,1-.61.934l-.387.432-.194.215-.2.206c-.2.335-.34.642-.505.962-.082.159-.171.323-.278.494a3.516,3.516,0,0,1-.4.538,8.465,8.465,0,0,1-.892,1.151c-.162.177-.315.363-.479.538s-.325.358-.475.552l-.249-.346a5.12,5.12,0,0,0,.359-.651c.056-.17.032-.25-.155-.149-.394.194-.7.745-1.022,1.162a3.464,3.464,0,0,1-1.359,1.171,8.37,8.37,0,0,0-.763.834,2.52,2.52,0,0,0-.423.673,1.66,1.66,0,0,1,.7-.261.316.316,0,0,1,.306.161l.056.1-.056-.1c-.326.326-.67.634-1,.951-.068-.068-.2-.05-.387.053a2.783,2.783,0,0,0-.331.221c-.127.094-.264.22-.432.349l-.384.124-.775.6a.136.136,0,0,1,.064.08l-1.806,1.423a14.193,14.193,0,0,1-1.878,1.3c-.25.171-.5.353-.752.516l-.775.482a3.7,3.7,0,0,1-1.189.743,5.973,5.973,0,0,0-1.163.5c-.187.149-.361.278-.52.384-.08.053-.156.1-.231.143s-.146.07-.212.1a.735.735,0,0,1-.616.047l-.534.27a3.318,3.318,0,0,1-.857.707,12.222,12.222,0,0,0-1.08.7.448.448,0,0,0-.059.326.448.448,0,0,1,.059-.326l-.825.353a.408.408,0,0,0,0-.1,2.052,2.052,0,0,1-.728.114,2.041,2.041,0,0,0,.727-.114l-.094-.271c-.268.1-.54.2-.808.3l-.857.3c-.214.1-.423.2-.64.291l-.651.259h.05l-.805.343c-.271.093-.538.2-.814.281l-.561.268c-.267-.185-.854-.08-1.517.1-.667.149-1.418.344-1.985.4-.008.135.259.218.332.337.038.061.024.129-.1.218a1.645,1.645,0,0,1-.278.152c-.062.027-.133.058-.215.089s-.174.055-.278.085l-.437-.071c-.258.017-.516.035-.774.053-.112.041-.174.08-.187.117l.027.188-.455.082c-.152.029-.3.056-.458.073l-1.817.3-.417-.164-.473.017a10.622,10.622,0,0,0-1.574.513c.6.094.494.317.981.457-.487-.14-.381-.363-.981-.457-.147.07-.293.147-.441.211a11.25,11.25,0,0,1-1.166.564,11.25,11.25,0,0,0,1.166-.564c-1.471-.127,0-.394-.3-.578a3.863,3.863,0,0,0-1.342.12L60.2,105.9c-.217,0-.434-.026-.649-.036l-.526-.017-.9-.032-.45-.015c-.152,0-.3-.024-.45-.035.015-.1.032-.2.047-.294-.546.029-.52.146-.449.268-.472.059-.905.155-1.42.187a3.515,3.515,0,0,1-.839-.044,7.038,7.038,0,0,1-1.033-.24h0a.108.108,0,0,0-.041-.1l-.8-.089c-.261-.041-.52-.079-.777-.111-.51-.065-1-.109-1.458-.124a4.407,4.407,0,0,1-2.007-.585,2.717,2.717,0,0,1-1-.493A8.879,8.879,0,0,0,46,103.605c-.094.083-.14.194-.337.228a1.325,1.325,0,0,1-.435-.021,1.325,1.325,0,0,0,.435.021c.2-.033.243-.146.337-.228-.152-.042-.3-.1-.449-.15l-.446-.161-.8-.282a2.041,2.041,0,0,1-.271-.076.959.959,0,0,1-.244,0,1.956,1.956,0,0,1-.287-.024c-.1-.02-.2-.044-.315-.073-.218-.058-.454-.132-.695-.212l-.728-.241c-.24-.079-.479-.141-.695-.211-.6-.173-.711-.413-.758-.564-.4-.162-.813-.328-1.209-.5a11.475,11.475,0,0,0-1.15-.469.754.754,0,0,1-.4.089,1.589,1.589,0,0,1-.364-.068,3.047,3.047,0,0,1-.555-.223l-.564-.162c-.135.109-.009.264.24.431-.249-.167-.375-.322-.241-.431.038-.188-.328-.478-1.012-.843-.118-.138-.229-.287-.34-.435l-.983-.877a3.006,3.006,0,0,1-.291-.238l-.285-.2-.276-.212-.552-.425c-.376-.267-.708-.543-1.04-.827a9.9,9.9,0,0,0-1.044-.863c-.133-.055-.369-.14-.39-.161-.331-.32-.681-.676-1.063-1.019-.19-.171-.385-.344-.582-.516s-.4-.338-.584-.525a10.074,10.074,0,0,1-1.884-2.178c-1-1.03-1.022-1.26-.384-.968-.124-.135-.252-.27-.372-.41s-.235-.282-.352-.413a3.105,3.105,0,0,0-.714-.623,3.9,3.9,0,0,0-.485-.164,1.043,1.043,0,0,1-.308-.22,4.255,4.255,0,0,1-.437-.558c-.657-.96-.259-.862-.14-1.031-.372-.464-.693-.965-1.03-1.453l-.5-.734-.126-.182-.115-.191-.232-.379c-.206-.25-.4-.526-.595-.813l-.285-.435c-.1-.147-.174-.3-.262-.455-.171-.306-.344-.61-.523-.9-.091-.146-.182-.288-.276-.425s-.19-.271-.282-.4L18,80.135a.31.31,0,0,0-.088.156A.322.322,0,0,1,18,80.134l-.61-1.169c-.1-.2-.206-.388-.3-.585l-.275-.6a3.24,3.24,0,0,1-.543-.684,2.154,2.154,0,0,1-.1-.214,2.154,2.154,0,0,0,.1.214,3.24,3.24,0,0,0,.543.684c-.171-.614-.217-.962.241-.258l.039-.18c-.221-.431-.46-.855-.672-1.292L15.941,74.8a2.888,2.888,0,0,1-.208-.587c-.071-.211-.123-.352-.188-.127-.021.089.094.507.046.616-.07-.208-.156-.416-.234-.629s-.143-.431-.212-.643a6.81,6.81,0,0,1-.3-1.232l.211-.056c-.061-.293-.093-.592-.132-.89l.071-.058a1.583,1.583,0,0,1-.319-.734,2.279,2.279,0,0,1-.152-.989,2.6,2.6,0,0,0,.068-.669,5.684,5.684,0,0,0-.449-.783,2.965,2.965,0,0,1-.356-1.338l-.12-.593-.184-.411-.05-.454-.073-.218-.062-.22-.123-.441a11.588,11.588,0,0,1-.369-1.315c-.024-.108-.046-.215-.067-.323s-.027-.215-.039-.322c-.02-.214-.035-.426-.044-.637a11.63,11.63,0,0,1,.014-1.241c.006-.1.012-.2.024-.3s.03-.2.047-.3c.033-.2.071-.4.112-.593a2.61,2.61,0,0,1-.258-1.253,3.961,3.961,0,0,1,.067-.7c.038-.237.083-.475.127-.713A7.463,7.463,0,0,0,12.9,55.4c-.171-.085-.343-.12-.323-1.072l-.347-.613a5.865,5.865,0,0,1-.441.769,5.865,5.865,0,0,0,.441-.769c.032-.329.049-.661.083-.986a8.588,8.588,0,0,0,.061-.951,6.84,6.84,0,0,1-.273.763,6.84,6.84,0,0,0,.273-.763c.046-.449.132-.884.209-1.321a8.119,8.119,0,0,0,.224-1.33c.041-.2.079-.414.115-.629s.068-.434.12-.649c.094-.432.187-.866.29-1.268a3.153,3.153,0,0,1,.872-1.752c.021-.014.147-.531.224-.814-.158.058-.167-.235-.121-.593A6.531,6.531,0,0,0,14.43,42.4l.2-.473a1.45,1.45,0,0,1,.262-.778l.444-.8a.383.383,0,0,1,.129-.155c.174-.532.326-1.077.537-1.6.058-.126.117-.252.176-.375.08-.473.146-.928.221-1.4.023-.115.049-.232.074-.349-.026.117-.052.234-.074.349-.076.472-.141.927-.221,1.4a73.84,73.84,0,0,1,5.131-8.685c.164-.249.325-.5.507-.734.256-.247.508-.511.758-.787.124-.138.249-.279.373-.422.061-.071.123-.144.185-.215l.2-.211c.261-.281.522-.567.781-.857l.39-.432.194-.215.206-.2a.153.153,0,0,1-.049-.1.854.854,0,0,0-.322.138,3.43,3.43,0,0,0-.434.37l.018-.024-.02.023c-.076-.093-.264-.076.132-.623a1.515,1.515,0,0,1-.727.375,1.515,1.515,0,0,0,.727-.375,3.265,3.265,0,0,1,1.353-1.042c.141-.041.262-.055.4-.094a2,2,0,0,0,.511-.246c.108-.1.215-.193.323-.285l.66-1.078c-.382.086-.429-.086-.256-.42a2.525,2.525,0,0,1,.168-.279c.073-.1.158-.2.253-.315.19-.224.422-.476.676-.742a4.357,4.357,0,0,0,.563-.67c.1-.158.114-.249.036-.294-.184-.114-.76.4-1.189.8a10.283,10.283,0,0,1-.816.708,6.774,6.774,0,0,1-.651.5,10.705,10.705,0,0,1-1.122.625l.055-.25a.307.307,0,0,1-.065-.059.307.307,0,0,0,.065.059c.818-.855.767-1.065.514-1.119.133-.215.083-.306.12-.455a.8.8,0,0,1,.153-.291,4.133,4.133,0,0,1,.513-.493l-.073.008.406-.4.7-.617c.14-.076.276-.156.423-.224.642-.482,1.274-.975,1.919-1.45.663-.45,1.32-.91,1.984-1.356l.748-.5a.451.451,0,0,1,.133-.188c-.036-.118.25-.375.587-.654a4.029,4.029,0,0,1,.846-.664,7.879,7.879,0,0,1,.88-.461c.3-.132.585-.264.887-.378s.6-.234.9-.381c.384-.14.775-.308,1.174-.493.4-.168.819-.343,1.232-.522s.822-.364,1.233-.513.821-.27,1.212-.37L42.1,10.4a1.063,1.063,0,0,1,.588-.331.72.72,0,0,1,.393.055l1.266-.4c-.123-.083-.068-.208.114-.363a3.2,3.2,0,0,1,.358-.25c.147-.088.323-.168.514-.259l.5-.71a6.716,6.716,0,0,0-.742.253,2.278,2.278,0,0,1-.358.1.682.682,0,0,1-.308,0l-.8.258c-.435.153-.866.3-1.288.425a12.1,12.1,0,0,1-1.2.35,7.306,7.306,0,0,1-1.156.425,3.069,3.069,0,0,1-.807.141l-.868.211c-.913.358-1.785.807-2.674,1.224-.218.108-.446.2-.66.323l-.648.35-1.3.7c-.434.262-.855.548-1.283.819a8.067,8.067,0,0,1-.814.587,2.344,2.344,0,0,1-.476.238,2.237,2.237,0,0,1-.566.03c-.369.309-.752.611-1.144.91-.2.146-.385.311-.579.467l-.579.472L27,16.893c-.194.158-.393.309-.575.481-.372.332-.737.666-1.092,1-.187.088-.507.309-.719.425s-.311.127-.074-.235A19.7,19.7,0,0,1,26.346,16.9l-.956.645c-.711.464-.467-.02-.872.14l-.138.1c-.4.308-.771.7-1.147,1.04a5.228,5.228,0,0,1-1.081.81l-.2-.24.769-.775.73-.727.184-.18.19-.174.384-.344.8-.725.408-.29.2-.146.211-.137c.176-.13.352-.259.528-.391.648-.5,1.31-1.037,1.949-1.456.312-.215.629-.461.948-.714.161-.126.322-.255.481-.382s.332-.238.5-.355a6.171,6.171,0,0,1,1.967-1l0,0c.953-.585,2.721-1.4,1.773-1.448.176-.144.364-.27.554-.4s.391-.259.593-.387q.6-.38,1.253-.736c.441-.218.9-.422,1.37-.616.235-.1.475-.19.716-.281.121-.044.244-.088.366-.133s.252-.076.378-.112a13.176,13.176,0,0,0,1.849-.717c.293-.141.6-.252.9-.366s.613-.218.931-.306c.388-.124.769-.259,1.159-.363l1.168-.294,1.162-.281c.39-.083.781-.149,1.172-.224.783-.14,1.558-.312,2.355-.416.4-.059.795-.123,1.194-.191l.6-.1c.2-.038.4-.056.608-.088.543-.076.508.058.78.082.5-.065.972-.13,1.426-.2.454-.052.887-.1,1.3-.17S56.6,3.7,56.961,3.61s.7-.17,1.021-.281a2.68,2.68,0,0,1,1.465-.143c.356.074.636.211,1.019.281.46.08.625.182.661.293l1.577.076c.525.038,1.048.1,1.573.149l1.368-.493c.13.322.206.511.282.7.576.091,1.254.164,1.706.279l.673.165a4.45,4.45,0,0,0,.532.118,1.1,1.1,0,0,0,.766-.1,1.36,1.36,0,0,1,.672-.053,3.559,3.559,0,0,1,.555.1,3.045,3.045,0,0,1,.62.249c.346.18.725.353,1.135.522s.857.32,1.321.513c.931.372,2,.683,3.14,1.094a7.512,7.512,0,0,1,2.331.428c.411.141.842.311,1.3.516q.173.075.35.159l.355.191q.362.2.748.422c.235.137.454.276.669.414s.431.268.648.423a10.334,10.334,0,0,0,1.585.9,2.7,2.7,0,0,1,.475.137,1.7,1.7,0,0,1,.35.194c.05.035.1.073.143.109-.045-.036-.093-.074-.143-.109a1.7,1.7,0,0,0-.35-.194,2.74,2.74,0,0,0-.475-.137c.455.241.887.523,1.324.795a1.266,1.266,0,0,0,.3.235l.695.42.347.209.337.226.4.314a5.222,5.222,0,0,0,1.065.552c.147.055.284.1.426.153a4.677,4.677,0,0,1,.441.2l1.031.752c.343.252.693.494,1.019.769a9.42,9.42,0,0,0,1.658,1.248,20.065,20.065,0,0,0,1.626,1.409c.14.118.281.232.41.353s.244.247.353.37a2.933,2.933,0,0,1,.5.722,2.2,2.2,0,0,1,.265.237,3.8,3.8,0,0,1,.76.8l1.488,1.483a7.462,7.462,0,0,0,1.239,1.552c.176.287.366.561.525.858a2.617,2.617,0,0,0,.887.852c.187.325.437.661.686,1.022s.508.737.761,1.1c.126.184.249.367.366.546a5.046,5.046,0,0,1,.317.531,4.438,4.438,0,0,1,.39.974c-.147-.141-.294-.281-.452-.457-.079-.089-.159-.187-.244-.3s-.173-.24-.276-.381c.024.1.052.2.073.3l1.221,1.691.2.384c-.129.14-.429-.074-.946-.743q-.407-.539-.8-1.1c-.276-.362-.554-.728-.825-1.1q-.2-.28-.406-.561c-.138-.185-.264-.381-.411-.56q-.428-.551-.855-1.1l-.294.167.525.707.369.485c.127.159.234.334.352.5l.494.7.37.646.185.322c.061.108.114.221.171.331a2.876,2.876,0,0,1,.6.749,9.169,9.169,0,0,0,.6.8c.052.065.1.129.152.2s.093.14.138.212a4.889,4.889,0,0,1,.265.482l.46.819a1.308,1.308,0,0,1,.575.391,1.594,1.594,0,0,1,.284.575,12.986,12.986,0,0,0,.338,1.276l.355.666.322.684a.154.154,0,0,0,.1.044l.376.846.173.444.184.206.17.211c.42,1.068.9,2.057,1.289,3.068.2.5.417,1,.614,1.5.18.508.361,1.016.545,1.529a3.94,3.94,0,0,1,.487.863,8.323,8.323,0,0,1,.315,1.057c.086.375.159.769.224,1.172.036.2.053.408.071.616s.036.416.055.625c.249.614.781,1.342.247,1.652-.214.123-.206.89-.1,1.884.215.625.042,1.878.366,2.189.118,0,.246-.17.358-.07a.78.78,0,0,1,.156.414c.023.123.046.276.065.467.009.1.018.2.027.317s.006.241.008.379l.208-.027c.068-.106.138-.214.208-.32l.193-.323c.129-.217.258-.432.384-.642s.234-.146.244.8c.052.079.1.158.141.238.428-.493.435,2.331.763,2.65l.035-.042v0c.027-2.205.146-3.636.675-1.8.079.275.2.231.3.334a7.643,7.643,0,0,0,0-1.118c-.008-.093-.014-.187-.023-.281L116,54.6l-.085-.56c-.055-.373-.1-.745-.129-1.116-.012-.187-.018-.372-.015-.558,0-.093.006-.185.012-.279s.008-.185.015-.278l-.133-.895-.147-1.119c-.03-.215-.052-.432-.091-.648l-.12-.643-.237-1.286c-.176-.714-.356-1.439-.484-2.184-.083-.2-.165-.413-.24-.645-.036-.115-.071-.238-.1-.369-.015-.067-.03-.133-.047-.2s-.035-.143-.052-.217a9.729,9.729,0,0,1-.431-1.693c-.042-.252-.076-.493-.109-.737s-.093-.481-.15-.734a1.98,1.98,0,0,1-.14-.265,3.453,3.453,0,0,1-.752-1.2c-.068-.091-.135-.149-.2-.244.071.1.137.153.2.244-.089-.352-.208-.693-.32-1.039-.152-.519-.328-1.04-.52-1.565-.049-.13-.1-.262-.149-.391s-.112-.258-.168-.385l-.349-.772-.355-.772c-.118-.256-.231-.517-.364-.766-.255-.5-.5-1-.736-1.508a1.159,1.159,0,0,1,0-.179l-.218-.461c-.073-.153-.158-.3-.237-.45l-.479-.9-.61-1c-.08-.19-.173-.37-.259-.557l-.555-.783.073.085.02-.02c-.174-.234-.338-.47-.494-.71-.077-.121-.155-.241-.231-.363l-.238-.353c-.317-.472-.62-.948-.945-1.418l-.262-.285c-.237-.188-.381-.341-.338-.484l-.505-.86-.758-.872c-.2-.288-.419-.557-.628-.836l-.7-.813a5.846,5.846,0,0,1-.605-.607,3.089,3.089,0,0,1-.44-.605l-1.128-1.229c-.1-.114-.215-.223-.329-.329l-.337-.322-.673-.645-.673-.645c-.226-.212-.466-.411-.7-.617-.011-.038,0-.059.033-.062-.422-.364-.781-.711-1.11-1.051l-.243-.253c-.082-.082-.162-.161-.243-.24l-.473-.476c-.314-.317-.628-.636-.974-.96l-.267-.246c-.1-.076-.193-.155-.291-.235-.2-.158-.413-.317-.642-.479,0,.209-.623-.135-1.065-.317-.429-.287-.834-.538-1.2-.807s-.713-.538-1.047-.81l-.4-.267-.417-.244-.839-.488c-.558-.323-1.1-.667-1.614-.986L85.42,6.942c-.382-.22-.763-.443-1.159-.637-.865-.323-.893-.587-1.53-.887A54.362,54.362,0,0,0,70.771,1.568c-.59-.112-1.183-.235-1.671-.359l-.346-.093c-.108-.027-.206-.053-.3-.08a1.59,1.59,0,0,1-.4-.168A4.781,4.781,0,0,0,66.26.3L65.974.259l-.3-.027L65.067.187c-.413-.026-.837-.052-1.256-.079C63.633.1,63.454.088,63.277.08L63.01.071l-.267,0c-.356,0-.708.008-1.057-.006L60.166,0C59.658,0,59.151,0,58.645,0l-1.523,0C56.615.03,56.107.062,55.6.092S54.586.155,54.079.2c-.505.062-1.01.127-1.514.2l-.757.111c-.25.042-.505.07-.754.129Q50.307.8,49.563.975a6.278,6.278,0,0,1-1.066.173,4.647,4.647,0,0,1-.743.014,8.679,8.679,0,0,0-2.336.259c-.848.223-1.737.517-2.568.787-.818.3-1.8.771-2.448.915a9.3,9.3,0,0,0-1.037.3c-.344.115-.687.238-1.031.369s-.69.262-1.033.413l-1.025.479c-1.388.625-2.773,1.371-4.309,2.011-.488.221-.99.461-1.5.714-.256.129-.516.256-.774.394l-.767.446q-.774.457-1.565.946c-.514.346-1.027.707-1.547,1.071-.258.182-.517.367-.778.551s-.5.394-.757.593l-1.509,1.2-1.445,1.266c-.238.211-.482.416-.714.631s-.457.435-.683.651A24.111,24.111,0,0,0,17.875,16.9a16.874,16.874,0,0,0-1.946,2.136l-.716.842A37.452,37.452,0,0,0,11.552,24.3c-.429.534-.808,1.1-1.2,1.644l-.584.828c-.094.138-.194.275-.284.417l-.265.429c-.349.575-.687,1.159-1.006,1.758l-.118.224-.106.232c-.068.156-.137.312-.206.469-.133.315-.262.634-.384.959a5.654,5.654,0,0,1-.475.925,17.938,17.938,0,0,0-1.47,2.707c-.211.505-.416,1.022-.619,1.538s-.419,1.027-.6,1.536a2.743,2.743,0,0,1-.331,1.08,2.772,2.772,0,0,1-.731,1.3Q2.9,41.443,2.627,42.54c-.1.362-.171.731-.25,1.1l-.24,1.1-.247,1.1-.208,1.112-.22,1.112-.115.557c-.041.185-.064.373-.1.56-.065.394-.182.713-.275,1.068l0,0a2.231,2.231,0,0,0-.282.915,3.19,3.19,0,0,0-.009.482,4.7,4.7,0,0,0,.07.493l.05.608-.049.564c-.184.517-.353.582-.523.62-.023.173-.044.347-.067.522l-.03.264-.018.264c-.023.353-.041.708-.058,1.066s-.029.717-.039,1.078c0,.18-.009.361-.015.543s.006.362.009.545a5.588,5.588,0,0,1,.168,1.442c0,.264,0,.534,0,.805v.4c.009.133.017.265.024.4l.044,1.05c-.009.558-.02,1.1.017,1.608a4.641,4.641,0,0,0,.366,1.411,5.575,5.575,0,0,1,.358,1.436c.1.566.193,1.192.276,1.791.206,1.28.563,2.547.7,3.746,0,.237,0,.476.009.711l0,0a15.1,15.1,0,0,0,.261,1.737c.062.3.132.617.208.934s.185.628.285.948c.2.637.419,1.286.64,1.929.247.634.491,1.265.73,1.875.1.271.2.578.315.895s.246.639.381.957a6.147,6.147,0,0,0,.933,1.65l.52,1.391.711,1.016c.036.2.088.4.135.6l.775,1.382.516.011c.012-.049.032-.091.042-.143-.011.052-.03.094-.042.143l.241.4c.159.353.344.692.517,1.04l-.035-.033.766,1-.767-1-.4.13a.762.762,0,0,0,.094.206,6.28,6.28,0,0,1,.71,1.354c.073.117.143.235.218.349l.234.34.467.68c.534.5.637.771.59.959l-.073.2c.2.268.413.525.626.781a8.363,8.363,0,0,1,1.53,1.913l.736.774a1.9,1.9,0,0,1,.743.946c.124.141.247.285.375.425l.393.41.787.819.388.473.431.4.447.384a19.6,19.6,0,0,0,1.567,1.665c.722.658,1.345,1.332,2.158,1.97a6.2,6.2,0,0,0,1.109.866c.149.121.3.243.446.366v0q.341.289.68.558c.226.177.463.335.692.491a13.123,13.123,0,0,0,1.356.805l.467.3c.155.1.319.191.478.287a4.4,4.4,0,0,0,2.19,1.313,5.291,5.291,0,0,1,2.258,1.148,26.527,26.527,0,0,0,8.278,4.035c1.113.3,2.718.778,2.9,1.229.194.214.363.426,1.438.751l.795.187c.265.061.529.123.8.167.535.1,1.069.2,1.6.306,1.063.24,2.143.42,3.228.731a7.64,7.64,0,0,0,.954.18c.317.033.632.055.948.076a12.772,12.772,0,0,1,1.911.231v0c.088.08-.062.164.006.246s.356.146,1.32.171l.12-.223c-.458-.062-.916-.115-1.374-.185.458.07.916.123,1.376.185a2.888,2.888,0,0,1,1.113.29c.217.036.423.059.62.074s.39,0,.576,0c.375-.012.733-.042,1.11-.052l1.092-.017c-.094.115-.291.24.513.325a18.2,18.2,0,0,1,2.885-.382c.27-.015.545-.059.819-.086l.825-.1-.825.1c-.275.027-.549.071-.819.086a18.2,18.2,0,0,0-2.885.382c.9-.038,1.791-.053,2.682-.061.444.006.889-.027,1.332-.046l1.333-.062c.89-.026,1.775-.132,2.665-.234.446-.053.89-.111,1.338-.173.443-.08.887-.173,1.332-.268l1.165-.218a4.448,4.448,0,0,1,.939-.343,4.448,4.448,0,0,0-.939.343c.595-.068,1.18-.188,1.769-.294l1.128-.279c.78-.229,1.385-.558,2.36-.793.467-.156.937-.3,1.4-.466A7.4,7.4,0,0,1,80.6,115.88c.27-.093.545-.171.808-.276l.8-.3a6.7,6.7,0,0,1,1.371-.5l.147-.033.076-.011a5.633,5.633,0,0,0,.708-.3l.7-.35a6.686,6.686,0,0,1,1.4-.554c.252-.121.482-.267.71-.4s.446-.27.655-.4q.632-.4,1.172-.787l0,0c.18-.093.355-.2.531-.3a3.793,3.793,0,0,0,.9-.613l-.4.1a3.6,3.6,0,0,1,1.529-.749c.162-.039.32-.086.478-.133l1.879-1.329c-.03-.337-1.25.146-1.183-.259a.118.118,0,0,0,.018-.077c-1.257.72-1.213.537-.538-.083l-.015-.2,1.141-.783c.373-.273.737-.555,1.106-.833.264-.209.526-.42.79-.631l.4-.314.393-.323a19.578,19.578,0,0,1,1.661-1.236c.1-.082.2-.155.3-.224s.177-.137.258-.191a1.5,1.5,0,0,1,.4-.215l.44-.376a3.8,3.8,0,0,0,.408-.3,19.859,19.859,0,0,1,2.166-1.89,4.522,4.522,0,0,1,.375-.554,3.27,3.27,0,0,1,.278-.293,2.784,2.784,0,0,1,.356-.3c.425-.3-.021.285-.317.654.008.024-.012.068-.056.132l.135.017a5.558,5.558,0,0,0,.429-.359c.141-.127.284-.258.426-.394.285-.273.575-.564.865-.874l-.026,0c-.177.076-.359.088-.038-.252.625-.663.464-.247.657-.32l.816-.846,1.074-1.307c.355-.516.713-1,1.077-1.435s.74-.828,1.094-1.192l.813-1.172c.268-.393.549-.778.795-1.186-.009-.138-.015-.3.3-.772.366-.558.529-.611.689-.684l.381-.617.353-.632.7-1.268a3.431,3.431,0,0,1,.29-.775,6.7,6.7,0,0,1,.52-.909c.2-.294.393-.613.582-.943a11.624,11.624,0,0,0,.54-1.031c.337-.711.664-1.442,1.009-2.128-.017-.094-.035-.188-.058-.284-.241.2-.5.388-.742.581l-.56,1.313a6.883,6.883,0,0,1-.557,1.04,2,2,0,0,1-.482.546,10.753,10.753,0,0,1-.567,1.092c-.094.156-.188.3-.282.434a4.239,4.239,0,0,1-.3.353l-.255.54a4.836,4.836,0,0,1-.655,1.37,1.534,1.534,0,0,1-.3.3,1.656,1.656,0,0,1-.3.162l-.783.909c-.214.329-.423.634-.631.922-.1.146-.209.282-.32.414s-.218.261-.325.39c-.434.51-.86.984-1.291,1.488s-.872.98-1.307,1.465l-.655.728c-.229.232-.458.467-.687.7-.458.47-.918.945-1.386,1.426-.482.464-.968.939-1.458,1.43a2.256,2.256,0,0,1-.582.567c-.1.05-.133,0-.161-.056-.111-.129-.49.071-1.135.593l-.862.654.975-1.01c.174-.177.35-.35.526-.522l.264-.252c.085-.088.17-.174.255-.261.34-.344.681-.679,1.024-1.013.7-.654,1.342-1.351,1.988-2.078a1.9,1.9,0,0,1,.221-.435c.111-.171.259-.363.417-.587.033.079.065.158.1.238a11.628,11.628,0,0,1,1.01-1.365c.155-.177.3-.334.449-.479.073-.071.144-.141.215-.208l.2-.2a13.871,13.871,0,0,0,1.649-1.732,6.544,6.544,0,0,1,1.03-1.929,3.436,3.436,0,0,1,.909-.705l.367-.573-.026-.243c.14-.275.325-.585.516-.9l.288-.476c.094-.156.173-.319.252-.47.309-.611.5-1.119.29-1.265a.29.29,0,0,0,.011-.147v0l.44-.931a.127.127,0,0,1,.1-.014l.164-.49c-.059-.235-.109-.491-.168-.728.059.237.109.493.168.73.288-.693.59-1.317.9-1.905.293-.6.573-1.169.866-1.735l.281-.664.141-.332.124-.338c.232-.811.281-1.2,0-.918-.332.331-.531.252-.132-1.106.2-.628.352-1.248.535-1.709s.363-.775.544-.81l.231-.713.15-2.16a13.757,13.757,0,0,1,.279-1.447,1.216,1.216,0,0,1,.479-.592l.278-1a2.442,2.442,0,0,1-.086-1M47.551,105.78c.2.033.443.065.705.129a12.785,12.785,0,0,1,1.6.413l.2.059.2.046c.133.029.268.056.4.079a5.531,5.531,0,0,0,.828.085l.916.187c.308.056.617.094.925.143l.9.165a2.954,2.954,0,0,1,.661-.129,6.76,6.76,0,0,1,.792-.041,7.786,7.786,0,0,1,.916.071,7.786,7.786,0,0,0-.916-.071,6.76,6.76,0,0,0-.792.041,2.954,2.954,0,0,0-.661.129c.261.053.488.106.678.161a3.173,3.173,0,0,1,.447.138c.212.094.25.2.065.312.519.2,1.878.232,2.034.507a10.348,10.348,0,0,1,1.056.061,10.348,10.348,0,0,0-1.056-.061,12.273,12.273,0,0,1-2.266-.127l-.273-.038c-.089-.015-.179-.035-.268-.053l-.537-.108c-.359-.071-.719-.14-1.084-.194a1.41,1.41,0,0,1-.581.138,5.74,5.74,0,0,1-1.013-.071,3.994,3.994,0,0,1-.5.177,3.994,3.994,0,0,0,.5-.177,5.74,5.74,0,0,0,1.013.071,1.41,1.41,0,0,0,.581-.138l.141-.281c-.692-.085-1.376-.234-2.06-.367l-1.024-.2c-.338-.076-.67-.171-1-.258a5.637,5.637,0,0,1-2-.763l-.083-.044.014-.018.027,0-.021-.008a2.58,2.58,0,0,1,.537.038M88.7,108.646a5.225,5.225,0,0,1-1.27.479c-.322.062-.511.032-.513-.114l-1.408.681c-.15.086-.3.18-.452.262l-.46.246a3.043,3.043,0,0,1-1.189.628,9.319,9.319,0,0,0-1.262.452h0c-.047-.052-.091-.1-.137-.153-.039-.012-.077-.024-.114-.039l-.836.309-.07.209-.017,0c.141.1.049.3.381.3-.332,0-.24-.208-.381-.3L79.96,112c-.34.117-.684.226-1.025.34l-.466.143-.049-.191c-.457.168-.913.346-1.38.5s-.94.281-1.414.417l-.71.2c-.238.065-.473.138-.714.188l-1.439.323-.717.161-.358.079c-.12.024-.24.042-.359.065l-1.432.253-.71.129-.352.067-.353.05q-.705.1-1.4.211c-.384.062-.772.123-1.163.185l-1.188.135c-.4.045-.8.091-1.2.138-.2.021-.4.052-.6.067l-.6.044-2.381.194c-.783.036-1.552.08-2.295.135l-.549.017c-.655-.014-1.294-.059-1.923-.117-.315-.029-.628-.062-.94-.1s-.617-.1-.927-.149l-1.849-.315-.234-.038L51,115.081l-.467-.093c-.312-.061-.628-.118-.948-.17-.235-.041-.47-.08-.705-.12s-.473-.076-.705-.135l-1.4-.331-.7-.168c-.234-.059-.47-.106-.7-.179l-1.383-.4-.763-.268-.379-.135-.375-.152a9.417,9.417,0,0,1-1.966-.76c-.127-.027-.253-.053-.373-.088s-.237-.074-.352-.114c-.228-.077-.446-.162-.657-.252-.423-.177-.814-.373-1.2-.572s-.755-.423-1.147-.628a11.58,11.58,0,0,0-1.254-.582,3.263,3.263,0,0,1-.416-.13c-.692-.366-1.917-.862-1.891-1.094s1.154.4,1.9.78a15.552,15.552,0,0,0,1.885.86,2.505,2.505,0,0,1,1.125.467l1.094.411a2.175,2.175,0,0,1,.373.07,4.13,4.13,0,0,1,1.194.444l.522.168a.838.838,0,0,1,.29.07l.733.036c.8.121,1.687.243,2.618.461.93.234,1.94.443,3,.742.265.033.525.093.786.143s.517.109.774.176l1.165.173c.347.056.69.129,1.04.162a1.738,1.738,0,0,1,1.075.214l.995.173c.174.012.347.029.52.036.551.029,1.112.041,1.652.08.27.02.534.046.789.085.127.018.252.041.375.067s.241.044.358.073a22.992,22.992,0,0,1,2.741.1c.605-.023,1.4,0,1.782-.073s.717-.109,1.019-.138a6.173,6.173,0,0,1,.81-.053,4.379,4.379,0,0,1,1.232.179l.561-.036.281-.02.279-.03,1.116-.127c.746-.086,1.492-.158,2.231-.294l1.11-.184.557-.093c.185-.032.37-.058.554-.1l2.2-.478a60.17,60.17,0,0,0,8.583-2.759,12.934,12.934,0,0,1,3.44-1.474c-.059-.108.191-.306.563-.546.07-.044.143-.091.22-.138-.077.047-.15.094-.22.138-.372.24-.622.438-.563.546l.478-.024.567-.162.494-.249c.167-.089.334-.19.5-.284.332-.191.66-.376.953-.526.585-.3,1.031-.458,1.094-.224.038.133-.683.764-1.376,1.1" transform="translate(0 0)" fill="#c7c9cb"></path>
      <path id="Path_72" data-name="Path 72" d="M46.172,68.674h0v0Z" transform="translate(23.859 35.485)" fill="#c7c9cb"></path>
      <path id="Path_73" data-name="Path 73" d="M71.428,52.235l.17.132.2-.411Z" transform="translate(36.909 26.848)" fill="#c7c9cb"></path>
      <path id="Path_74" data-name="Path 74" d="M65.778,11.244a2.676,2.676,0,0,1-1.139-.921l-.845-.447c-.14-.077-.284-.147-.429-.212l-.432-.2-.868-.44-.2.253a.653.653,0,0,0-.064.085,5.264,5.264,0,0,1-.493-.3,3.224,3.224,0,0,1-.319-.237.773.773,0,0,1-.258-.378c-.306-.156-.625-.308-.951-.455s-.655-.3-1-.42c-.684-.25-1.379-.5-2.051-.758l-1.03-.359c-.3-.076-.595-.164-.889-.255l-.441-.141c-.149-.042-.3-.08-.446-.12a14.964,14.964,0,0,0-1.811-.388c-.237-.029-.475-.041-.707-.065s-.455-.055-.673-.094a4.477,4.477,0,0,1-1.2-.381c-.156-.036-.314-.061-.472-.086l-.473-.076-.946-.153c-.315-.049-.631-.108-.948-.15l-.954-.1-.956-.106c-.319-.035-.639-.076-.959-.088L41.9,4.127c-.153.009-.3.006-.45.014s-.293.008-.435.008c-.285,0-.561-.014-.839-.029s-.552-.03-.833-.039c-.141,0-.282-.008-.426-.006s-.29.018-.438.032a5.8,5.8,0,0,1-1.113.273c-.214.033-.438.062-.673.088s-.476.046-.723.085l-.1.525c.452.046.905.137,1.354.212.614-.073,1.227-.164,1.844-.226a.486.486,0,0,0,.191-.077,3.564,3.564,0,0,1,1.351-.4,4.531,4.531,0,0,1,.774.02,9.348,9.348,0,0,1,1.019.2c.551.1,1.133.18,1.735.246.6.1,1.219.182,1.847.261l.472.059.237.029.235.039.94.164.931.165c.153.03.308.055.46.088l.447.112a29.487,29.487,0,0,1,2.911.579c.467.123.921.252,1.356.393a11.2,11.2,0,0,1,1.219.52l.975.211c.293.079.576.191.862.291l1.153.364.578.18c.19.067.378.14.567.209,1.162.044.959.461,1.455.683.275.1.537.226.8.341l.8.353c.275.179.57.346.875.511s.608.352.924.52.64.335.965.5c.162.079.32.17.476.262l.466.275c.147-.215.949.035,1.515.115.009-.021-.023-.059-.1-.115-.569-.306-1.2-.607-1.729-.916" transform="translate(18.533 2.105)" fill="#c7c9cb"></path>
      <path id="Path_75" data-name="Path 75" d="M68.618,21.635l-.705-.824a.968.968,0,0,1-.584-.338,4.967,4.967,0,0,1-.394-.434c-.15-.171-.319-.367-.5-.6-.121.009-.086.171.017.4.05.114.12.243.191.381s.138.285.206.426l.482.79.265.388c.3.379.552.787.824,1.185q.567.091,1.139.193l-.676-1.241c-.089-.109-.171-.223-.268-.328" transform="translate(34.292 10.047)" fill="#c7c9cb"></path>
      <path id="Path_76" data-name="Path 76" d="M59.811,11.253c-.4-.193-.772-.35-1.194-.585a4.282,4.282,0,0,0-.435-.223,1.538,1.538,0,0,0-.287-.106c-.124-.023-.1.065.144.338.187.2.315.394.513.581a3.153,3.153,0,0,0,.878.576c.215.1.449.224.684.344s.454.259.663.367c.416.217.755.347.872.226l-1-.987c-.273-.182-.557-.353-.834-.531" transform="translate(29.878 5.341)" fill="#c7c9cb"></path>
      <path id="Path_77" data-name="Path 77" d="M75.569,40.366c-.021.156-.041.325-.056.507.12.023.2-.135.25-.42a6.439,6.439,0,0,0,.024-1.177,3.36,3.36,0,0,0-.164.657c-.021.133-.035.278-.055.434" transform="translate(39.021 20.295)" fill="#c7c9cb"></path>
      <path id="Path_78" data-name="Path 78" d="M21.511,10.051l-.02.014,0,0Z" transform="translate(11.104 5.194)" fill="#c7c9cb"></path>
      <path id="Path_79" data-name="Path 79" d="M6.725,93.87c5.227-21.882,29.569-101.738,101.3-72.182,1.233.508,2.407,1.4.05,1.189-7.3-.648-24.38-1.15-41.951,5.592C45.359,36.437,24.322,54.54,7.661,94.1c-.707,1.674-1.743,3.147-.936-.231" transform="translate(3.323 7.858)" fill="#6c3c8f"></path>
      <path id="Path_80" data-name="Path 80" d="M7.317,84.052C10.8,68.041,25.04,24.5,75.441,36.817c1.348.331,2.645,1.059.1,1.191-12.8.667-52.569,6.012-67.4,46.163-.66,1.784-1.577,3.379-.816-.12" transform="translate(3.632 17.907)" fill="#65b031"></path>
    </g>
  </g>
</svg>
