<?xml version="1.0" encoding="UTF-8" standalone="no"?>
<svg
   width="521.677"
   height="43.611"
   viewBox="0 0 521.677 43.611"
   version="1.1"
   id="svg1"
   sodipodi:docname="forte forever logo.svg"
   xml:space="preserve"
   inkscape:version="1.3.2 (091e20e, 2023-11-25, custom)"
   xmlns:inkscape="http://www.inkscape.org/namespaces/inkscape"
   xmlns:sodipodi="http://sodipodi.sourceforge.net/DTD/sodipodi-0.dtd"
   xmlns="http://www.w3.org/2000/svg"
   xmlns:svg="http://www.w3.org/2000/svg"><defs
     id="defs1"><style
       id="style1">.cls-1{fill:none;}.cls-1,.cls-2,.cls-3,.cls-4,.cls-5{stroke-width:0px;}.cls-2{fill:#4b4b4b;}.cls-3{fill:#353535;}.cls-4{fill:#545454;}.cls-5{fill:#fff;}</style><style
       id="style1-8">.cls-1{fill:#8a8a8a;stroke-width:0px;}</style></defs><sodipodi:namedview
     id="namedview1"
     pagecolor="#ffffff"
     bordercolor="#000000"
     borderopacity="0.25"
     inkscape:showpageshadow="2"
     inkscape:pageopacity="0.0"
     inkscape:pagecheckerboard="0"
     inkscape:deskcolor="#d1d1d1"
     inkscape:zoom="1.3245744"
     inkscape:cx="260.8385"
     inkscape:cy="21.516345"
     inkscape:window-width="1600"
     inkscape:window-height="837"
     inkscape:window-x="-8"
     inkscape:window-y="-8"
     inkscape:window-maximized="1"
     inkscape:current-layer="svg1" /><g
     id="g1"
     transform="matrix(0.80793454,0,0,0.46753761,89.369924,-195.79267)"><path
       class="cls-3"
       d="m 377.9,151.2 69.7,46.4 -30.7,-73.1 64.4,-53.6 H 402.5 L 377.9,2.5 355.3,70.8 H 343.1 L 318.5,2.5 295.7,70.8 h -11.2 l -24.6,-68.3 -22.4,67.2 12.4,6.2 10.6,-40 13.2,48 h 52.9 l -47.1,34.6 22.2,46.1 -41.8,-28.5 v 15.3 l 69.7,46.4 -30.7,-73.1 48.8,-40.6 h 37.5 l -47.1,34.6 22.2,46 -41.8,-28.5 v 15.3 c 0,0 69.7,46.4 69.7,46.4 l -30.7,-73.1 48.8,-40.6 h 38.3 l -47.1,34.5 22.2,46 -41.8,-28.5 v 15.3 z M 310,70.9 319.2,36 l 9.6,34.9 z m 59.4,0 9.2,-34.9 9.6,34.9 z"
       id="path1" /><polygon
       class="cls-1"
       points="26.9,60.5 27.2,60.3 "
       id="polygon1" /><polygon
       class="cls-1"
       points="16.6,102.5 16.9,102.3 "
       id="polygon2" /><polygon
       class="cls-1"
       points="6.7,143.9 7,143.7 "
       id="polygon3" /><path
       class="cls-2"
       d="m 239.4,62.9 c -11.5,-4.7 -27.7,-9.4 -46.9,-9.4 -17.8,0 -38.3,4.1 -59.4,15.9 C 109.3,82.7 90.6,87.2 76,87.2 61.4,87.2 59.4,85.5 53.2,82.9 45.5,79.7 38.6,74.8 33.1,68.5 c -1.7,-1.9 -3.2,-3.9 -4.6,-6 -0.5,-0.8 -0.8,-1.3 -1,-1.7 -0.1,-0.2 -0.2,-0.3 -0.2,-0.4 v 0 c 0,0 -0.3,0.1 -0.3,0.1 L 22.3,75 c 2.3,2.9 4.9,5.5 7.7,8 5.5,4.8 11.8,8.7 18.6,11.5 7.7,3.1 16.8,5.2 27.5,5.2 v 0 c 17.2,0 38,-5.3 63.2,-19.4 19.2,-10.7 37.3,-14.3 53.3,-14.3 17.2,0 31.9,4.2 42.2,8.5 4.1,1.7 8.1,3.6 12,5.8 0.7,0.4 1.3,0.7 1.8,1.1 L 251.9,69 c -4,-2.2 -8.2,-4.2 -12.5,-5.9 z"
       id="path3" /><path
       class="cls-4"
       d="m 27.2,60.3 v 0 l -0.3,0.2 v 0 z"
       id="path4" /><polygon
       class="cls-5"
       points="25.6,61.1 26.9,60.5 "
       id="polygon4" /><path
       class="cls-2"
       d="m 229.1,104.9 c -11.5,-4.7 -27.7,-9.4 -46.9,-9.4 -17.8,0 -38.3,4.1 -59.4,15.9 -23.8,13.3 -42.5,17.8 -57.1,17.8 -14.6,0 -16.6,-1.7 -22.8,-4.3 -7.7,-3.2 -14.6,-8.1 -20.1,-14.4 -1.7,-1.9 -3.2,-3.9 -4.6,-6 -0.5,-0.8 -0.8,-1.3 -1,-1.7 -0.1,-0.2 -0.2,-0.3 -0.2,-0.4 v 0 c 0,0 -0.3,0 -0.3,0 v 0 c 0,0 0.3,-0.1 0.3,-0.1 l -0.3,0.2 -4.7,14.4 c 2.3,2.9 4.9,5.5 7.7,8 5.5,4.8 11.8,8.7 18.6,11.5 7.7,3.1 16.8,5.2 27.5,5.2 v 0 c 17.2,0 38,-5.3 63.2,-19.4 19.2,-10.7 37.3,-14.3 53.3,-14.3 17.2,0 31.9,4.2 42.2,8.5 4.1,1.7 8.1,3.6 12,5.8 0.7,0.4 1.3,0.7 1.8,1.1 l 3.3,-12.4 c -4,-2.2 -8.2,-4.2 -12.4,-5.9 z"
       id="path5" /><polygon
       class="cls-5"
       points="15.2,103.1 16.6,102.5 "
       id="polygon5" /><path
       class="cls-2"
       d="m 219.2,146.3 c -11.5,-4.7 -27.7,-9.4 -46.9,-9.4 -19.2,0 -38.3,4.1 -59.4,15.9 -23.8,13.3 -42.5,17.8 -57.1,17.8 -14.6,0 -16.6,-1.7 -22.8,-4.3 -7.7,-3.2 -14.6,-8.1 -20.1,-14.4 -1.7,-1.9 -3.2,-3.9 -4.6,-6 -0.5,-0.8 -0.8,-1.3 -1,-1.7 -0.1,-0.2 -0.2,-0.3 -0.2,-0.4 v 0 c 0,0 -0.3,0 -0.3,0 v 0 c 0,0 0.3,-0.1 0.3,-0.1 l -0.3,0.2 -4.7,14.5 c 2.3,2.9 4.9,5.5 7.7,8 5.5,4.8 11.8,8.7 18.6,11.5 7.7,3.1 16.8,5.2 27.5,5.2 v 0 c 17.2,0 38,-5.3 63.2,-19.4 19.2,-10.7 37.3,-14.3 53.3,-14.3 17.2,0 31.9,4.2 42.2,8.5 4.1,1.7 8.1,3.6 12,5.8 0.7,0.4 1.3,0.7 1.8,1.1 l 3.3,-12.4 c -4,-2.2 -8.2,-4.2 -12.4,-5.9 z"
       id="path6" /><polygon
       class="cls-5"
       points="5.3,144.5 6.7,143.9 "
       id="polygon6" /><polygon
       class="cls-2"
       points="27.9,229.4 20.8,229.4 20.8,255.1 12.3,255.1 12.3,229.4 5.2,229.4 5.2,222.1 27.9,222.1 "
       id="polygon7" /><path
       class="cls-2"
       d="M 111.9,254.7 H 101.2 L 93.1,242 v 0 12.7 h -8.6 v -33 h 12.8 c 6.5,0 11.5,3.1 11.5,10.1 0,7 -2.5,8.5 -7.2,9.3 L 112,254.6 Z M 93,236.5 h 0.8 c 2.8,0 5.9,-0.5 5.9,-4.1 0,-3.6 -3.1,-4.1 -5.9,-4.1 H 93 Z"
       id="path7" /><rect
       class="cls-2"
       x="160.89999"
       y="221.7"
       width="8.6000004"
       height="33"
       id="rect7" /><path
       class="cls-2"
       d="m 246.4,232.3 c -1.8,-2.3 -4.6,-3.7 -7.5,-3.6 -5.2,0 -8.8,4 -8.8,9.1 0,5.1 3.6,9 8.9,9 2.9,0 5.6,-1.3 7.4,-3.5 v 10.3 c -2.8,0.9 -4.9,1.5 -7.6,1.5 -4.6,0 -9,-1.7 -12.4,-4.9 -3.6,-3.3 -5.3,-7.6 -5.3,-12.5 0,-4.5 1.7,-8.8 4.9,-12.1 3.3,-3.4 7.8,-5.3 12.6,-5.3 2.7,0 5.4,0.6 7.8,1.7 z"
       id="path8" /><path
       class="cls-2"
       d="m 309.9,249.4 -2.3,5.7 h -9.1 l 12.7,-33 h 9.4 l 12.4,33 h -9.1 l -2.1,-5.7 H 310 Z m 6,-17.1 v 0 l -3.5,10.5 h 7.1 L 316,232.3 Z"
       id="path9" /><path
       class="cls-2"
       d="M 410.9,254.7 H 400.2 L 392.1,242 v 0 12.7 h -8.6 v -33 h 12.8 c 6.5,0 11.5,3.1 11.5,10.1 0,7 -2.5,8.5 -7.2,9.3 l 10.4,13.5 z m -18.8,-18.2 h 0.8 c 2.8,0 5.9,-0.5 5.9,-4.1 0,-3.6 -3.1,-4.1 -5.9,-4.1 h -0.8 z"
       id="path10" /><polygon
       class="cls-2"
       points="481.6,247.4 481.6,254.7 462.8,254.7 462.8,221.7 481.6,221.7 481.6,229 471.4,229 471.4,234.5 481,234.5 481,241.7 471.4,241.7 471.4,247.4 "
       id="polygon10" /><path
       class="cls-2"
       d="m 497.9,221.3 c 1.5,0 2.9,0.4 4.1,1.1 1.3,0.7 2.4,1.8 3.1,3.1 1.5,2.6 1.5,5.8 0,8.4 -0.7,1.3 -1.8,2.4 -3.1,3.1 -2.6,1.5 -5.8,1.5 -8.4,0 -1.3,-0.7 -2.4,-1.8 -3.1,-3.1 -1.5,-2.6 -1.5,-5.8 0,-8.4 0.7,-1.3 1.8,-2.4 3.1,-3.1 1.3,-0.7 2.7,-1.1 4.1,-1.1 m 0,1.4 c -1.2,0 -2.4,0.3 -3.4,0.9 -1.1,0.6 -2,1.5 -2.6,2.6 -1.3,2.2 -1.3,4.8 0,7 0.6,1.1 1.5,2 2.6,2.6 2.2,1.2 4.8,1.2 7,0 1.1,-0.6 2,-1.5 2.6,-2.6 1.2,-2.2 1.2,-4.8 0,-7 -0.6,-1.1 -1.5,-2 -2.6,-2.6 -1.1,-0.6 -2.2,-0.9 -3.4,-0.9 m -3.7,11.6 v -9 h 3.1 c 0.8,0 1.6,0 2.3,0.2 0.5,0.2 0.9,0.5 1.1,0.9 0.3,0.4 0.4,0.9 0.4,1.3 0,0.6 -0.3,1.3 -0.7,1.7 -0.5,0.5 -1.2,0.8 -1.9,0.8 0.3,0.1 0.5,0.3 0.8,0.5 0.5,0.5 1,1.1 1.3,1.8 l 1.1,1.8 h -1.8 l -0.8,-1.4 c -0.6,-1.1 -1.1,-1.8 -1.5,-2.1 -0.3,-0.2 -0.8,-0.3 -1.2,-0.3 h -0.9 v 3.8 h -1.4 z m 1.5,-5.1 h 1.8 c 0.8,0 1.4,-0.1 1.7,-0.4 0.5,-0.4 0.6,-1.2 0.2,-1.7 -0.2,-0.2 -0.4,-0.4 -0.6,-0.5 -0.5,-0.1 -1,-0.2 -1.5,-0.2 h -1.7 v 2.7 z"
       id="path11" /></g></svg>
