<?xml version="1.0" encoding="UTF-8"?>
<svg xmlns="http://www.w3.org/2000/svg" id="Layer_1" viewBox="0 0 600 145">
  <defs>
    <style>.cls-1{fill:#202020;}.cls-1,.cls-2,.cls-3{stroke-width:0px;}.cls-2{fill:#686868;}.cls-3{fill:#fff;}</style>
  </defs>
  <circle class="cls-3" cx="112.3" cy="72.2" r="25.5"></circle>
  <path class="cls-3" d="m204.2,39.6c-10.9,0-27.7-5.2-27.7-5.2,0,0-3.6,9.4-3.6,22.3s10.7,46.8,32.4,55.4c0,0,30.9-19.5,30.9-53.7s-3-24-3-24c0,0-18,5.2-29,5.2Z"></path>
  <path class="cls-1" d="m267.9,66V29h13.9c6.7-.4,13.3,2.4,13.3,9.7s-2.8,6.9-6.4,8.2c4.7,1.1,8.2,4.3,8.2,9.7s-9.2,10.1-14.8,9.7h-14.2v-.2Zm14.2-22.1c3.4,0,5.2-1.3,5.2-4.3s-1.9-4.3-5.2-4.3h-6.2v8.8h6.2v-.2Zm0,15.9c3.6,0,6.2-.6,6.2-4.9s-2.6-4.9-6.2-4.9h-6.2v9.9h6.2Zm27.5-30.7v36.9h-7.7V29h7.7Zm23.4,33.7c-1.7,2.4-4.1,3.9-7.9,3.9s-7.5-1.9-8.4-5.6c-.4-1.5-.4-3.2-.4-4.1v-16.7h7.7v15.5c0,2.8.9,6,4.5,6s4.5-2.1,4.5-6v-15.5h7.7v21c0,1.5.2,3,.2,4.5h-7.7l-.2-3Zm21.2-7.5c0,3.4.4,6.4,4.5,6.4s4.1-1.1,4.7-3.4h6.9c-.6,6.4-5.6,8.4-11.6,8.4-8.8,0-12.4-4.9-12.4-13.5s4.5-13.7,12.4-13.7,8.8,1.7,10.9,6.2c.6,1.5,1.1,3,1.3,4.5s.2,3.2.2,4.9h-17v.2Zm9-5.2c0-2.8-.9-5.4-4.5-5.4s-4.3,2.6-4.5,5.4h9Zm33.9-9.2c0-3.9-2.4-7.1-7.1-7.1s-7.1,8.4-7.1,13.5,1.5,13.5,7.1,13.5,7.1-3.2,7.1-7.1h8.4c-.4,9.2-7.1,12.7-15.5,12.7s-15.5-8.4-15.5-19.3,4.7-19.3,15.5-19.3,15.2,3.4,15.5,12.7h-8.4v.4Zm19.5-.6l.2,4.7c1.7-4.1,4.9-5.2,8.8-4.9v6.9h-3.4c-1.3,0-3,.9-3.6,1.9-.9,1.5-1.1,2.8-1.1,4.5v12.7h-7.7v-20.6c0-1.1-.2-3.2-.2-5.2h7.1Zm25.8,26.6c-8.4,0-13.5-5.6-13.5-13.7s4.9-13.7,13.5-13.7,13.5,5.6,13.5,13.7-5.2,13.7-13.5,13.7Zm0-5.2c4.7,0,5.6-4.5,5.6-8.6s-.9-8.6-5.6-8.6-5.6,4.5-5.6,8.6c.2,4.1.9,8.6,5.6,8.6Zm32-14.6c0-1.7-1.7-2.6-3.4-2.6s-3,.6-3,2.4c0,4.1,14.8,1.7,14.8,11.4s-6.9,8.4-11.6,8.4-11.2-2.4-11.4-8.2h7.1c.2,1.9,1.9,3.2,4.3,3.2s3.6-.9,3.6-2.8-3.6-3-5.2-3.2c-4.9-1.1-9.4-2.4-9.4-8.2s6.4-7.7,10.9-7.7,10.1,1.9,10.3,7.7h-7.1v-.4Zm25.5,0c0-1.7-1.7-2.6-3.4-2.6s-3,.6-3,2.4c0,4.1,14.8,1.7,14.8,11.4s-6.9,8.4-11.6,8.4-11.2-2.4-11.4-8.2h7.1c.2,1.9,1.9,3.2,4.3,3.2s3.6-.9,3.6-2.8-3.6-3-5.2-3.2c-4.9-1.1-9.4-2.4-9.4-8.2s6.4-7.7,10.9-7.7,10.1,1.9,10.3,7.7h-7.1v-.4h0Zm-232,69.1v-36.9h13.9c6.7-.4,13.3,2.4,13.3,9.7s-2.8,6.9-6.4,8.2c4.7,1.1,8.2,4.3,8.2,9.7s-9.2,10.1-14.8,9.7h-14.2v-.2Zm14.2-22.1c3.4,0,5.2-1.3,5.2-4.3s-1.9-4.3-5.2-4.3h-6.2v8.8l6.2-.2Zm0,15.9c3.6,0,6.2-.6,6.2-4.9s-2.6-4.9-6.2-4.9h-6.2v9.9h6.2Zm27.5-30.7v36.9h-7.7v-36.9h7.7Zm23.4,33.7c-1.7,2.4-4.1,3.9-7.9,3.9s-7.5-1.9-8.4-5.8c-.4-1.5-.4-3.2-.4-4.1v-16.7h7.7v15.7c0,2.8.9,6,4.5,6s4.5-2.1,4.5-6v-15.5h7.7v21c0,1.5.2,3,.2,4.5h-7.7s-.2-3-.2-3Zm21.2-7.5c0,3.4.4,6.4,4.5,6.4s4.1-1.1,4.7-3.4h6.9c-.6,6.4-5.6,8.4-11.6,8.4-8.8,0-12.4-4.9-12.4-13.5s4.5-13.7,12.4-13.7,8.8,1.7,10.9,6.2c.6,1.5,1.1,3,1.3,4.5.2,1.5.2,3.2.2,4.9l-17,.2h0Zm9-5.2c0-2.8-.9-5.4-4.5-5.4s-4.3,2.6-4.5,5.4h9Zm32.8-10.5c-.2-3.6-2.4-5.6-6.2-5.6s-5.8,1.5-5.8,4.7,3.6,4.5,6.9,5.2c5.6,1.5,13.9,3,13.9,10.5s-7.9,12.4-15.9,12.4-14.4-3.2-14.2-12.7h8.2c-.2,4.1,2.1,6.9,6.2,6.9s7.3-1.1,7.3-4.9-5.4-4.7-8.4-5.6c-5.2-1.3-12.2-3.6-12.2-10.3s7.7-12.2,15.5-12.2,12.7,3.9,12.7,11.4l-7.9.2Zm14.2,26.4v-36.9h7.7v14.4c1.5-2.4,4.1-3.9,7.9-3.9s7.5,1.9,8.4,5.6c.4,1.5.4,3.2.4,4.1v16.7h-7.5v-15.5c0-2.8-.9-5.8-4.5-5.8s-4.5,2.1-4.5,5.8v15.5h-7.9,0Zm39.3-36.9v6.7h-8.2v-6.7h8.2Zm-.4,11.2v25.8h-7.7v-25.8h7.7Zm13.5,15c0,3.4.4,6.4,4.5,6.4s4.1-1.1,4.7-3.4h6.9c-.6,6.4-5.6,8.4-11.6,8.4-8.8,0-12.4-4.9-12.4-13.5s4.5-13.7,12.4-13.7,8.8,1.7,10.9,6.2c.6,1.5,1.1,3,1.3,4.5.2,1.5.2,3.2.2,4.9l-17,.2h0Zm8.8-5.2c0-2.8-.9-5.4-4.5-5.4s-4.3,2.6-4.5,5.4h9Zm20.4-21v36.9h-7.7v-36.9h7.7Zm24.5,0h7.7v32c0,1.7.2,3.4.2,5.2h-7.7c0-1.3-.2-2.4-.2-3.6-1.7,3-4.5,4.5-7.9,4.5-7.5,0-11.2-7.1-11.2-13.7s4.1-13.7,12-13.7,5.4,1.5,6.9,3.6l.2-14.2h0Zm-5.6,32.6c4.1,0,5.6-4.9,5.6-8.6s-1.3-8.6-5.6-8.6-5.6,4.5-5.6,8.6.6,8.6,5.6,8.6Zm1.3-45.9c-1.3,0-2.4-1.1-2.4-2.4s1.1-2.4,2.4-2.4,2.4,1.1,2.4,2.4-.9,2.4-2.4,2.4m0-5.4c-1.5,0-2.8,1.3-2.8,2.8s1.3,2.8,2.8,2.8,2.8-1.3,2.8-2.8-1.3-2.8-2.8-2.8"></path>
  <path class="cls-1" d="m511.9,63.4h-.6v-1.1h.9c.4,0,.9,0,.9.4,0,.6-.6.6-1.1.6m1.5-.6c0-.6-.2-.9-1.1-.9h-1.5v3.2h.4v-1.5h.6l1.1,1.5h.4l-.9-1.5c.4,0,.9-.2.9-.9m15,53.2c-1.3,0-2.4-1.1-2.4-2.4s1.1-2.4,2.4-2.4,2.4,1.1,2.4,2.4-1.1,2.4-2.4,2.4m0-5.4c-1.5,0-2.8,1.3-2.8,2.8s1.3,2.8,2.8,2.8,2.8-1.3,2.8-2.8-1.3-2.8-2.8-2.8"></path>
  <path class="cls-1" d="m528.2,113.4h-.6v-1.1h.9c.4,0,.9,0,.9.4,0,.6-.4.6-1.1.6m1.7-.6c0-.6-.2-.9-1.1-.9h-1.5v3.2h.4v-1.5h.6l.9,1.5h.4l-.9-1.5c.6,0,1.1-.2,1.1-.9"></path>
  <path class="cls-2" d="m151.2,106.7c-2.8,0-4.9,2.1-4.9,4.9s2.1,4.9,4.9,4.9,4.9-2.1,4.9-4.9-2.1-4.9-4.9-4.9Zm0,9c-2.4,0-4.1-1.7-4.1-4.1s1.7-4.1,4.1-4.1,4.1,1.7,4.1,4.1-1.5,4.1-4.1,4.1Z"></path>
  <path class="cls-2" d="m153.7,110.4c0-1.1-.4-1.5-1.9-1.5h-2.4v5.6h.6v-2.4h1.3l1.5,2.4h.9l-1.7-2.4c1.1-.2,1.7-.6,1.7-1.7Zm-2.6.9h-1.1v-1.7h1.5c.6,0,1.3,0,1.3.9.2,1.1-1.1.9-1.7.9Zm-38.6-32.4q-.2,0-.4.2l-8.2,12.4c2.6,1.1,5.4,1.7,8.4,1.7s5.8-.6,8.4-1.7l-8.2-12.4c.2-.2,0-.2,0-.2Zm-7.9-10.3l-12.2-1.1c-.4,1.5-.6,3.2-.6,4.9,0,5.2,1.9,9.9,4.9,13.5l8.6-16.3c.4-.4.2-.9-.6-1.1Z"></path>
  <path class="cls-2" d="m131.9,52.9v-24.3h-38.8v24.3h-24.3v38.8h24.3v24.3h38.8v-24.3h24.3v-38.8h-24.3Zm-19.3-4.5c9.7,0,18,5.6,21.7,13.9h-17.2c-2.4,0-3.4-1.5-3.6-2.6,0-1.3.2-1.7,1.3-3.2,1.3-1.7.4-4.7-2.4-4.9-2.8,0-3.6,3.2-2.4,4.9,1.1,1.5,1.3,1.9,1.3,3.2s-1.1,2.6-3.6,2.6h-17.2c4.1-8.2,12.4-13.9,22.1-13.9Zm-24,24c0-3,.6-5.8,1.5-8.4l16.1,1.5c3,.4,3.4,3.4,2.6,5.2l-10.9,20.8c-5.6-4.5-9.2-11.4-9.2-19.1Zm37.1,20.2c-3.9,2.6-8.4,3.9-13.3,3.9s-9.4-1.5-13.3-3.9l11.8-17.4c.9-1.3,2.1-1.1,3,0,0,0,11.8,17.4,11.8,17.4Zm1.7-1.3l-10.9-20.6c-.9-1.7-.4-4.7,2.6-5.2l16.1-1.5c1.1,2.6,1.5,5.6,1.5,8.4,0,7.7-3.6,14.6-9.2,18.9Z"></path>
  <path class="cls-2" d="m128.2,58.9c-2.6-3-6-5.4-9.9-6.4,1.3,1.9.2,4.7-.9,6-.2.2,0,.4,0,.4h10.7Zm-7.7,9.7c-.9,0-.9.4-.6.9l8.6,16.3c3-3.6,4.9-8.4,4.9-13.5s-.2-3.4-.6-4.9c0,0-12.2,1.3-12.2,1.3Zm-13.7-15.9c-3.9,1.1-7.3,3.4-9.9,6.4h10.7c.2,0,.2-.2,0-.4-1.1-1.5-2.1-4.1-.9-6Z"></path>
  <path class="cls-2" d="m234.2,28.6c-9.4,4.7-18.9,7.3-29.8,7.3s-20.4-2.6-29.8-7.3c-6.2,12.2-7.1,32-1.7,48.5,5.2,15.9,15.2,30.5,31.5,39.5,16.5-9,26.4-23.6,31.5-39.5,5.6-16.5,4.5-36.3-1.7-48.5Zm-4.3,46.6c-4.7,13.5-11.8,25.5-25.3,33.9-13.5-8.4-20.8-20.4-25.3-33.9-4.1-12-5.2-26.2-.6-37.1,6.9,2.4,10.7,3,14.4,3.6,3.4.6,6.4.9,11.6.9s8.2-.4,11.6-.9c3.6-.6,7.7-1.3,14.4-3.6,4.3,10.9,3.4,25.1-.6,37.1Z"></path>
  <path class="cls-2" d="m216.2,44.7c-3.9.4-7.9.9-11.8.9s-7.7-.4-11.8-.9c-3.9-.6-7.7-1.5-11.8-2.6-2.8,8.2-2.4,18.5,0,27.5,4.1,17.2,14.6,30.3,23.6,36.1,9.2-5.8,19.5-18.9,23.6-36.1,2.1-9.2,2.8-19.3,0-27.5-4.1,1.1-7.7,2.1-11.8,2.6Zm-13.9,53c-.2.9.2,1.3.2,1.7-.2.6-.6.4-.9,0-.4-.6-.6-1.1-.6-2.1-.2-1.7.6-2.4,1.1-2.8s.9-.6.9-.6l.2,2.8c-.4,0-.9.2-.9,1.1Zm3.6,2.8c0,.4-.2.9-1.1.9s-1.1-.2-1.1-1.1c-.2-3.4-.2-9.7-.2-9.7,0,0,.9.2,1.5.6.2,0,.6.4,1.1.9,0,.2.2.2.2.4-.2,2.4-.4,6.9-.4,7.9Zm2.8-6.4c-.9.6-1.7.9-1.7.9v-2.6s.2-.2.2-.6c-.2-.4-1.9-1.7-2.8-2.1-1.1-.4-2.4-.9-3.2-1.1-2.1-.9-3-2.8-2.1-4.9.2-.9,1.3-1.3,1.7-1.5s1.3-.4,1.3-.4l.2,3s-.2,0-.4.4.2.9.4.9c1.5.6,3.4,1.5,4.9,2.4,1.9,1.1,2.6,1.9,2.6,3.4.2,1.1-.4,1.9-1.1,2.4Zm-5.4-13.9c1.5.2,1.9.2,3.2.4l-.2,6-1.3-.6-1.3-.6s-.4-5.2-.4-5.2Zm8.6,1.3c-.2,1.1-.9,1.9-1.9,2.6-1.1.6-2.4.6-2.4.6v-3.6s.2,0,.4-.2.2-.4.2-.6-.2-.4-.4-.6c-.4-.2-.9-.2-1.1-.2l-5.2-.6c-3-.4-5.4-2.4-5.2-5.4.2-1.9,2.1-2.6,3.6-3.2l1.1,2.1c.2.9.4,1.3.4,1.3,0,0-.6.2-.6.6s.6.6.9.6c2.1.2,5.2.6,6.7,1.3,1.1.4,1.9.9,2.6,1.7.9,1.5,1.1,2.6.9,3.6Zm-9.9-13.9s.6,0,2.6.2c1.3,0,2.4.4,2.4.4l-.2,6.4c-1.5-.2-2.4-.4-3.6-.6-.4-2.4-1.1-3.2-1.9-4.9-.2-.4,0-.6,0-.6.2-.2,1.1-.4,1.1-.4,0,0-.2-.4-.2-.4Zm5.8,6.4s.2-3,.2-4.5c.9-.2,1.1-1.1.6-1.7-.2-.4-.9-.6-1.1-.6-1.7-.4-3.2-.4-4.9-.6-1.5-.2-2.8-.4-4.1-.6-2.8-.6-5.4-2.1-6.7-4.7-1.5-3.2-.2-7.3,3-8.8,2.4-1.3,4.9-1.1,7.3,0,.9.2,1.3,1.1,1.7,1.7.2.2.6.4.9.9.2.2-.2.2-.2.2-.4.2-2.4.2-2.8,0h-2.6c.6.4,1.5.9,2.4,1.3.4.2.9.2,1.3.4.2,0,.6.2.6.4s-.4.2-.9.4c-.6.2-1.5.2-2.4,0-1.3-.2-1.9-1.1-2.8-.6-.6.4-.6,1.1-.4,1.9.2,1.3,1.5,1.7,2.6,2.1,3.6,1.3,7.7.4,11.2,2.4,1.3.6,3,2.1,3.2,3.6,1.1,6-6.2,6.9-6.2,6.9Zm6.4-20c-.2.6-.4.6-.9,1.1-.9.9-2.1,1.7-3.4,2.8-.9.6-1.5,1.1-2.1,2.1-.2.2-.4.6-.4.6-2.1-.4-4.1-.4-5.8-.9v-1.7s1.9,0,2.1-1.3c0,0,0-.4-.2-.6s-.9-.4-1.1-.4c1.5.2,3,.9,4.5,1.5,0-.2-.2-.9-.2-.9-.2-.2-.4-.4-1.1-.6-.9-.2-3.2-.4-3.2-.4h1.9c.4,0,1.1-.2,1.1-.4.2-.2,0-.6-.4-1.1l-.6-.6c-.2-.4-.6-.9-.9-1.3-.4-.6-2.1-1.3-2.1-1.3,0,0-.2-1.1.2-1.5.2-.4,1.1-.4,1.3-.2,1.1.6,2.6,1.3,4.1,1.7q.4.2.4.9c.2,1.1-.2,2.6,0,3.2,0,.2.4.2.4.2,1.5-.9,2.4-2.1,3.9-2.8,1.1-.4,3,.4,2.6,1.9Zm20.4,53c-2.6,0-4.7,2.1-4.7,4.7s2.1,4.7,4.7,4.7,4.7-2.1,4.7-4.7-2.1-4.7-4.7-4.7Zm0,8.8c-2.4,0-4.1-1.7-4.1-4.1s1.7-4.1,4.1-4.1,4.1,1.7,4.1,4.1-1.7,4.1-4.1,4.1Z"></path>
  <path class="cls-2" d="m237.2,110.4c0-1.1-.4-1.5-1.9-1.5h-2.4v5.6h.6v-2.4h1.1l1.5,2.4h.9l-1.7-2.4c1.1-.2,1.9-.6,1.9-1.7Zm-2.6,1.1h-1.1v-1.7h1.5c.6,0,1.3,0,1.3.9s-1.1.9-1.7.9Zm-34.8-59c.4.4.4.9,1.1.9s.6-.2.9-.4h.4c-.6-.6-2.1-.6-3.2-.9.4.4.6.2.9.4Z"></path>
</svg>
