<?xml version="1.0" encoding="UTF-8"?>
<svg xmlns="http://www.w3.org/2000/svg" id="Layer_1" viewBox="0 0 600 145">
  <defs>
    <style>.cls-1{stroke-width:0px;}</style>
  </defs>
  <path class="cls-1" d="m564.7,64.2c-2.1,0-3.8,1.6-3.9,3.7,0,2.1,1.6,3.8,3.7,3.9,2.1,0,3.8-1.6,3.9-3.7,0,0,0,0,0,0,0-2-1.5-3.7-3.6-3.8,0,0-.1,0-.2,0Zm0,7c-1.8,0-3.2-1.3-3.3-3.1,0-1.8,1.3-3.2,3.1-3.3,1.8,0,3.2,1.3,3.3,3.1,0,0,0,0,0,.1,0,1.7-1.2,3.1-2.9,3.2,0,0-.1,0-.2,0Zm-329.3-6.9c-8.2,0-13.6,7.8-13.6,16.4s5.2,16.4,14.2,16.4,9.9-4.3,11.3-9.2l-2.7-.7c-1.2,3.4-3.4,6-7.8,6s-8.5-4.8-8.5-12.4h19.4v-1.8c0-8.1-4.8-14.6-12.4-14.6Zm-6.9,13.3c.6-6,3.1-9.7,6.9-9.7s5.6,3.2,5.9,9.7h-12.7Zm79.3-22.7h.9c2.3.2,4.1,1.1,4.1,3.7v13.6h-16.3v-13.6c0-2.6,1.8-3.5,4.1-3.6h.8v-2.3h-16.5v2.2h.9c2.3.2,4.1,1.1,4.1,3.7v31.9c0,2.6-1.8,3.6-4.1,3.6h-.9v2.2h16.5v-2.2h-.9c-2.3-.3-4.1-1.1-4.1-3.7v-14.9h16.4v14.9c0,2.6-1.8,3.6-4.1,3.6h-.9v2.2h16.5v-2.2h-.9c-2.3-.3-4.1-1.1-4.1-3.7v-31.9c0-2.6,1.8-3.5,4.1-3.6h.9v-2.3h-16.5v2.2Zm241,9.4c-8.2,0-13.6,7.8-13.6,16.4s5.2,16.4,14.2,16.4,9.9-4.3,11.3-9.2l-2.7-.7c-1.2,3.4-3.4,6-7.8,6s-8.5-4.8-8.5-12.4h19.4v-1.8c0-8.1-4.8-14.6-12.4-14.6h0Zm-6.9,13.3c.6-6,3.1-9.7,6.9-9.7s5.6,3.2,5.9,9.7h-12.7Zm-391.2-24.9h-14.5v2.2h.9c2.5.1,4.4,2.2,4.4,4.6,0,0,0,0,0,0v21.6c0,7.1-3.7,11.4-9.4,11.4s-9.2-4.6-9.2-11.4v-22.2c0-2.4,1.3-3.8,4.1-4h.9v-2.2h-16.6v2.2h.9c2.7.3,4.1,1.6,4.1,4.1v23.1c0,8.6,5.1,15.2,14.7,15.2s14.5-6.1,14.5-15.4v-22.3c-.1-2.5,1.8-4.5,4.3-4.7,0,0,.1,0,.2,0h.9v-2.2Zm64.3,40.2c-2.6,0-3.5-1.9-3.5-4.2v-20.2h8.6v-3.2h-8.6v-9.7h-3.1c-1.2,7.3-4.8,9.9-8.7,10.7v2.2h5.7v20.9c0,4.8,2.9,7.6,7.6,7.6s7.3-3.2,8.6-7.7l-2.2-.6c-.9,2.7-2.3,4.3-4.3,4.3Zm-22.7-33.3c2.3,0,4.1-1.8,4.1-4.1,0-2.3-1.8-4.1-4.1-4.1-2.3,0-4.1,1.8-4.1,4.1,0,2.3,1.8,4.1,4.1,4.1Zm-12.9,30.9v-17.1c0-4.8-3-8.9-8.9-8.9-4.3,0-8.1,2.8-9.2,6.9v-6.8l-10.5.8v2.1h1.2c1.9.2,3.1,1.1,3.1,3.7v19.3c0,2.6-1.3,3.6-3.4,3.7h-.9v2.1h14.8v-2.1h-.9c-2.1-.1-3.4-1.1-3.4-3.7v-10.3c.1-7.5,3.4-12,7.2-12s4.8,2,4.8,5.9v16.4c0,2.6-1.3,3.6-3.4,3.7h-.9v2.1h14.8v-2.1h-.9c-2-.2-3.4-1.1-3.4-3.7Zm16.2,0v-25.9l-10.8.8v2.1h1.6c1.9.1,3.1,1.1,3.1,3.7v19.3c0,2.6-1.3,3.6-3.4,3.7h-.9v2.1h14.8v-2.1h-.9c-2.1-.2-3.4-1.1-3.4-3.7Zm83,0v-38.7l-10.6.9v2.1h1.4c1.9.1,3.1,1.1,3.1,3.7v11.2c-1.4-3.5-4.9-5.8-8.7-5.6-8.2,0-12.8,7.8-12.8,16.4s4.6,16.4,12.8,16.4c3.8.2,7.3-2.1,8.7-5.7v5.1h10.4v-2.1h-.9c-2.1-.2-3.4-1.1-3.4-3.7Zm-13.7,2.9c-4.4,0-7.3-4.9-7.3-12.8s2.9-12.8,7.3-12.8,7.6,5,7.6,12.8-3,12.8-7.6,12.8Zm183.2-2.9v-17.1c0-4.8-3-8.9-8.9-8.9-4.3,0-8.1,2.8-9.2,6.9v-19.6l-10.6.9v2.1h1.4c1.9.1,3.1,1.1,3.1,3.7v31.9c0,2.6-1.3,3.6-3.4,3.7h-.9v2.1h14.8v-2.1h-.9c-2.1-.1-3.4-1.1-3.4-3.7v-10.3c.1-7.5,3.4-12,7.2-12s4.8,2,4.8,5.9v16.4c0,2.6-1.3,3.6-3.4,3.7h-.9v2.1h14.8v-2.1h-.9c-2.1-.2-3.4-1.1-3.4-3.7h0Zm20.7,2.6c-5.1,0-8.5-4.8-8.5-12.4s3.4-12.7,8.5-12.7c1.9-.1,3.8.7,5.1,2.1-1,.6-1.6,1.7-1.6,2.9,0,1.8,1.5,3.3,3.3,3.3,1.9,0,3.4-1.6,3.3-3.4,0,0,0-.1,0-.2,0-3.7-3.7-8.4-10.4-8.4s-14.7,7.8-14.7,16.4,5.2,16.4,14.2,16.4,9.7-4.1,11.1-8.8l-2.7-.8c-1.2,3.2-3.3,5.7-7.6,5.7Zm36-1.9v-16.3c0-6.7-4.2-10.6-11.2-10.6s-11.4,4-11.4,8.6c-.1,1.8,1.2,3.4,3.1,3.6,1.8.1,3.4-1.2,3.6-3.1,0-.1,0-.3,0-.4,0-1.2-.6-2.3-1.7-2.9,1.3-1.7,3.4-2.6,5.6-2.5,3.8,0,6.1,2.9,6.1,7.7v1.4l-9.2,3.8c-6.2,2.6-8.3,4.8-8.3,8.9s3.4,7.7,8.7,7.7c3.9,0,7.4-2.5,8.8-6.1v.9c0,3.2,2.2,5.1,6,5.1,1.3,0,2.7-.2,3.9-.6v-2.1c-2.7.3-3.9-.7-3.9-3.1Zm-6.1-7.1c-.3,5.5-3.1,9.2-6.9,9.2-2.4.1-4.4-1.7-4.5-4.1,0-.2,0-.4,0-.6,0-2.6,1.6-4.8,4-5.7l7.4-3.3v4.6Zm30.1-19.7c-3.6,0-6.7,2.4-8.1,6.6v-6.4l-10.5.8v2.1h1.2c1.9.2,3.1,1.1,3.1,3.7v19.3c0,2.6-1.3,3.6-3.4,3.7h-.9v2.1h14.8v-2.1h-.9c-2.1-.1-3.4-1.1-3.4-3.7v-10.6c.1-7.8,3.5-12.7,7.6-12.7.8,0,1.5.2,2.1.8-1.1.6-1.8,1.7-1.8,2.9,0,1.8,1.5,3.3,3.3,3.3,1.9,0,3.4-1.6,3.3-3.5,0,0,0,0,0-.1.1-3.4-2.6-6.3-6-6.4-.1,0-.3,0-.4,0Zm37.2,3.7c.4-.1.7-.6.7-1,0-.8-.5-1.2-1.3-1.2h-2v4.2h.7v-1.7h1.1c.6,0,.8.2.8.9,0,.3,0,.5.1.8h.8c-.1-.2-.2-.4-.2-.6,0-1,0-1.1-.6-1.3h0Zm-.7-.2h-1.3v-1.4h1.2c.5,0,.8.2.8.7,0,.4-.2.7-.6.7,0,0-.1,0-.2,0h0Zm-187.6,23.3v-16.3c0-6.7-4.2-10.6-11.2-10.6s-11.4,4-11.4,8.6c-.1,1.8,1.2,3.4,3.1,3.6,1.8.1,3.4-1.2,3.6-3.1,0-.1,0-.3,0-.4,0-1.2-.6-2.3-1.7-2.9,1.3-1.7,3.4-2.6,5.6-2.5,3.8,0,6.1,2.9,6.1,7.7v1.4l-9.3,3.8c-6.2,2.6-8.3,4.8-8.3,8.9s3.4,7.7,8.7,7.7c3.9,0,7.4-2.4,8.8-6.1v.9c0,3.2,2.2,5.1,6,5.1,1.3,0,2.7-.2,3.9-.6v-2.1c-2.6.3-3.9-.7-3.9-3.1Zm-6.1-7.1c-.3,5.5-3.1,9.2-6.9,9.2-2.4,0-4.4-1.8-4.5-4.1,0-.2,0-.4,0-.6,0-2.6,1.6-4.8,4-5.7l7.4-3.3v4.5Zm45.7,4.5c-.9,2.6-2.3,4.2-4.3,4.2s-3.5-1.9-3.5-4.2v-20.2h8.6v-3.2h-8.6v-9.7h-3.1c-1.2,7.3-4.8,9.9-8.7,10.7v2.2h5.7v20.9c0,4.8,2.9,7.6,7.6,7.6s7.3-3.2,8.6-7.7l-2.2-.6Zm-78-24.3c-8.2,0-13.6,7.8-13.6,16.4s5.2,16.4,14.2,16.4,9.9-4.3,11.3-9.2l-2.7-.7c-1.2,3.4-3.4,6-7.8,6s-8.5-4.8-8.5-12.4h19.4v-1.8c0-8.1-4.8-14.6-12.4-14.6Zm-6.9,13.3c.6-6,3.1-9.7,6.9-9.7s5.6,3.2,5.9,9.7h-12.7Zm61,12.9v-38.7l-10.6.9v2.1h1.4c1.9.1,3.1,1.1,3.1,3.7v31.9c0,2.6-1.3,3.6-3.4,3.7h-.9v2.1h14.9v-2.1h-.9c-2.1-.2-3.5-1.1-3.5-3.7ZM44.9,110.4h0c2.7.9,5.6,1.4,8.5,1.4,12.7,0,21.5-9.2,21.5-26.7v-52.1l4.8-2.3v55.3c0,17.8-9.2,28.2-22.2,28.2-4.5,0-8.9-1.3-12.6-3.8Zm-5.5-5.3h0c2.7,1,5.6,1.5,8.5,1.6,10.7,0,17.8-6.7,17.8-21.8v-48l4.7-2.2v50.6c0,15.8-8,23.9-19.2,23.9-4.3,0-8.4-1.5-11.8-4.1Zm-3.3-4.7h0c2.3.7,4.6,1.1,7,1.2,8.3,0,13.4-4.5,13.4-16.4v-44.1l4.7-2.2v45.7c0,13.4-6.1,19.4-14.9,19.4-3.7,0-7.3-1.3-10.2-3.6Zm16-13.9v-43.6l-20.6,9.3v35.4c0,6.8,4.2,11.3,10.5,11.3s10-4.6,10-12.3Z"></path>
</svg>
