<?xml version="1.0" encoding="UTF-8"?>
<svg xmlns="http://www.w3.org/2000/svg" id="Layer_1" viewBox="0 0 600 145">
  <defs>
    <style>.cls-1{fill:#8a8a8a;stroke-width:0px;}</style>
  </defs>
  <path class="cls-1" d="m399.1,104.7V35.6h21.9v8.2c4.5-6.3,10.9-9.3,18.4-9.3s16.1,4.4,19.7,11.2c4.4-7.5,12.7-11.2,21.1-11.2,15.1,0,23.4,11.3,23.4,25.7v44.5h-22.3v-41.1c0-6.7-4.3-10.7-9.4-10.7s-9.4,4-9.4,10.7v41.1h-22.3v-41.1c0-6.7-4.3-10.7-9.4-10.7s-9.4,4-9.4,10.7v41.1h-22.1Zm-7.5-26.3c0,17.8-14.1,27.8-32.2,27.8s-32.2-10.1-32.2-27.8v-42.8h22.4v42.2c0,6,4,10,9.8,10s9.8-3.9,9.8-10v-42.2h22.4v42.8Zm-70.5-25v-17.8h-18.4v-17.7h-22.3v62c0,17.1,10.2,25.8,26.6,25.8s9.8-.5,14.1-2.3v-17.7c-3.2,1-6,1.4-8.5,1.4-5.9,0-10-2.7-10-9v-24.7h18.5Zm-68.9,16.7c0,10-7.2,17.3-16.1,17.3s-16.2-7.4-16.2-17.3,7.2-17.1,16.2-17.1,16.1,7.4,16.1,17.1Zm-32.4,61.3v-34c5.7,5.3,13.2,8.4,21.4,8.4,18.7,0,33.4-15.9,33.4-35.7s-14.7-35.5-33.4-35.5-16.2,3.3-22,9v-8h-21.7v95.9h22.4Zm-52.8-71.9c0,14.1-10.4,24.7-23.5,24.7s-23.5-10.6-23.5-24.7,10.4-24.7,23.5-24.7,23.5,10.6,23.5,24.7Zm-23.5-46.1c-26.4,0-47.2,20.5-47.2,46.1s20.8,46.1,47.2,46.1,47.2-20.5,47.2-46.1-20.8-46.1-47.2-46.1Z"></path>
</svg>
