<?xml version="1.0" encoding="UTF-8"?>
<svg xmlns="http://www.w3.org/2000/svg" id="Layer_1" viewBox="0 0 600 145">
  <defs>
    <style>.cls-1{fill:#686868;stroke-width:0px;}</style>
  </defs>
  <path class="cls-1" d="m210.6,120.2v-.7c0-22.8,0-45.6,0-68.4,0-.5.1-.7.6-.8,5.3-1.9,10.8-3.2,16.3-3.9,4.5-.6,9-.8,13.5-.5,4.5.3,9,1.1,13.1,3,1.3.6,2.5,1.4,3.7,2.2.3.2.4.2.7,0,3.7-2.2,7.6-3.8,11.9-4.6,3.3-.7,6.6-.9,10-.6,3.2.2,6.3.7,9.3,1.9,7.4,2.7,11.6,8.1,13.3,15.7.5,2.5.7,5,.7,7.5,0,16.1,0,32.3,0,48.4q0,.8-.8.8c-4.4,0-8.9,0-13.3,0-1.8,0-3-1.3-2.9-2.9,0-14.8,0-29.6,0-44.4,0-2-.2-3.9-.7-5.8-.9-3.6-3.1-5.9-6.8-6.5-4.1-.7-8-.3-11.6,1.8q-1.9,1.1-1.9,3.3c0,17.2,0,34.4,0,51.6,0,1.8-1.2,3-3,3-3.7,0-7.5,0-11.2,0-1.6,0-2.9-1.1-2.9-3,0-14.6,0-29.1,0-43.7,0-2.2-.2-4.5-.8-6.6-.9-3.5-3.2-5.6-6.7-6.3-3-.6-6-.6-9-.2-1.3.2-2.6.5-3.9.8-.5,0-.6.3-.6.8,0,9.6,0,19.3,0,28.9s0,17.6,0,26.3c0,1.7-1.1,2.8-2.8,2.8-4.6,0-9.1,0-13.7,0h-.6Z"></path>
  <path class="cls-1" d="m122.3,120.2h-.6c-4.8,0-9.6,0-14.4,0-1.8,0-2.8-1.1-2.8-2.8,0-10.7,0-21.3,0-32,0-4.2-3-7.6-7.1-8.2-.2,0-.5,0-.7,0-9.4,0-18.7,0-28.1,0-.2,0-.4,0-.7,0v.8c0,13.1,0,26.1,0,39.2,0,2-1.3,3.2-3.2,3.2-4.7,0-9.3,0-14,0h-.7V24c.2,0,.4,0,.6,0,4.8,0,9.6,0,14.4,0,1.7,0,2.8,1.1,2.8,2.8,0,9.5,0,18.9,0,28.4,0,3.6,2.6,7.4,7.4,7.4,9.5,0,19.1,0,28.6,0,.6,0,.7-.2.7-.8,0-9.9,0-19.8,0-29.6,0-1.8,0-3.7,0-5.5,0-1.6,1.1-2.7,2.7-2.7,4.9,0,9.7,0,14.6,0,.2,0,.4,0,.6,0v96.2Z"></path>
  <path class="cls-1" d="m522.4,120.2h-.6c-4.5,0-9,0-13.6,0-1.8,0-2.9-1.1-2.9-2.9,0-1.3,0-2.7,0-4.1-.2.1-.2.2-.3.2-3.8,4.1-8.5,6.5-14,7.4-2,.3-4,.1-6.1,0-3.6-.4-6.9-1.4-10-3.2-4.7-2.7-7.8-6.7-9.9-11.6-1.3-3.2-2.1-6.5-2.5-9.9-.4-3.1-.4-6.2-.4-9.3,0-3.5,0-7,0-10.5.1-5.2.9-10.2,3.1-15,3.3-7.3,8.9-11.8,16.6-14,4.3-1.2,8.6-1.6,13-1.3,3.9.2,7.9.6,11.8,1,5.1.6,10,1.6,15,2.9.6.1.7.4.7.9,0,22.9,0,45.8,0,68.7v.8Zm-17.1-59c-.3,0-.5-.1-.8-.1-1.7-.2-3.5-.4-5.2-.6-3.1-.3-6.3-.4-9.4,0-4,.5-7,2.5-8.7,6.3-1.5,3.2-1.9,6.7-2,10.2,0,3.2,0,6.3,0,9.5,0,1.9,0,3.8.1,5.7.1,2.5.6,4.9,1.4,7.2,1.3,3.4,3.5,5.9,7.1,7,2.1.6,4.2.8,6.3.6,4-.2,7.5-1.4,10.5-4.1.4-.3.5-.6.5-1.1,0-13.3,0-26.6,0-39.9v-.7Z"></path>
  <path class="cls-1" d="m358.7,113.2c-.5.5-1,1-1.5,1.4-3.5,3.1-7.4,5.2-12,6-1.9.4-3.8.3-5.7.1-3.2-.3-6.3-1-9.2-2.3-5.7-2.6-9.6-7-11.9-12.8-1.4-3.3-2.1-6.9-2.5-10.4-.4-3.3-.3-6.5-.3-9.8,0-3.4,0-6.9,0-10.3.1-3.8.7-7.6,2-11.2,2.1-6.1,5.8-11,11.5-14.2,3.3-1.8,6.8-2.9,10.5-3.4,4.2-.6,8.3-.5,12.5-.2,7.8.5,15.4,1.8,23,3.7.6.1.7.4.7,1,0,22.9,0,45.8,0,68.6,0,1,0,.8-.8.8-4.4,0-8.9,0-13.3,0-1.7,0-3-1.1-2.9-2.9,0-1.1,0-2.3,0-3.4,0-.2,0-.4,0-.6Zm0-31.4c0-6.7,0-13.3,0-20,0-.6-.2-.8-.8-.9-1.8-.2-3.5-.4-5.3-.6-3.1-.3-6.3-.4-9.4,0-3.4.4-6.2,1.9-8,4.9-.8,1.4-1.4,2.8-1.8,4.3-.8,3.1-.9,6.2-.9,9.4,0,3.7,0,7.4,0,11.1,0,3,.4,5.9,1.4,8.7,1.4,3.9,3.9,6.6,8,7.7,2.7.7,5.5.5,8.2.1,3-.5,5.5-1.8,7.8-3.7.5-.4.7-.8.7-1.5,0-6.6,0-13.1,0-19.7Z"></path>
  <path class="cls-1" d="m390.2,120.1c0-.2,0-.4,0-.6,0-22.9,0-45.8,0-68.6,0-.5.1-.7.6-.8,5.2-1.4,10.4-2.5,15.7-3.2,4.6-.6,9.3-1.1,14-1.1,5,0,9.9.4,14.6,2.1,7.3,2.6,11.8,7.7,13.8,15.1.8,3,1.2,6,1.2,9,0,15.9,0,31.7,0,47.6,0,.4-.1.6-.6.6-4.6,0-9.3,0-13.9,0-1.5,0-2.6-1.1-2.6-2.5,0-.2,0-.4,0-.6,0-14.6,0-29.1,0-43.7,0-2.2-.2-4.3-.9-6.4-1.1-3.5-3.5-5.5-7-6.3-2.6-.6-5.2-.5-7.8-.4-3.1.1-6.2.6-9.3,1.2-.6.1-.8.3-.8,1,0,18.3,0,36.5,0,54.8,0,1.6-.8,2.6-2.2,2.9-.1,0-.3,0-.4,0-4.6,0-9.2,0-13.9,0-.1,0-.3,0-.5,0Z"></path>
  <path class="cls-1" d="m196.2,81.8c0,11.3,0,22.5,0,33.8q0,.9-.9,1.1c-5.4,1.5-10.8,2.6-16.3,3.3-5.2.7-10.4,1.1-15.6,1-4.3-.1-8.6-.7-12.7-2.3-6.5-2.4-10.7-7-12.8-13.6-.9-2.9-1.4-5.9-1.6-8.9,0-1.9-.1-3.9-.1-5.8,0-14.2,0-28.4,0-42.6q0-.8.8-.8c4.5,0,9,0,13.5,0,1.4,0,2.4.6,2.7,1.9.1.4.1.8.1,1.2,0,14.4,0,28.8,0,43.1,0,2.2.2,4.3.8,6.4,1.1,3.6,3.5,5.7,7.1,6.5,2.6.6,5.3.5,7.9.4,3.1-.1,6.1-.5,9.1-1.2.8-.2.8-.2.8-1,0-18,0-36,0-53.9,0-.4,0-.8,0-1.2.3-1.3,1.3-2.1,2.8-2.1,4.5,0,9,0,13.5,0,0,0,0,0,.1,0,.4,0,.6.2.6.6,0,.2,0,.4,0,.6,0,11.2,0,22.4,0,33.6Z"></path>
  <path class="cls-1" d="m550,111.9c0,4.7-3.8,8.5-8.4,8.6-4.7,0-8.8-3.7-8.8-8.6,0-4.7,3.8-8.6,8.5-8.6,4.7,0,8.8,3.8,8.7,8.6Zm-8.6,6.6c3.8,0,6.9-3.1,6.9-6.9,0-3.8-3.1-6.9-6.8-6.9-3.8,0-7,3.2-7,7,0,3.7,3.1,6.8,6.9,6.8Z"></path>
  <path class="cls-1" d="m540,113.3c0,1,0,1.9,0,2.9,0,.5-.2.6-.6.6-1.5,0-1.2,0-1.2-1.1,0-2.5,0-5.1,0-7.6v-.8c.3,0,.5,0,.8,0,1.3,0,2.6,0,3.9.2,1.3.2,2,.9,2.2,1.9.2,1.3-.1,2.5-1.3,3.3-.2,0-.3.2-.6.3.8,1.2,1.5,2.4,2.3,3.5-.7.4-1.8.2-2.3-.4-.5-.7-.9-1.5-1.4-2.2-.5-.8-.6-.9-1.7-.7Zm0-4.5c0,1,0,1.8,0,2.7,0,.1.2.3.3.3.7,0,1.4,0,2.1-.1.7-.1,1-.7,1-1.4,0-.6-.3-1.1-1-1.2-.7-.1-1.4-.1-2.3-.2Z"></path>
</svg>
