<?xml version="1.0" encoding="UTF-8"?>
<svg xmlns="http://www.w3.org/2000/svg" id="Layer_1" viewBox="0 0 600 145">
  <defs>
    <style>.cls-1{fill:#5b5b5b;stroke-width:0px;}</style>
  </defs>
  <path class="cls-1" d="m280,86.2c21.2,0,32.1-6.6,32.1-20.9s-9-20.6-28.4-20.6-33,10.5-35.2,29.4c-3.4-.2-7.2-.3-12.3-.3,0-1,0-2.1,0-3.1,0-19.1-7.9-26.1-29-26.1s-19.4,1.5-25,3.8l.8,15.3c4.8-2.6,12-5,18.9-5s12.6,4,12.6,13.5v1.4c-.7,0-2.4,0-3.3,0-24,0-35.2,7.3-35.2,20.8s6.9,22.1,26.6,22.1,20.7-1.5,33.9-1.5c-1-5.6-1-13.6-1-19.1s.1-6.4.3-10.3c5.6,0,9.8.2,12.5.3,2.1,22.3,13.6,30.6,37.8,30.6s17.9-1.5,22.7-3.7l-.8-15.3c-4.7,2.7-11.2,4.9-18.4,4.9-11.9,0-18.3-6.2-18.3-16v-.5c2.1,0,6.4.2,8.8.2Zm-72.3,16.9c-7.3,0-10.5-2.4-10.5-8.6s4-9.3,14-9.3,2.1,0,2.9,0c0,5.7-.2,12.4.1,17-1.7.5-4.3.8-6.5.8Zm63.4-28.7v-.3c0-9.6,3-16.6,11.8-16.6s8.2,2.6,8.2,7.4-4.4,9.8-13.7,9.8-4.6,0-6.3-.2Zm84.3,26.8c-7.1,0-9.2-2.8-9.2-13.1v-26.6h14v-14.8h-13.8c0-5.2.4-13,.9-18.3h-13c-1.7,12.9-5.5,19.6-17.2,21.5,0,3.5.1,8.2,0,11.5h7.8c-.1,7.3-.3,20.7-.3,32.9s8.1,21.9,23.2,21.9,12.8-1.1,14.6-1.6l-.9-15.2c-1.3.9-3.9,1.6-6.1,1.6Zm147.5-30.5c0-19.1-7.9-26.1-29-26.1s-19.4,1.5-25,3.8l.8,15.3c4.8-2.6,12-5,18.9-5s12.6,4,12.6,13.5v1.4c-.7,0-2.4,0-3.3,0-24.1,0-35.2,7.3-35.2,20.8s6.9,22.1,26.6,22.1,20.7-1.5,33.8-1.5c-1-5.6-1-13.6-1-19.1,0-6.2.6-15,.6-25.2Zm-28.4,32.4c-7.4,0-10.5-2.4-10.5-8.6s4-9.3,14-9.3,2,0,2.8,0c0,5.7-.2,12.4.2,17-1.7.5-4.3.8-6.5.8Zm-40.6-19.9c0-5.8.1-13.4.1-13.4,0-17.3-7.6-25-29-25s-20.6,2.1-34,2.1c.8,12.1.8,27.1.7,36.4,0,9.4-.3,26.3-.7,31.8h23c-.5-5.5-1-21.2-.9-31.8,0-6,0-13.3.3-23.1,2.3-.8,5.2-1.4,8.4-1.4,8.1,0,10.7,3.8,10.7,14.2,0,0,.1,6.5.1,10.4,0,9.4-.3,26.3-.7,31.8h23c-.5-5.5-1-21.2-.9-31.8ZM148.7,41.6c-2.2-2.2-5-3.2-7.7-3.2s-5.6,1.1-7.8,3.3l-12.8,12.8-12.8-12.8c-2.2-2.2-5-3.3-7.8-3.3s-5.6,1.1-7.8,3.2l-15.5,15.5c-4.3,4.3-4.3,11.2,0,15.5l43.8,43.8,43.8-43.8c4.3-4.3,4.3-11.2,0-15.5l-15.5-15.5Zm372.4,7c0-2.3-1.4-3.3-4.2-3.3h-4.4v11.4h1.9v-4.9h1.8l3,4.9h2.1l-3.2-5c1.7-.2,3-1,3-3.1Zm-6.6,1.7v-3.3h2.3c1.1,0,2.5.2,2.5,1.5s-1.2,1.8-2.6,1.8h-2.1Zm2.1-9.8c-5.5,0-10.2,4.1-10.2,10.3s4.2,10.3,10.2,10.3,10.1-4.1,10.1-10.3-4.7-10.3-10.1-10.3Zm0,18.9c-4.9,0-8-3.8-8-8.5s3.5-8.5,8-8.5,7.9,3.5,7.9,8.5-3.5,8.5-7.9,8.5Z"></path>
</svg>
